OxygenSans-Heavy.ufo
<glyph name="exclam" format="1">
  <advance width="619.7"/>
  <unicode hex="0021"/>
  <outline>
    <contour>
      <point x="310.5" y="-7.8" type="curve" smooth="yes"/>
      <point x="396.5" y="-7.8"/>
      <point x="458.2" y="61.2"/>
      <point x="458.2" y="139.7" type="curve" smooth="yes"/>
      <point x="458.2" y="218.9"/>
      <point x="396.5" y="288.0"/>
      <point x="310.5" y="288.0" type="curve" smooth="yes"/>
      <point x="223.7" y="288.0"/>
      <point x="162.1" y="218.9"/>
      <point x="162.1" y="139.7" type="curve" smooth="yes"/>
      <point x="162.1" y="61.4"/>
      <point x="223.7" y="-7.8"/>
    </contour>
    <contour>
      <point x="262.0" y="436.0" type="line"/>
      <point x="372.6" y="436.0" type="line"/>
      <point x="431.5" y="1239.0" type="line"/>
      <point x="431.5" y="1444.3" type="line"/>
      <point x="195.4" y="1444.3" type="line"/>
      <point x="195.4" y="1239.0" type="line"/>
    </contour>
  </outline>
</glyph>
<glyph name="quotedbl" format="1">
  <advance width="744.8"/>
  <unicode hex="0022"/>
  <outline>
    <contour>
      <point x="492.4" y="910.8" type="line"/>
      <point x="646.1" y="910.8" type="line"/>
      <point x="675.1" y="1426.9" type="line"/>
      <point x="458.5" y="1426.9" type="line"/>
    </contour>
    <contour>
      <point x="147.8" y="910.8" type="line"/>
      <point x="301.5" y="910.8" type="line"/>
      <point x="330.4" y="1426.9" type="line"/>
      <point x="113.9" y="1426.9" type="line"/>
    </contour>
  </outline>
</glyph>
<glyph name="numbersign" format="1">
  <advance width="1209.9"/>
  <unicode hex="0023"/>
  <outline>
    <contour>
      <point x="713.7" y="560.3" type="line"/>
      <point x="483.5" y="560.3" type="line"/>
      <point x="556.4" y="941.0" type="line"/>
      <point x="785.7" y="941.0" type="line"/>
    </contour>
    <contour>
      <point x="607.3" y="-2.8" type="line"/>
      <point x="755.7" y="-2.8" type="line"/>
      <point x="840.0" y="440.4" type="line"/>
      <point x="1041.1" y="440.4" type="line"/>
      <point x="1058.6" y="560.3" type="line"/>
      <point x="864.0" y="560.3" type="line"/>
      <point x="936.0" y="941.0" type="line"/>
      <point x="1126.4" y="941.0" type="line"/>
      <point x="1143.9" y="1060.9" type="line"/>
      <point x="958.2" y="1060.9" type="line"/>
      <point x="1026.7" y="1419.9" type="line"/>
      <point x="876.5" y="1419.9" type="line"/>
      <point x="808.8" y="1060.9" type="line"/>
      <point x="578.6" y="1060.9" type="line"/>
      <point x="647.1" y="1419.9" type="line"/>
      <point x="496.0" y="1419.9" type="line"/>
      <point x="428.3" y="1060.9" type="line"/>
      <point x="220.2" y="1060.9" type="line"/>
      <point x="203.0" y="941.0" type="line"/>
      <point x="406.1" y="941.0" type="line"/>
      <point x="334.2" y="560.3" type="line"/>
      <point x="134.9" y="560.3" type="line"/>
      <point x="117.7" y="440.4" type="line"/>
      <point x="311.1" y="440.4" type="line"/>
      <point x="227.7" y="-2.8" type="line"/>
      <point x="376.1" y="-2.8" type="line"/>
      <point x="460.4" y="440.4" type="line"/>
      <point x="690.6" y="440.4" type="line"/>
    </contour>
  </outline>
</glyph>
<glyph name="percent" format="1">
  <advance width="1745.3"/>
  <unicode hex="0025"/>
  <outline>
    <contour>
      <point x="1413.7" y="-13.9" type="curve" smooth="yes"/>
      <point x="1185.1" y="-13.9"/>
      <point x="1065.3" y="147.4"/>
      <point x="1065.3" y="354.8" type="curve" smooth="yes"/>
      <point x="1065.3" y="563.2"/>
      <point x="1188.2" y="722.5"/>
      <point x="1413.7" y="722.5" type="curve" smooth="yes"/>
      <point x="1643.3" y="722.5"/>
      <point x="1764.0" y="566.2"/>
      <point x="1764.0" y="354.8" type="curve" smooth="yes"/>
      <point x="1764.0" y="147.4"/>
      <point x="1640.3" y="-13.9"/>
    </contour>
    <contour>
      <point x="1413.9" y="113.5" type="curve" smooth="yes"/>
      <point x="1549.3" y="113.5"/>
      <point x="1607.7" y="221.1"/>
      <point x="1607.7" y="356.7" type="curve" smooth="yes"/>
      <point x="1607.7" y="496.5"/>
      <point x="1548.3" y="596.9"/>
      <point x="1413.9" y="596.9" type="curve" smooth="yes"/>
      <point x="1278.4" y="596.9"/>
      <point x="1218.1" y="491.4"/>
      <point x="1218.1" y="356.7" type="curve" smooth="yes"/>
      <point x="1218.1" y="217.9"/>
      <point x="1278.5" y="113.5"/>
    </contour>
    <contour>
      <point x="408.2" y="826.5" type="curve" smooth="yes"/>
      <point x="543.6" y="826.5"/>
      <point x="602.0" y="934.1"/>
      <point x="602.0" y="1069.7" type="curve" smooth="yes"/>
      <point x="602.0" y="1209.5"/>
      <point x="542.6" y="1309.9"/>
      <point x="408.2" y="1309.9" type="curve" smooth="yes"/>
      <point x="272.7" y="1309.9"/>
      <point x="212.4" y="1204.4"/>
      <point x="212.4" y="1069.7" type="curve" smooth="yes"/>
      <point x="212.4" y="930.9"/>
      <point x="272.8" y="826.5"/>
    </contour>
    <contour>
      <point x="408.0" y="699.1" type="curve" smooth="yes"/>
      <point x="179.4" y="699.1"/>
      <point x="59.6" y="860.4"/>
      <point x="59.6" y="1067.8" type="curve" smooth="yes"/>
      <point x="59.6" y="1276.2"/>
      <point x="182.5" y="1435.5"/>
      <point x="408.0" y="1435.5" type="curve" smooth="yes"/>
      <point x="637.6" y="1435.5"/>
      <point x="758.3" y="1279.2"/>
      <point x="758.3" y="1067.8" type="curve" smooth="yes"/>
      <point x="758.3" y="860.4"/>
      <point x="634.6" y="699.1"/>
    </contour>
    <contour>
      <point x="406.9" y="0.0" type="line"/>
      <point x="1232.5" y="1422.9" type="line"/>
      <point x="1399.2" y="1422.9" type="line"/>
      <point x="581.7" y="0.0" type="line"/>
    </contour>
  </outline>
</glyph>
<glyph name="ampersand" format="1">
  <advance width="1362.4"/>
  <unicode hex="0026"/>
  <outline>
    <contour>
      <point x="602.9" y="-17.2" type="curve" smooth="yes"/>
      <point x="763.0" y="-17.2"/>
      <point x="863.7" y="18.0"/>
      <point x="985.4" y="107.7" type="curve"/>
      <point x="1119.2" y="-14.6" type="line"/>
      <point x="1340.8" y="69.2" type="line"/>
      <point x="1154.2" y="259.0" type="line"/>
      <point x="1217.0" y="328.1"/>
      <point x="1280.1" y="425.1"/>
      <point x="1321.4" y="508.4" type="curve"/>
      <point x="1153.4" y="616.9" type="line"/>
      <point x="1117.5" y="547.9"/>
      <point x="1062.7" y="461.3"/>
      <point x="1014.6" y="405.2" type="curve"/>
      <point x="702.8" y="749.4" type="line"/>
      <point x="854.5" y="834.2"/>
      <point x="1009.0" y="966.6"/>
      <point x="1009.0" y="1143.2" type="curve" smooth="yes"/>
      <point x="1009.0" y="1357.3"/>
      <point x="808.5" y="1441.0"/>
      <point x="628.8" y="1441.0" type="curve" smooth="yes"/>
      <point x="434.3" y="1441.0"/>
      <point x="245.3" y="1328.1"/>
      <point x="245.3" y="1110.9" type="curve" smooth="yes"/>
      <point x="245.3" y="988.2"/>
      <point x="305.5" y="871.4"/>
      <point x="381.6" y="784.0" type="curve"/>
      <point x="221.3" y="695.5"/>
      <point x="107.4" y="596.6"/>
      <point x="107.4" y="390.0" type="curve" smooth="yes"/>
      <point x="107.4" y="105.3"/>
      <point x="338.3" y="-17.2"/>
    </contour>
    <contour>
      <point x="610.4" y="175.1" type="curve" smooth="yes"/>
      <point x="471.1" y="175.1"/>
      <point x="348.0" y="239.9"/>
      <point x="348.0" y="399.8" type="curve" smooth="yes"/>
      <point x="348.0" y="509.9"/>
      <point x="408.6" y="587.7"/>
      <point x="499.7" y="640.3" type="curve"/>
      <point x="851.0" y="251.7" type="line"/>
      <point x="792.6" y="203.6"/>
      <point x="705.4" y="175.1"/>
    </contour>
    <contour>
      <point x="587.0" y="885.9" type="curve"/>
      <point x="519.4" y="956.0"/>
      <point x="477.2" y="1047.0"/>
      <point x="477.2" y="1130.4" type="curve" smooth="yes"/>
      <point x="477.2" y="1226.5"/>
      <point x="542.7" y="1271.2"/>
      <point x="635.1" y="1271.2" type="curve" smooth="yes"/>
      <point x="722.9" y="1271.2"/>
      <point x="782.8" y="1227.9"/>
      <point x="782.8" y="1135.8" type="curve" smooth="yes"/>
      <point x="782.8" y="1028.6"/>
      <point x="685.2" y="938.4"/>
    </contour>
  </outline>
</glyph>
<glyph name="quotesingle" format="1">
  <advance width="489.4"/>
  <unicode hex="0027"/>
  <outline>
    <contour>
      <point x="183.1" y="885.7" type="line"/>
      <point x="335.3" y="885.7" type="line"/>
      <point x="360.1" y="1412.1" type="line"/>
      <point x="152.3" y="1412.1" type="line"/>
    </contour>
  </outline>
</glyph>
<glyph name="parenleft" format="1">
  <advance width="718.4"/>
  <unicode hex="0028"/>
  <outline>
    <contour>
      <point x="448.0" y="-158.7" type="curve"/>
      <point x="679.1" y="-158.7" type="line"/>
      <point x="528.6" y="93.4"/>
      <point x="419.4" y="360.3"/>
      <point x="419.4" y="672.2" type="curve" smooth="yes"/>
      <point x="419.4" y="999.9"/>
      <point x="561.4" y="1329.5"/>
      <point x="680.2" y="1504.8" type="curve"/>
      <point x="446.9" y="1504.8" type="line"/>
      <point x="296.6" y="1301.0"/>
      <point x="179.4" y="1003.0"/>
      <point x="179.4" y="669.9" type="curve" smooth="yes"/>
      <point x="179.4" y="335.0"/>
      <point x="286.6" y="68.5"/>
    </contour>
  </outline>
</glyph>
<glyph name="parenright" format="1">
  <advance width="728.3"/>
  <unicode hex="0029"/>
  <outline>
    <contour>
      <point x="95.1" y="-158.7" type="curve"/>
      <point x="328.1" y="-158.7" type="line"/>
      <point x="477.8" y="42.4"/>
      <point x="595.7" y="348.5"/>
      <point x="595.7" y="686.1" type="curve" smooth="yes"/>
      <point x="595.7" y="1016.5"/>
      <point x="489.4" y="1274.9"/>
      <point x="327.4" y="1504.8" type="curve"/>
      <point x="95.9" y="1504.8" type="line"/>
      <point x="247.1" y="1251.2"/>
      <point x="355.7" y="992.7"/>
      <point x="355.7" y="683.9" type="curve" smooth="yes"/>
      <point x="355.7" y="353.1"/>
      <point x="213.2" y="15.1"/>
    </contour>
  </outline>
</glyph>
<glyph name="asterisk" format="1">
  <advance width="1104.8"/>
  <unicode hex="002A"/>
  <outline>
    <contour>
      <point x="390.1" y="506.8" type="line"/>
      <point x="189.8" y="617.7" type="line"/>
      <point x="415.6" y="906.4" type="line"/>
      <point x="89.5" y="979.0" type="line"/>
      <point x="153.1" y="1193.1" type="line"/>
      <point x="472.6" y="1059.6" type="line"/>
      <point x="440.1" y="1426.7" type="line"/>
      <point x="662.8" y="1426.7" type="line"/>
      <point x="631.0" y="1059.6" type="line"/>
      <point x="953.4" y="1193.1" type="line"/>
      <point x="1015.4" y="979.0" type="line"/>
      <point x="686.7" y="906.4" type="line"/>
      <point x="726.7" y="855.8"/>
      <point x="900.3" y="635.6"/>
      <point x="914.3" y="617.7" type="curve"/>
      <point x="905.7" y="612.3"/>
      <point x="726.9" y="510.5"/>
      <point x="718.3" y="505.1" type="curve"/>
      <point x="549.9" y="812.5" type="line"/>
    </contour>
  </outline>
</glyph>
<glyph name="plus" format="1">
  <advance width="1044.8"/>
  <unicode hex="002B"/>
  <outline>
    <contour>
      <point x="457.5" y="141.1" type="line"/>
      <point x="649.4" y="141.1" type="line"/>
      <point x="649.4" y="533.4" type="line"/>
      <point x="1027.6" y="533.4" type="line"/>
      <point x="1027.6" y="721.0" type="line"/>
      <point x="650.3" y="721.0" type="line"/>
      <point x="650.3" y="1112.3" type="line"/>
      <point x="459.3" y="1112.3" type="line"/>
      <point x="459.3" y="721.0" type="line"/>
      <point x="78.5" y="721.0" type="line"/>
      <point x="78.5" y="533.4" type="line"/>
      <point x="457.5" y="533.4" type="line"/>
    </contour>
  </outline>
</glyph>
<glyph name="comma" format="1">
  <advance width="521.3"/>
  <unicode hex="002C"/>
  <outline>
    <contour>
      <point x="115.6" y="-249.0" type="curve"/>
      <point x="288.9" y="-249.0" type="line"/>
      <point x="288.9" y="-249.0"/>
      <point x="432.8" y="193.2"/>
      <point x="432.8" y="197.3" type="curve"/>
      <point x="438.2" y="251.8" type="line"/>
      <point x="201.1" y="251.8" type="line"/>
      <point x="201.1" y="241.4"/>
      <point x="115.6" y="-249.0"/>
    </contour>
  </outline>
</glyph>
<glyph name="hyphen" format="1">
  <advance width="612.7"/>
  <unicode hex="002D"/>
  <outline>
    <contour>
      <point x="48.1" y="435.0" type="line"/>
      <point x="562.3" y="435.0" type="line"/>
      <point x="562.3" y="624.2" type="line"/>
      <point x="48.1" y="624.2" type="line"/>
    </contour>
  </outline>
</glyph>
<glyph name="period" format="1">
  <advance width="540.4"/>
  <unicode hex="002E"/>
  <outline>
    <contour>
      <point x="289.4" y="1.0" type="curve" smooth="yes"/>
      <point x="374.5" y="1.0"/>
      <point x="435.9" y="68.8"/>
      <point x="435.9" y="146.8" type="curve" smooth="yes"/>
      <point x="435.9" y="225.7"/>
      <point x="374.5" y="295.3"/>
      <point x="289.4" y="295.3" type="curve" smooth="yes"/>
      <point x="203.2" y="295.3"/>
      <point x="141.0" y="225.7"/>
      <point x="141.0" y="146.8" type="curve" smooth="yes"/>
      <point x="141.0" y="68.0"/>
      <point x="204.3" y="1.0"/>
    </contour>
  </outline>
</glyph>
<glyph name="slash" format="1">
  <advance width="892.7"/>
  <unicode hex="002F"/>
  <outline>
    <contour>
      <point x="64.8" y="-138.5" type="line"/>
      <point x="271.2" y="-138.5" type="line"/>
      <point x="867.7" y="1418.6" type="line"/>
      <point x="657.5" y="1418.6" type="line"/>
    </contour>
  </outline>
</glyph>
<glyph name="zero" format="1">
  <advance width="1211.1"/>
  <unicode hex="0030"/>
  <outline>
    <contour>
      <point x="632.8" y="183.1" type="curve" smooth="yes"/>
      <point x="437.7" y="183.1"/>
      <point x="374.3" y="434.2"/>
      <point x="374.3" y="718.2" type="curve"/>
      <point x="375.9" y="995.0"/>
      <point x="439.3" y="1237.8"/>
      <point x="632.8" y="1237.8" type="curve" smooth="yes"/>
      <point x="827.9" y="1237.8"/>
      <point x="889.2" y="997.3"/>
      <point x="889.2" y="715.7" type="curve" smooth="yes"/>
      <point x="889.2" y="432.5"/>
      <point x="827.9" y="183.1"/>
    </contour>
    <contour>
      <point x="632.8" y="-20.4" type="curve" smooth="yes"/>
      <point x="1013.5" y="-20.4"/>
      <point x="1148.4" y="329.1"/>
      <point x="1148.4" y="708.9" type="curve" smooth="yes"/>
      <point x="1148.4" y="1096.3"/>
      <point x="1008.6" y="1440.6"/>
      <point x="632.8" y="1440.6" type="curve" smooth="yes"/>
      <point x="258.7" y="1440.6"/>
      <point x="116.7" y="1098.8"/>
      <point x="116.7" y="708.9" type="curve" smooth="yes"/>
      <point x="116.7" y="329.1"/>
      <point x="253.0" y="-20.4"/>
    </contour>
  </outline>
</glyph>
<glyph name="one" format="1">
  <advance width="1207.0"/>
  <unicode hex="0031"/>
  <outline>
    <contour>
      <point x="235.3" y="0.0" type="line"/>
      <point x="1093.0" y="0.0" type="line"/>
      <point x="1093.0" y="198.4" type="line"/>
      <point x="715.3" y="198.4" type="line"/>
      <point x="808.2" y="104.6" type="line"/>
      <point x="808.2" y="1422.9" type="line"/>
      <point x="587.4" y="1422.9" type="line"/>
      <point x="506.3" y="1364.7"/>
      <point x="366.5" y="1314.2"/>
      <point x="249.2" y="1282.6" type="curve"/>
      <point x="249.2" y="1082.8" type="line"/>
      <point x="388.3" y="1104.4"/>
      <point x="538.7" y="1161.4"/>
      <point x="600.0" y="1218.1" type="curve"/>
      <point x="553.9" y="1252.2" type="line"/>
      <point x="553.9" y="104.8" type="line"/>
      <point x="646.6" y="198.4" type="line"/>
      <point x="235.3" y="198.4" type="line"/>
    </contour>
  </outline>
</glyph>
<glyph name="two" format="1">
  <advance width="1207.0"/>
  <unicode hex="0032"/>
  <outline>
    <contour>
      <point x="185.1" y="0.0" type="line"/>
      <point x="1013.7" y="0.0" type="line"/>
      <point x="1030.4" y="198.4" type="line"/>
      <point x="356.2" y="198.4" type="line"/>
      <point x="398.6" y="115.6" type="line"/>
      <point x="776.1" y="526.6" type="line"/>
      <point x="953.5" y="718.0"/>
      <point x="1036.4" y="863.0"/>
      <point x="1036.4" y="1035.3" type="curve" smooth="yes"/>
      <point x="1036.4" y="1335.1"/>
      <point x="817.6" y="1440.1"/>
      <point x="601.1" y="1440.1" type="curve" smooth="yes"/>
      <point x="446.7" y="1440.1"/>
      <point x="286.0" y="1387.8"/>
      <point x="186.5" y="1313.0" type="curve"/>
      <point x="261.3" y="1115.3" type="line"/>
      <point x="327.9" y="1164.8"/>
      <point x="458.0" y="1213.6"/>
      <point x="570.5" y="1213.6" type="curve" smooth="yes"/>
      <point x="678.7" y="1213.6"/>
      <point x="780.0" y="1168.3"/>
      <point x="780.0" y="1022.7" type="curve" smooth="yes"/>
      <point x="780.0" y="923.0"/>
      <point x="714.2" y="807.6"/>
      <point x="624.7" y="708.7" type="curve" smooth="yes"/>
      <point x="176.4" y="204.7" type="line"/>
    </contour>
  </outline>
</glyph>
<glyph name="three" format="1">
  <advance width="1207.0"/>
  <unicode hex="0033"/>
  <outline>
    <contour>
      <point x="591.0" y="-25.3" type="curve" smooth="yes"/>
      <point x="855.2" y="-25.3"/>
      <point x="1080.2" y="115.5"/>
      <point x="1080.2" y="385.7" type="curve" smooth="yes"/>
      <point x="1080.2" y="555.4"/>
      <point x="989.3" y="704.7"/>
      <point x="832.1" y="749.4" type="curve"/>
      <point x="968.4" y="803.4"/>
      <point x="1043.2" y="911.8"/>
      <point x="1043.2" y="1062.8" type="curve" smooth="yes"/>
      <point x="1043.2" y="1289.3"/>
      <point x="839.6" y="1441.0"/>
      <point x="581.9" y="1441.0" type="curve" smooth="yes"/>
      <point x="411.9" y="1441.0"/>
      <point x="284.4" y="1403.8"/>
      <point x="176.1" y="1337.0" type="curve"/>
      <point x="250.5" y="1151.1" type="line"/>
      <point x="331.0" y="1202.6"/>
      <point x="441.1" y="1238.8"/>
      <point x="561.3" y="1238.8" type="curve" smooth="yes"/>
      <point x="709.1" y="1238.8"/>
      <point x="787.2" y="1147.5"/>
      <point x="787.2" y="1044.2" type="curve" smooth="yes"/>
      <point x="787.2" y="879.8"/>
      <point x="640.8" y="842.5"/>
      <point x="443.6" y="840.7" type="curve"/>
      <point x="383.3" y="840.7" type="line"/>
      <point x="383.3" y="641.6" type="line"/>
      <point x="443.4" y="641.6" type="line"/>
      <point x="669.3" y="636.6"/>
      <point x="813.5" y="594.5"/>
      <point x="813.5" y="396.9" type="curve" smooth="yes"/>
      <point x="813.5" y="256.5"/>
      <point x="705.0" y="189.5"/>
      <point x="560.5" y="189.5" type="curve" smooth="yes"/>
      <point x="461.4" y="189.5"/>
      <point x="349.3" y="221.6"/>
      <point x="252.7" y="279.7" type="curve"/>
      <point x="175.4" y="97.8" type="line"/>
      <point x="294.6" y="18.6"/>
      <point x="443.4" y="-25.3"/>
    </contour>
  </outline>
</glyph>
<glyph name="four" format="1">
  <advance width="1207.0"/>
  <unicode hex="0034"/>
  <outline>
    <contour>
      <point x="718.2" y="0.0" type="line"/>
      <point x="968.7" y="0.0" type="line"/>
      <point x="968.7" y="319.1" type="line"/>
      <point x="1125.5" y="319.1" type="line"/>
      <point x="1140.0" y="519.1" type="line"/>
      <point x="968.7" y="519.1" type="line"/>
      <point x="968.7" y="1422.9" type="line"/>
      <point x="661.7" y="1422.9" type="line"/>
      <point x="97.9" y="508.6" type="line"/>
      <point x="97.9" y="319.1" type="line"/>
      <point x="718.2" y="319.1" type="line"/>
    </contour>
    <contour>
      <point x="354.6" y="515.7" type="line"/>
      <point x="718.1" y="1140.6" type="line"/>
      <point x="718.1" y="515.7" type="line"/>
    </contour>
  </outline>
</glyph>
<glyph name="five" format="1">
  <advance width="1207.0"/>
  <unicode hex="0035"/>
  <outline>
    <contour>
      <point x="585.5" y="-19.1" type="curve" smooth="yes"/>
      <point x="907.9" y="-19.1"/>
      <point x="1098.5" y="169.6"/>
      <point x="1098.5" y="450.4" type="curve" smooth="yes"/>
      <point x="1098.5" y="711.3"/>
      <point x="928.9" y="898.1"/>
      <point x="685.4" y="898.1" type="curve" smooth="yes"/>
      <point x="559.9" y="898.1"/>
      <point x="483.8" y="855.4"/>
      <point x="457.8" y="836.3" type="curve"/>
      <point x="484.2" y="1217.2" type="line"/>
      <point x="1027.9" y="1217.2" type="line"/>
      <point x="1045.2" y="1422.9" type="line"/>
      <point x="249.7" y="1422.9" type="line"/>
      <point x="210.5" y="628.2" type="line"/>
      <point x="395.1" y="599.3" type="line"/>
      <point x="457.9" y="666.2"/>
      <point x="536.5" y="698.5"/>
      <point x="610.5" y="698.5" type="curve" smooth="yes"/>
      <point x="747.7" y="698.5"/>
      <point x="837.0" y="602.1"/>
      <point x="837.0" y="452.6" type="curve" smooth="yes"/>
      <point x="837.0" y="296.8"/>
      <point x="745.6" y="185.9"/>
      <point x="559.1" y="185.9" type="curve" smooth="yes"/>
      <point x="404.9" y="185.9"/>
      <point x="265.0" y="276.7"/>
      <point x="239.6" y="294.3" type="curve"/>
      <point x="151.8" y="113.6" type="line"/>
      <point x="184.8" y="88.1"/>
      <point x="377.0" y="-19.1"/>
    </contour>
  </outline>
</glyph>
<glyph name="six" format="1">
  <advance width="1207.0"/>
  <unicode hex="0036"/>
  <outline>
    <contour>
      <point x="625.9" y="-19.0" type="curve" smooth="yes"/>
      <point x="917.2" y="-19.0"/>
      <point x="1134.3" y="164.3"/>
      <point x="1134.3" y="436.7" type="curve" smooth="yes"/>
      <point x="1134.3" y="698.3"/>
      <point x="930.9" y="877.0"/>
      <point x="667.2" y="877.0" type="curve" smooth="yes"/>
      <point x="556.3" y="877.0"/>
      <point x="460.0" y="803.0"/>
      <point x="438.4" y="795.1" type="curve"/>
      <point x="485.1" y="741.9" type="line"/>
      <point x="485.1" y="741.9"/>
      <point x="648.8" y="959.4"/>
      <point x="661.1" y="977.5" type="curve"/>
      <point x="983.1" y="1422.9" type="line"/>
      <point x="680.1" y="1422.9" type="line"/>
      <point x="308.3" y="906.0" type="line"/>
      <point x="201.3" y="760.7"/>
      <point x="113.3" y="630.5"/>
      <point x="113.3" y="441.5" type="curve" smooth="yes"/>
      <point x="113.3" y="168.4"/>
      <point x="323.0" y="-19.0"/>
    </contour>
    <contour>
      <point x="616.7" y="177.8" type="curve" smooth="yes"/>
      <point x="454.8" y="177.8"/>
      <point x="370.9" y="281.4"/>
      <point x="370.9" y="430.5" type="curve" smooth="yes"/>
      <point x="370.9" y="591.2"/>
      <point x="453.3" y="688.9"/>
      <point x="620.2" y="688.9" type="curve" smooth="yes"/>
      <point x="793.1" y="688.9"/>
      <point x="873.9" y="587.7"/>
      <point x="873.9" y="433.1" type="curve" smooth="yes"/>
      <point x="873.9" y="283.7"/>
      <point x="782.8" y="177.8"/>
    </contour>
  </outline>
</glyph>
<glyph name="seven" format="1">
  <advance width="1207.0"/>
  <unicode hex="0037"/>
  <outline>
    <contour>
      <point x="324.9" y="0.1" type="line"/>
      <point x="601.4" y="0.1" type="line"/>
      <point x="1052.5" y="1247.4" type="line"/>
      <point x="1052.5" y="1422.9" type="line"/>
      <point x="166.8" y="1422.9" type="line"/>
      <point x="169.6" y="1208.3" type="line"/>
      <point x="760.3" y="1208.3" type="line"/>
    </contour>
  </outline>
</glyph>
<glyph name="eight" format="1">
  <advance width="1207.0"/>
  <unicode hex="0038"/>
  <outline>
    <contour>
      <point x="606.2" y="-19.0" type="curve" smooth="yes"/>
      <point x="865.0" y="-19.0"/>
      <point x="1101.1" y="113.7"/>
      <point x="1101.1" y="371.8" type="curve" smooth="yes"/>
      <point x="1101.1" y="545.8"/>
      <point x="997.5" y="687.5"/>
      <point x="862.5" y="754.2" type="curve"/>
      <point x="980.5" y="817.3"/>
      <point x="1075.2" y="919.8"/>
      <point x="1075.2" y="1078.8" type="curve" smooth="yes"/>
      <point x="1075.2" y="1320.4"/>
      <point x="857.9" y="1441.0"/>
      <point x="605.4" y="1441.0" type="curve" smooth="yes"/>
      <point x="354.5" y="1441.0"/>
      <point x="133.4" y="1320.4"/>
      <point x="133.4" y="1078.8" type="curve" smooth="yes"/>
      <point x="133.4" y="916.4"/>
      <point x="235.5" y="814.3"/>
      <point x="357.9" y="753.9" type="curve"/>
      <point x="214.8" y="687.0"/>
      <point x="105.9" y="549.6"/>
      <point x="105.9" y="372.7" type="curve" smooth="yes"/>
      <point x="105.9" y="115.4"/>
      <point x="345.9" y="-19.0"/>
    </contour>
    <contour>
      <point x="606.2" y="171.5" type="curve" smooth="yes"/>
      <point x="448.9" y="171.5"/>
      <point x="361.2" y="256.2"/>
      <point x="361.2" y="392.9" type="curve" smooth="yes"/>
      <point x="361.2" y="537.9"/>
      <point x="463.9" y="631.2"/>
      <point x="606.2" y="668.5" type="curve"/>
      <point x="747.8" y="631.2"/>
      <point x="848.1" y="536.1"/>
      <point x="848.1" y="393.8" type="curve" smooth="yes"/>
      <point x="848.1" y="255.2"/>
      <point x="765.2" y="171.5"/>
    </contour>
    <contour>
      <point x="606.2" y="824.1" type="curve"/>
      <point x="459.8" y="858.2"/>
      <point x="376.6" y="944.0"/>
      <point x="376.6" y="1078.5" type="curve" smooth="yes"/>
      <point x="376.6" y="1190.5"/>
      <point x="471.7" y="1263.1"/>
      <point x="606.2" y="1263.1" type="curve" smooth="yes"/>
      <point x="740.9" y="1263.1"/>
      <point x="832.8" y="1190.5"/>
      <point x="832.8" y="1078.5" type="curve" smooth="yes"/>
      <point x="832.8" y="944.0"/>
      <point x="752.0" y="858.2"/>
    </contour>
  </outline>
</glyph>
<glyph name="nine" format="1">
  <advance width="1207.0"/>
  <unicode hex="0039"/>
  <outline>
    <contour>
      <point x="238.7" y="0.0" type="line"/>
      <point x="548.7" y="0.0" type="line"/>
      <point x="548.7" y="0.0"/>
      <point x="922.8" y="501.6"/>
      <point x="942.6" y="527.7" type="curve" smooth="yes"/>
      <point x="1041.4" y="664.3"/>
      <point x="1129.2" y="794.2"/>
      <point x="1129.2" y="979.6" type="curve" smooth="yes"/>
      <point x="1129.2" y="1254.5"/>
      <point x="918.6" y="1441.0"/>
      <point x="615.7" y="1441.0" type="curve" smooth="yes"/>
      <point x="323.5" y="1441.0"/>
      <point x="107.2" y="1257.7"/>
      <point x="107.2" y="982.6" type="curve" smooth="yes"/>
      <point x="107.2" y="717.4"/>
      <point x="309.8" y="540.5"/>
      <point x="573.5" y="540.5" type="curve" smooth="yes"/>
      <point x="667.3" y="540.5"/>
      <point x="786.1" y="609.9"/>
      <point x="805.0" y="623.2" type="curve"/>
      <point x="755.6" y="669.3" type="line"/>
      <point x="755.6" y="669.3"/>
      <point x="616.2" y="488.9"/>
      <point x="603.1" y="471.4" type="curve"/>
    </contour>
    <contour>
      <point x="622.2" y="731.3" type="curve" smooth="yes"/>
      <point x="449.3" y="731.3"/>
      <point x="366.8" y="830.7"/>
      <point x="366.8" y="988.0" type="curve" smooth="yes"/>
      <point x="366.8" y="1139.2"/>
      <point x="460.6" y="1241.5"/>
      <point x="626.7" y="1241.5" type="curve" smooth="yes"/>
      <point x="788.6" y="1241.5"/>
      <point x="872.5" y="1142.3"/>
      <point x="872.5" y="992.3" type="curve" smooth="yes"/>
      <point x="872.5" y="828.0"/>
      <point x="788.2" y="731.3"/>
    </contour>
  </outline>
</glyph>
<glyph name="colon" format="1">
  <advance width="623.5"/>
  <unicode hex="003A"/>
  <outline>
    <contour>
      <point x="197.7" y="0.0" type="line"/>
      <point x="453.3" y="0.0" type="line"/>
      <point x="453.3" y="268.3" type="line"/>
      <point x="197.7" y="268.3" type="line"/>
    </contour>
    <contour>
      <point x="197.7" y="806.9" type="line"/>
      <point x="453.3" y="806.9" type="line"/>
      <point x="453.3" y="1065.8" type="line"/>
      <point x="197.7" y="1065.8" type="line"/>
    </contour>
  </outline>
</glyph>
<glyph name="semicolon" format="1">
  <advance width="620.4"/>
  <unicode hex="003B"/>
  <outline>
    <contour>
      <point x="212.1" y="806.9" type="line"/>
      <point x="467.7" y="806.9" type="line"/>
      <point x="467.7" y="1065.8" type="line"/>
      <point x="212.1" y="1065.8" type="line"/>
    </contour>
    <contour>
      <point x="194.0" y="-300.8" type="line"/>
      <point x="349.0" y="-300.8" type="line"/>
      <point x="470.9" y="248.3" type="line"/>
      <point x="246.3" y="248.3" type="line"/>
    </contour>
  </outline>
</glyph>
<glyph name="less" format="1">
  <advance width="1115.3"/>
  <unicode hex="003C"/>
  <outline>
    <contour>
      <point x="1019.9" y="171.0" type="line"/>
      <point x="1019.9" y="171.0"/>
      <point x="1019.2" y="383.9"/>
      <point x="1018.3" y="384.8" type="curve" smooth="yes"/>
      <point x="366.7" y="678.5" type="line"/>
      <point x="1020.3" y="1000.5" type="line"/>
      <point x="1020.3" y="1204.9" type="line"/>
      <point x="102.3" y="734.7" type="line"/>
      <point x="102.3" y="611.7" type="line"/>
    </contour>
  </outline>
</glyph>
<glyph name="greater" format="1">
  <advance width="1116.6"/>
  <unicode hex="003E"/>
  <outline>
    <contour>
      <point x="143.4" y="174.4" type="line"/>
      <point x="1061.4" y="611.5" type="line"/>
      <point x="1061.4" y="732.8" type="line"/>
      <point x="143.7" y="1206.6" type="line"/>
      <point x="143.7" y="1002.3" type="line"/>
      <point x="795.0" y="678.5" type="line"/>
      <point x="143.4" y="387.5" type="line"/>
    </contour>
  </outline>
</glyph>
<glyph name="question" format="1">
  <advance width="963.4"/>
  <unicode hex="003F"/>
  <outline>
    <contour>
      <point x="514.9" y="439.6" type="line"/>
      <point x="651.6" y="728.9"/>
      <point x="868.0" y="875.4"/>
      <point x="868.0" y="1111.9" type="curve" smooth="yes"/>
      <point x="868.0" y="1333.7"/>
      <point x="674.6" y="1438.0"/>
      <point x="503.1" y="1438.0" type="curve" smooth="yes"/>
      <point x="352.9" y="1438.0"/>
      <point x="247.3" y="1399.9"/>
      <point x="155.4" y="1338.2" type="curve"/>
      <point x="225.7" y="1173.2" type="line"/>
      <point x="279.3" y="1206.4"/>
      <point x="359.0" y="1252.2"/>
      <point x="479.0" y="1252.2" type="curve" smooth="yes"/>
      <point x="593.9" y="1252.2"/>
      <point x="661.1" y="1188.3"/>
      <point x="662.0" y="1081.9" type="curve"/>
      <point x="662.0" y="907.0"/>
      <point x="434.4" y="708.0"/>
      <point x="402.9" y="439.6" type="curve"/>
    </contour>
    <contour>
      <point x="458.5" y="-7.8" type="curve" smooth="yes"/>
      <point x="541.8" y="-7.8"/>
      <point x="600.9" y="61.2"/>
      <point x="600.9" y="139.7" type="curve" smooth="yes"/>
      <point x="600.9" y="218.9"/>
      <point x="541.8" y="288.0"/>
      <point x="458.5" y="288.0" type="curve" smooth="yes"/>
      <point x="373.5" y="288.0"/>
      <point x="310.2" y="218.9"/>
      <point x="310.2" y="139.7" type="curve" smooth="yes"/>
      <point x="310.2" y="60.5"/>
      <point x="374.4" y="-7.8"/>
    </contour>
  </outline>
</glyph>
<glyph name="at" format="1">
  <advance width="1776.9"/>
  <unicode hex="0040"/>
  <outline>
    <contour>
      <point x="871.1" y="-123.9" type="curve" smooth="yes"/>
      <point x="1053.4" y="-123.9"/>
      <point x="1244.5" y="-83.1"/>
      <point x="1367.1" y="-1.0" type="curve"/>
      <point x="1323.6" y="121.7" type="line"/>
      <point x="1197.0" y="49.7"/>
      <point x="1028.6" y="11.9"/>
      <point x="872.5" y="11.9" type="curve" smooth="yes"/>
      <point x="476.4" y="11.9"/>
      <point x="275.5" y="304.5"/>
      <point x="275.5" y="628.6" type="curve" smooth="yes"/>
      <point x="275.5" y="971.2"/>
      <point x="504.5" y="1308.9"/>
      <point x="926.7" y="1308.9" type="curve" smooth="yes"/>
      <point x="1353.2" y="1308.9"/>
      <point x="1519.9" y="1033.1"/>
      <point x="1519.9" y="768.3" type="curve" smooth="yes"/>
      <point x="1519.9" y="501.1"/>
      <point x="1405.0" y="388.3"/>
      <point x="1306.9" y="388.3" type="curve" smooth="yes"/>
      <point x="1242.4" y="388.3"/>
      <point x="1193.5" y="436.8"/>
      <point x="1193.5" y="509.4" type="curve" smooth="yes"/>
      <point x="1193.5" y="626.9"/>
      <point x="1229.8" y="801.3"/>
      <point x="1256.2" y="992.7" type="curve"/>
      <point x="1174.2" y="1038.1"/>
      <point x="1030.6" y="1065.3"/>
      <point x="939.3" y="1065.3" type="curve" smooth="yes"/>
      <point x="665.3" y="1065.3"/>
      <point x="512.2" y="816.8"/>
      <point x="512.2" y="591.1" type="curve" smooth="yes"/>
      <point x="512.2" y="413.1"/>
      <point x="607.3" y="261.8"/>
      <point x="808.7" y="261.8" type="curve" smooth="yes"/>
      <point x="983.3" y="261.8"/>
      <point x="1075.7" y="428.2"/>
      <point x="1103.3" y="531.1" type="curve"/>
      <point x="1065.3" y="531.1" type="line"/>
      <point x="1079.0" y="381.6"/>
      <point x="1157.8" y="262.4"/>
      <point x="1306.3" y="262.4" type="curve" smooth="yes"/>
      <point x="1471.0" y="262.4"/>
      <point x="1670.7" y="428.3"/>
      <point x="1670.7" y="759.5" type="curve" smooth="yes"/>
      <point x="1670.7" y="1177.9"/>
      <point x="1347.1" y="1444.2"/>
      <point x="935.0" y="1444.2" type="curve" smooth="yes"/>
      <point x="458.7" y="1444.2"/>
      <point x="105.8" y="1099.9"/>
      <point x="105.8" y="633.9" type="curve" smooth="yes"/>
      <point x="105.8" y="166.9"/>
      <point x="423.2" y="-123.9"/>
    </contour>
    <contour>
      <point x="826.3" y="381.3" type="curve" smooth="yes"/>
      <point x="724.2" y="381.3"/>
      <point x="676.0" y="469.7"/>
      <point x="676.0" y="586.8" type="curve" smooth="yes"/>
      <point x="676.0" y="773.2"/>
      <point x="784.0" y="951.6"/>
      <point x="961.1" y="951.6" type="curve" smooth="yes"/>
      <point x="1014.9" y="951.6"/>
      <point x="1098.5" y="934.5"/>
      <point x="1135.9" y="921.4" type="curve"/>
      <point x="1093.5" y="996.4" type="line"/>
      <point x="1092.9" y="990.1"/>
      <point x="1045.0" y="713.9"/>
      <point x="1044.1" y="707.7" type="curve" smooth="yes"/>
      <point x="1011.7" y="521.1"/>
      <point x="971.2" y="381.3"/>
    </contour>
  </outline>
</glyph>
<glyph name="A" format="1">
  <advance width="1457.7"/>
  <unicode hex="0041"/>
  <outline>
    <contour>
      <point x="49.0" y="0.0" type="line"/>
      <point x="343.8" y="0.0" type="line"/>
      <point x="506.3" y="462.9" type="line"/>
      <point x="412.5" y="394.0" type="line"/>
      <point x="1045.6" y="394.0" type="line"/>
      <point x="948.9" y="458.2" type="line"/>
      <point x="1117.3" y="0.0" type="line"/>
      <point x="1408.7" y="0.0" type="line"/>
      <point x="903.0" y="1422.9" type="line"/>
      <point x="556.5" y="1422.9" type="line"/>
    </contour>
    <contour>
      <point x="515.6" y="501.7" type="line"/>
      <point x="756.0" y="1251.1" type="line"/>
      <point x="709.8" y="1251.3" type="line"/>
      <point x="938.7" y="502.6" type="line"/>
      <point x="989.1" y="582.9" type="line"/>
      <point x="466.6" y="582.9" type="line"/>
    </contour>
  </outline>
</glyph>
<glyph name="B" format="1">
  <advance width="1381.6"/>
  <unicode hex="0042"/>
  <outline>
    <contour>
      <point x="185.4" y="0.0" type="line"/>
      <point x="756.8" y="0.0" type="line" smooth="yes"/>
      <point x="1077.2" y="0.0"/>
      <point x="1278.0" y="146.8"/>
      <point x="1278.0" y="416.4" type="curve" smooth="yes"/>
      <point x="1278.0" y="634.6"/>
      <point x="1127.8" y="743.9"/>
      <point x="948.1" y="790.4" type="curve"/>
      <point x="948.1" y="728.1" type="line"/>
      <point x="1133.6" y="796.1"/>
      <point x="1226.9" y="906.4"/>
      <point x="1226.9" y="1066.4" type="curve" smooth="yes"/>
      <point x="1226.9" y="1330.3"/>
      <point x="1031.7" y="1422.9"/>
      <point x="682.9" y="1422.9" type="curve" smooth="yes"/>
      <point x="185.4" y="1422.9" type="line"/>
    </contour>
    <contour>
      <point x="408.1" y="213.7" type="line"/>
      <point x="469.4" y="149.6" type="line"/>
      <point x="469.4" y="726.8" type="line"/>
      <point x="408.0" y="653.8" type="line"/>
      <point x="692.8" y="653.8" type="line" smooth="yes"/>
      <point x="899.4" y="653.8"/>
      <point x="994.0" y="592.4"/>
      <point x="994.0" y="434.2" type="curve" smooth="yes"/>
      <point x="994.0" y="278.2"/>
      <point x="902.0" y="213.7"/>
      <point x="706.5" y="213.7" type="curve" smooth="yes"/>
    </contour>
    <contour>
      <point x="407.9" y="841.4" type="line"/>
      <point x="469.4" y="784.7" type="line"/>
      <point x="469.4" y="1276.7" type="line"/>
      <point x="408.2" y="1214.6" type="line"/>
      <point x="651.8" y="1214.6" type="line" smooth="yes"/>
      <point x="854.9" y="1214.6"/>
      <point x="950.9" y="1178.7"/>
      <point x="950.9" y="1027.4" type="curve" smooth="yes"/>
      <point x="950.9" y="889.4"/>
      <point x="866.4" y="841.4"/>
      <point x="702.9" y="841.4" type="curve" smooth="yes"/>
    </contour>
  </outline>
</glyph>
<glyph name="C" format="1">
  <advance width="1310.8"/>
  <unicode hex="0043"/>
  <outline>
    <contour>
      <point x="823.5" y="-19.0" type="curve" smooth="yes"/>
      <point x="958.4" y="-19.0"/>
      <point x="1116.9" y="14.2"/>
      <point x="1228.2" y="66.1" type="curve"/>
      <point x="1174.3" y="278.5" type="line"/>
      <point x="1096.2" y="241.8"/>
      <point x="960.1" y="210.2"/>
      <point x="851.0" y="210.2" type="curve" smooth="yes"/>
      <point x="618.9" y="210.2"/>
      <point x="410.8" y="345.1"/>
      <point x="410.8" y="713.0" type="curve" smooth="yes"/>
      <point x="410.8" y="1069.2"/>
      <point x="615.2" y="1216.3"/>
      <point x="843.2" y="1216.3" type="curve" smooth="yes"/>
      <point x="949.4" y="1216.3"/>
      <point x="1066.3" y="1186.6"/>
      <point x="1155.1" y="1136.8" type="curve"/>
      <point x="1232.0" y="1328.1" type="line"/>
      <point x="1121.1" y="1399.3"/>
      <point x="975.9" y="1441.0"/>
      <point x="824.7" y="1441.0" type="curve" smooth="yes"/>
      <point x="460.1" y="1441.0"/>
      <point x="125.9" y="1212.8"/>
      <point x="125.9" y="716.4" type="curve" smooth="yes"/>
      <point x="125.9" y="221.9"/>
      <point x="433.8" y="-19.0"/>
    </contour>
  </outline>
</glyph>
<glyph name="D" format="1">
  <advance width="1551.8"/>
  <unicode hex="0044"/>
  <outline>
    <contour>
      <point x="469.4" y="137.6" type="line"/>
      <point x="469.4" y="1283.5" type="line"/>
      <point x="400.4" y="1214.6" type="line"/>
      <point x="628.3" y="1214.6" type="line" smooth="yes"/>
      <point x="960.7" y="1214.6"/>
      <point x="1144.6" y="1062.5"/>
      <point x="1144.6" y="713.0" type="curve" smooth="yes"/>
      <point x="1144.6" y="392.8"/>
      <point x="971.7" y="213.7"/>
      <point x="655.3" y="213.7" type="curve" smooth="yes"/>
      <point x="401.3" y="213.7" type="line"/>
    </contour>
    <contour>
      <point x="185.4" y="0.0" type="line"/>
      <point x="644.7" y="0.0" type="line" smooth="yes"/>
      <point x="1109.2" y="0.0"/>
      <point x="1427.7" y="255.8"/>
      <point x="1427.7" y="718.0" type="curve" smooth="yes"/>
      <point x="1427.7" y="1198.3"/>
      <point x="1089.8" y="1422.9"/>
      <point x="620.0" y="1422.9" type="curve" smooth="yes"/>
      <point x="185.4" y="1422.9" type="line"/>
    </contour>
  </outline>
</glyph>
<glyph name="E" format="1">
  <advance width="1239.3"/>
  <unicode hex="0045"/>
  <outline>
    <contour>
      <point x="185.4" y="0.0" type="line"/>
      <point x="1102.3" y="0.0" type="line"/>
      <point x="1119.4" y="213.7" type="line"/>
      <point x="393.9" y="213.7" type="line"/>
      <point x="469.4" y="139.9" type="line"/>
      <point x="469.4" y="721.3" type="line"/>
      <point x="393.0" y="641.3" type="line"/>
      <point x="1065.5" y="641.3" type="line"/>
      <point x="1065.5" y="849.6" type="line"/>
      <point x="393.9" y="849.6" type="line"/>
      <point x="469.4" y="775.3" type="line"/>
      <point x="469.4" y="1290.4" type="line"/>
      <point x="393.2" y="1214.6" type="line"/>
      <point x="1099.2" y="1214.6" type="line"/>
      <point x="1109.5" y="1422.9" type="line"/>
      <point x="185.4" y="1422.9" type="line"/>
    </contour>
  </outline>
</glyph>
<glyph name="F" format="1">
  <advance width="1176.0"/>
  <unicode hex="0046"/>
  <outline>
    <contour>
      <point x="185.4" y="0.0" type="line"/>
      <point x="469.8" y="0.0" type="line"/>
      <point x="469.8" y="702.6" type="line"/>
      <point x="373.8" y="609.3" type="line"/>
      <point x="1055.2" y="609.3" type="line"/>
      <point x="1055.2" y="815.3" type="line"/>
      <point x="369.5" y="815.3" type="line"/>
      <point x="469.8" y="740.2" type="line"/>
      <point x="469.8" y="1293.6" type="line"/>
      <point x="365.0" y="1205.6" type="line"/>
      <point x="1112.8" y="1205.6" type="line"/>
      <point x="1124.5" y="1422.9" type="line"/>
      <point x="185.4" y="1422.9" type="line"/>
    </contour>
  </outline>
</glyph>
<glyph name="G" format="1">
  <advance width="1458.7"/>
  <unicode hex="0047"/>
  <outline>
    <contour>
      <point x="809.2" y="-19.0" type="curve" smooth="yes"/>
      <point x="1001.8" y="-19.0"/>
      <point x="1158.5" y="17.4"/>
      <point x="1312.3" y="83.8" type="curve"/>
      <point x="1312.3" y="759.0" type="line"/>
      <point x="763.6" y="759.0" type="line"/>
      <point x="762.6" y="552.2" type="line"/>
      <point x="1136.1" y="552.2" type="line"/>
      <point x="1067.0" y="621.3" type="line"/>
      <point x="1067.0" y="157.8" type="line"/>
      <point x="1144.0" y="284.2" type="line"/>
      <point x="1080.8" y="250.7"/>
      <point x="1016.5" y="209.3"/>
      <point x="823.0" y="209.3" type="curve" smooth="yes"/>
      <point x="538.3" y="209.3"/>
      <point x="409.8" y="407.9"/>
      <point x="409.8" y="717.3" type="curve" smooth="yes"/>
      <point x="409.8" y="1031.4"/>
      <point x="585.7" y="1218.1"/>
      <point x="854.8" y="1218.1" type="curve" smooth="yes"/>
      <point x="975.9" y="1218.1"/>
      <point x="1093.6" y="1183.0"/>
      <point x="1214.8" y="1123.1" type="curve"/>
      <point x="1282.7" y="1331.5" type="line"/>
      <point x="1139.0" y="1406.6"/>
      <point x="1013.9" y="1441.0"/>
      <point x="839.9" y="1441.0" type="curve" smooth="yes"/>
      <point x="442.0" y="1441.0"/>
      <point x="124.9" y="1171.8"/>
      <point x="124.9" y="714.5" type="curve" smooth="yes"/>
      <point x="124.9" y="272.7"/>
      <point x="385.0" y="-19.0"/>
    </contour>
  </outline>
</glyph>
<glyph name="H" format="1">
  <advance width="1557.6"/>
  <unicode hex="0048"/>
  <outline>
    <contour>
      <point x="185.1" y="0.0" type="line"/>
      <point x="469.1" y="0.0" type="line"/>
      <point x="469.1" y="702.7" type="line"/>
      <point x="388.9" y="625.4" type="line"/>
      <point x="1171.0" y="625.4" type="line"/>
      <point x="1088.5" y="702.7" type="line"/>
      <point x="1088.5" y="0.0" type="line"/>
      <point x="1372.5" y="0.0" type="line"/>
      <point x="1372.5" y="1422.9" type="line"/>
      <point x="1088.5" y="1422.9" type="line"/>
      <point x="1088.5" y="760.1" type="line"/>
      <point x="1164.5" y="837.5" type="line"/>
      <point x="388.0" y="837.5" type="line"/>
      <point x="469.1" y="760.1" type="line"/>
      <point x="469.1" y="1422.9" type="line"/>
      <point x="185.1" y="1422.9" type="line"/>
    </contour>
  </outline>
</glyph>
<glyph name="I" format="1">
  <advance width="855.0"/>
  <unicode hex="0049"/>
  <outline>
    <contour>
      <point x="119.4" y="1422.9" type="line"/>
      <point x="119.4" y="1254.1" type="line"/>
      <point x="364.0" y="1254.1" type="line"/>
      <point x="287.4" y="1313.9" type="line"/>
      <point x="287.4" y="103.9" type="line"/>
      <point x="363.6" y="167.9" type="line"/>
      <point x="119.4" y="167.9" type="line"/>
      <point x="119.4" y="0.0" type="line"/>
      <point x="735.7" y="0.0" type="line"/>
      <point x="735.7" y="167.9" type="line"/>
      <point x="486.2" y="167.9" type="line"/>
      <point x="571.4" y="103.2" type="line"/>
      <point x="571.4" y="1316.4" type="line"/>
      <point x="486.6" y="1254.1" type="line"/>
      <point x="735.7" y="1254.1" type="line"/>
      <point x="735.7" y="1422.9" type="line"/>
    </contour>
  </outline>
</glyph>
<glyph name="J" format="1">
  <advance width="881.3"/>
  <unicode hex="004A"/>
  <outline>
    <contour>
      <point x="212.2" y="-223.7" type="line"/>
      <point x="506.0" y="-223.7"/>
      <point x="696.8" y="-13.5"/>
      <point x="696.8" y="313.1" type="curve" smooth="yes"/>
      <point x="696.8" y="1422.9" type="line"/>
      <point x="411.9" y="1422.9" type="line"/>
      <point x="411.9" y="302.7" type="line" smooth="yes"/>
      <point x="411.9" y="182.6"/>
      <point x="351.7" y="2.3"/>
      <point x="175.3" y="2.3" type="curve" smooth="yes"/>
      <point x="16.0" y="2.3" type="line"/>
      <point x="16.0" y="-223.7" type="line"/>
    </contour>
  </outline>
</glyph>
<glyph name="K" format="1">
  <advance width="1414.7"/>
  <unicode hex="004B"/>
  <outline>
    <contour>
      <point x="185.4" y="0.0" type="line"/>
      <point x="469.4" y="0.0" type="line"/>
      <point x="469.4" y="637.0" type="line"/>
      <point x="416.2" y="503.2" type="line"/>
      <point x="657.7" y="710.4" type="line"/>
      <point x="551.9" y="721.4" type="line"/>
      <point x="1062.6" y="0.0" type="line"/>
      <point x="1389.5" y="0.0" type="line"/>
      <point x="760.1" y="862.1" type="line"/>
      <point x="760.1" y="717.9" type="line"/>
      <point x="1356.8" y="1422.9" type="line"/>
      <point x="1028.3" y="1422.9" type="line"/>
      <point x="404.9" y="714.3" type="line"/>
      <point x="469.4" y="705.2" type="line"/>
      <point x="469.4" y="1422.9" type="line"/>
      <point x="185.4" y="1422.9" type="line"/>
    </contour>
  </outline>
</glyph>
<glyph name="L" format="1">
  <advance width="1162.5"/>
  <unicode hex="004C"/>
  <outline>
    <contour>
      <point x="185.4" y="0.0" type="line"/>
      <point x="1097.4" y="0.0" type="line"/>
      <point x="1110.0" y="213.7" type="line"/>
      <point x="375.5" y="213.7" type="line"/>
      <point x="469.4" y="118.7" type="line"/>
      <point x="469.4" y="1422.9" type="line"/>
      <point x="185.4" y="1422.9" type="line"/>
    </contour>
  </outline>
</glyph>
<glyph name="M" format="1">
  <advance width="1904.1"/>
  <unicode hex="004D"/>
  <outline>
    <contour>
      <point x="167.0" y="0.0" type="line"/>
      <point x="437.6" y="0.0" type="line"/>
      <point x="448.2" y="564.2" type="line"/>
      <point x="448.2" y="1079.5" type="line"/>
      <point x="398.9" y="1079.5" type="line"/>
      <point x="843.0" y="199.9" type="line"/>
      <point x="1051.5" y="199.9" type="line"/>
      <point x="1508.0" y="1079.5" type="line"/>
      <point x="1456.1" y="1079.5" type="line"/>
      <point x="1456.1" y="567.3" type="line"/>
      <point x="1466.7" y="0.0" type="line"/>
      <point x="1736.2" y="0.0" type="line"/>
      <point x="1698.5" y="1422.9" type="line"/>
      <point x="1417.5" y="1422.9" type="line"/>
      <point x="903.0" y="414.4" type="line"/>
      <point x="999.8" y="414.4" type="line"/>
      <point x="490.8" y="1422.9" type="line"/>
      <point x="204.5" y="1422.9" type="line"/>
    </contour>
  </outline>
</glyph>
<glyph name="N" format="1">
  <advance width="1605.4"/>
  <unicode hex="004E"/>
  <outline>
    <contour>
      <point x="185.4" y="0.0" type="line"/>
      <point x="465.0" y="0.0" type="line"/>
      <point x="465.0" y="476.4" type="line"/>
      <point x="441.2" y="1144.3" type="line"/>
      <point x="383.7" y="1142.1" type="line"/>
      <point x="1107.9" y="0.0" type="line"/>
      <point x="1420.0" y="0.0" type="line"/>
      <point x="1420.0" y="1422.9" type="line"/>
      <point x="1140.5" y="1422.9" type="line"/>
      <point x="1140.5" y="820.0" type="line"/>
      <point x="1160.2" y="265.1" type="line"/>
      <point x="1211.0" y="265.6" type="line"/>
      <point x="486.3" y="1422.9" type="line"/>
      <point x="185.4" y="1422.9" type="line"/>
    </contour>
  </outline>
</glyph>
<glyph name="O" format="1">
  <advance width="1656.1"/>
  <unicode hex="004F"/>
  <outline>
    <contour>
      <point x="829.5" y="205.7" type="curve" smooth="yes"/>
      <point x="574.7" y="205.7"/>
      <point x="410.8" y="411.3"/>
      <point x="410.8" y="707.6" type="curve" smooth="yes"/>
      <point x="410.8" y="1010.4"/>
      <point x="577.1" y="1214.5"/>
      <point x="829.7" y="1214.5" type="curve" smooth="yes"/>
      <point x="1082.4" y="1214.5"/>
      <point x="1246.2" y="1010.1"/>
      <point x="1246.2" y="707.6" type="curve" smooth="yes"/>
      <point x="1246.2" y="411.3"/>
      <point x="1084.3" y="205.7"/>
    </contour>
    <contour>
      <point x="829.7" y="-19.0" type="curve" smooth="yes"/>
      <point x="1246.8" y="-19.0"/>
      <point x="1530.2" y="258.1"/>
      <point x="1530.2" y="709.1" type="curve" smooth="yes"/>
      <point x="1530.2" y="1166.1"/>
      <point x="1243.4" y="1441.0"/>
      <point x="829.8" y="1441.0" type="curve" smooth="yes"/>
      <point x="414.9" y="1441.0"/>
      <point x="125.9" y="1166.6"/>
      <point x="125.9" y="709.4" type="curve" smooth="yes"/>
      <point x="125.9" y="257.3"/>
      <point x="411.8" y="-19.0"/>
    </contour>
  </outline>
</glyph>
<glyph name="P" format="1">
  <advance width="1338.1"/>
  <unicode hex="0050"/>
  <outline>
    <contour>
      <point x="185.4" y="0.0" type="line"/>
      <point x="469.4" y="0.0" type="line"/>
      <point x="469.4" y="706.5" type="line"/>
      <point x="401.6" y="627.7" type="line"/>
      <point x="727.1" y="627.7" type="line" smooth="yes"/>
      <point x="1125.1" y="627.7"/>
      <point x="1263.6" y="793.9"/>
      <point x="1263.6" y="1047.9" type="curve" smooth="yes"/>
      <point x="1263.6" y="1342.7"/>
      <point x="1035.5" y="1422.9"/>
      <point x="727.6" y="1422.9" type="curve" smooth="yes"/>
      <point x="185.4" y="1422.9" type="line"/>
    </contour>
    <contour>
      <point x="703.5" y="844.1" type="curve" smooth="yes"/>
      <point x="404.2" y="844.1" type="line"/>
      <point x="469.4" y="773.7" type="line"/>
      <point x="469.4" y="1278.5" type="line"/>
      <point x="404.2" y="1214.6" type="line"/>
      <point x="728.3" y="1214.6" type="line" smooth="yes"/>
      <point x="898.9" y="1214.6"/>
      <point x="979.6" y="1170.0"/>
      <point x="979.6" y="1039.9" type="curve" smooth="yes"/>
      <point x="979.6" y="910.3"/>
      <point x="925.7" y="844.1"/>
    </contour>
  </outline>
</glyph>
<glyph name="Q" format="1">
  <advance width="1654.3"/>
  <unicode hex="0051"/>
  <outline>
    <contour>
      <point x="1223.0" y="-475.6" type="curve"/>
      <point x="1389.0" y="-330.4" type="line"/>
      <point x="1275.7" y="-216.8"/>
      <point x="1172.0" y="-39.7"/>
      <point x="1124.5" y="42.6" type="curve"/>
      <point x="888.9" y="-14.4" type="line"/>
      <point x="970.9" y="-166.4"/>
      <point x="1113.5" y="-396.0"/>
    </contour>
    <component base="O"/>
  </outline>
</glyph>
<glyph name="R" format="1">
  <advance width="1423.3"/>
  <unicode hex="0052"/>
  <outline>
    <contour>
      <point x="185.4" y="0.0" type="line"/>
      <point x="469.4" y="0.0" type="line"/>
      <point x="469.4" y="658.8" type="line"/>
      <point x="403.4" y="608.6" type="line"/>
      <point x="870.0" y="608.6" type="line"/>
      <point x="753.0" y="665.5" type="line"/>
      <point x="872.6" y="363.7" type="line"/>
      <point x="1030.7" y="0.0" type="line"/>
      <point x="1329.3" y="0.0" type="line"/>
      <point x="1136.3" y="425.5" type="line"/>
      <point x="998.3" y="738.4" type="line"/>
      <point x="978.9" y="627.8" type="line"/>
      <point x="1139.2" y="681.5"/>
      <point x="1275.5" y="771.0"/>
      <point x="1275.5" y="1019.3" type="curve" smooth="yes"/>
      <point x="1275.5" y="1336.1"/>
      <point x="1066.1" y="1422.9"/>
      <point x="747.6" y="1422.9" type="curve" smooth="yes"/>
      <point x="185.4" y="1422.9" type="line"/>
    </contour>
    <contour>
      <point x="469.4" y="729.2" type="line"/>
      <point x="469.4" y="1277.4" type="line"/>
      <point x="406.8" y="1214.6" type="line"/>
      <point x="760.0" y="1214.6" type="line" smooth="yes"/>
      <point x="937.7" y="1214.6"/>
      <point x="992.0" y="1146.5"/>
      <point x="992.0" y="1015.5" type="curve" smooth="yes"/>
      <point x="992.0" y="864.1"/>
      <point x="946.0" y="797.4"/>
      <point x="747.1" y="797.4" type="curve" smooth="yes"/>
      <point x="401.6" y="797.4" type="line"/>
    </contour>
  </outline>
</glyph>
<glyph name="S" format="1">
  <advance width="1232.17950832"/>
  <unicode hex="0053"/>
  <outline>
    <contour>
      <point x="607.4" y="-19.0" type="curve" smooth="yes"/>
      <point x="905.9" y="-19.0"/>
      <point x="1118.9" y="120.1"/>
      <point x="1120.5" y="396.7" type="curve" smooth="yes"/>
      <point x="1121.9" y="627.6"/>
      <point x="1005.6" y="738.0"/>
      <point x="764.0" y="820.4" type="curve" smooth="yes"/>
      <point x="539.2" y="898.1" type="line" smooth="yes"/>
      <point x="464.6" y="923.8"/>
      <point x="424.6" y="972.7"/>
      <point x="424.6" y="1048.7" type="curve" smooth="yes"/>
      <point x="424.6" y="1169.2"/>
      <point x="512.6" y="1214.5"/>
      <point x="655.1" y="1214.5" type="curve" smooth="yes"/>
      <point x="785.5" y="1214.5"/>
      <point x="917.6" y="1155.6"/>
      <point x="1007.8" y="1115.8" type="curve"/>
      <point x="1090.8" y="1327.7" type="line"/>
      <point x="970.1" y="1398.0"/>
      <point x="813.1" y="1441.0"/>
      <point x="645.6" y="1441.0" type="curve" smooth="yes"/>
      <point x="370.6" y="1441.0"/>
      <point x="158.9" y="1309.3"/>
      <point x="158.9" y="1042.2" type="curve" smooth="yes"/>
      <point x="158.9" y="842.3"/>
      <point x="269.3" y="723.1"/>
      <point x="441.0" y="665.3" type="curve" smooth="yes"/>
      <point x="681.6" y="584.9" type="line" smooth="yes"/>
      <point x="795.0" y="545.8"/>
      <point x="853.1" y="491.5"/>
      <point x="852.4" y="399.9" type="curve" smooth="yes"/>
      <point x="851.4" y="263.1"/>
      <point x="772.7" y="205.7"/>
      <point x="616.9" y="205.7" type="curve" smooth="yes"/>
      <point x="471.9" y="205.7"/>
      <point x="307.8" y="253.9"/>
      <point x="225.2" y="308.1" type="curve"/>
      <point x="141.2" y="95.3" type="line"/>
      <point x="256.0" y="28.8"/>
      <point x="413.4" y="-19.0"/>
    </contour>
  </outline>
</glyph>
<glyph name="T" format="1">
  <advance width="1199.9"/>
  <unicode hex="0054"/>
  <outline>
    <contour>
      <point x="457.2" y="0.0" type="line"/>
      <point x="742.1" y="0.0" type="line"/>
      <point x="742.1" y="1288.2" type="line"/>
      <point x="668.5" y="1196.3" type="line"/>
      <point x="1147.5" y="1196.3" type="line"/>
      <point x="1147.5" y="1422.9" type="line"/>
      <point x="52.4" y="1422.9" type="line"/>
      <point x="52.4" y="1196.3" type="line"/>
      <point x="530.8" y="1196.3" type="line"/>
      <point x="457.2" y="1288.9" type="line"/>
    </contour>
  </outline>
</glyph>
<glyph name="U" format="1">
  <advance width="1522.7"/>
  <unicode hex="0055"/>
  <outline>
    <contour>
      <point x="761.9" y="-19.0" type="curve" smooth="yes"/>
      <point x="1128.8" y="-19.0"/>
      <point x="1363.4" y="184.5"/>
      <point x="1363.4" y="510.6" type="curve" smooth="yes"/>
      <point x="1363.4" y="1422.9" type="line"/>
      <point x="1079.4" y="1422.9" type="line"/>
      <point x="1079.4" y="530.3" type="line" smooth="yes"/>
      <point x="1079.4" y="316.3"/>
      <point x="963.2" y="209.3"/>
      <point x="761.9" y="209.3" type="curve" smooth="yes"/>
      <point x="564.4" y="209.3"/>
      <point x="444.2" y="315.5"/>
      <point x="444.2" y="529.5" type="curve" smooth="yes"/>
      <point x="444.2" y="1422.9" type="line"/>
      <point x="159.3" y="1422.9" type="line"/>
      <point x="159.3" y="511.8" type="line" smooth="yes"/>
      <point x="159.3" y="181.8"/>
      <point x="393.6" y="-19.0"/>
    </contour>
  </outline>
</glyph>
<glyph name="V" format="1">
  <advance width="1423.7"/>
  <unicode hex="0056"/>
  <outline>
    <contour>
      <point x="552.5" y="0.0" type="line"/>
      <point x="869.5" y="0.0" type="line"/>
      <point x="1355.3" y="1422.9" type="line"/>
      <point x="1054.3" y="1422.9" type="line"/>
      <point x="803.1" y="603.1" type="line"/>
      <point x="681.9" y="190.5" type="line"/>
      <point x="750.7" y="190.5" type="line"/>
      <point x="626.0" y="601.7" type="line"/>
      <point x="372.2" y="1422.9" type="line"/>
      <point x="68.4" y="1422.9" type="line"/>
    </contour>
  </outline>
</glyph>
<glyph name="W" format="1">
  <advance width="2027.8"/>
  <unicode hex="0057"/>
  <outline>
    <contour>
      <point x="437.7" y="0.0" type="line"/>
      <point x="704.2" y="0.0" type="line"/>
      <point x="1040.1" y="1118.9" type="line"/>
      <point x="992.8" y="1118.9" type="line"/>
      <point x="1305.1" y="0.0" type="line"/>
      <point x="1574.7" y="0.0" type="line"/>
      <point x="1982.0" y="1422.8" type="line"/>
      <point x="1704.9" y="1422.8" type="line"/>
      <point x="1416.3" y="298.8" type="line"/>
      <point x="1453.0" y="298.8" type="line"/>
      <point x="1142.7" y="1412.4" type="line"/>
      <point x="885.3" y="1412.4" type="line"/>
      <point x="559.5" y="298.6" type="line"/>
      <point x="599.7" y="298.6" type="line"/>
      <point x="323.5" y="1422.8" type="line"/>
      <point x="45.8" y="1422.8" type="line"/>
    </contour>
  </outline>
</glyph>
<glyph name="X" format="1">
  <advance width="1429.0"/>
  <unicode hex="0058"/>
  <outline>
    <contour>
      <point x="78.7" y="0.0" type="line"/>
      <point x="369.9" y="0.0" type="line"/>
      <point x="731.0" y="532.8" type="line"/>
      <point x="862.0" y="701.4" type="line"/>
      <point x="1331.3" y="1422.9" type="line"/>
      <point x="1043.9" y="1422.9" type="line"/>
      <point x="722.3" y="925.8" type="line"/>
      <point x="578.0" y="757.7" type="line"/>
    </contour>
    <contour>
      <point x="1046.1" y="0.0" type="line"/>
      <point x="1352.0" y="0.0" type="line"/>
      <point x="406.7" y="1422.9" type="line"/>
      <point x="107.6" y="1422.9" type="line"/>
    </contour>
  </outline>
</glyph>
<glyph name="Y" format="1">
  <advance width="1318.8"/>
  <unicode hex="0059"/>
  <outline>
    <contour>
      <point x="521.5" y="0.0" type="line"/>
      <point x="799.4" y="0.0" type="line"/>
      <point x="799.4" y="652.7" type="line"/>
      <point x="745.2" y="444.2" type="line"/>
      <point x="1266.7" y="1422.9" type="line"/>
      <point x="973.6" y="1422.9" type="line"/>
      <point x="615.8" y="703.4" type="line"/>
      <point x="700.7" y="703.4" type="line"/>
      <point x="349.6" y="1422.9" type="line"/>
      <point x="52.1" y="1422.9" type="line"/>
      <point x="582.5" y="429.2" type="line"/>
      <point x="521.5" y="647.4" type="line"/>
    </contour>
  </outline>
</glyph>
<glyph name="Z" format="1">
  <advance width="1248.9"/>
  <unicode hex="005A"/>
  <outline>
    <contour>
      <point x="149.8" y="0.0" type="line"/>
      <point x="1129.6" y="0.0" type="line"/>
      <point x="1130.7" y="213.7" type="line"/>
      <point x="424.1" y="213.7" type="line"/>
      <point x="461.2" y="130.7" type="line"/>
      <point x="1122.0" y="1237.6" type="line"/>
      <point x="1121.0" y="1422.9" type="line"/>
      <point x="161.4" y="1422.9" type="line"/>
      <point x="161.4" y="1214.6" type="line"/>
      <point x="883.0" y="1214.6" type="line"/>
      <point x="838.7" y="1298.9" type="line"/>
      <point x="149.8" y="172.9" type="line"/>
    </contour>
  </outline>
</glyph>
<glyph name="bracketleft" format="1">
  <advance width="744.4"/>
  <unicode hex="005B"/>
  <outline>
    <contour>
      <point x="205.6" y="-132.4" type="line"/>
      <point x="205.6" y="1500.3" type="line"/>
      <point x="656.9" y="1500.3" type="line"/>
      <point x="656.9" y="1321.4" type="line"/>
      <point x="446.9" y="1321.4" type="line"/>
      <point x="446.9" y="47.2" type="line"/>
      <point x="656.9" y="47.2" type="line"/>
      <point x="656.9" y="-132.4" type="line"/>
    </contour>
  </outline>
</glyph>
<glyph name="backslash" format="1">
  <advance width="854.6"/>
  <unicode hex="005C"/>
  <outline>
    <contour>
      <point x="580.8" y="-6.0" type="line"/>
      <point x="106.3" y="1407.6" type="line"/>
      <point x="332.4" y="1407.6" type="line"/>
      <point x="802.5" y="-6.0" type="line"/>
    </contour>
  </outline>
</glyph>
<glyph name="bracketright" format="1">
  <advance width="744.7"/>
  <unicode hex="005D"/>
  <outline>
    <contour>
      <point x="122.5" y="-132.4" type="line"/>
      <point x="122.5" y="46.3" type="line"/>
      <point x="332.6" y="46.3" type="line"/>
      <point x="332.6" y="1320.5" type="line"/>
      <point x="122.5" y="1320.5" type="line"/>
      <point x="122.5" y="1500.3" type="line"/>
      <point x="573.7" y="1500.3" type="line"/>
      <point x="573.7" y="-132.4" type="line"/>
    </contour>
  </outline>
</glyph>
<glyph name="asciicircum" format="1">
  <advance width="1105.7"/>
  <unicode hex="005E"/>
  <outline>
    <contour>
      <point x="62.7" y="525.0" type="line"/>
      <point x="500.8" y="1422.6" type="line"/>
      <point x="627.0" y="1422.6" type="line"/>
      <point x="1091.7" y="525.0" type="line"/>
      <point x="884.9" y="525.0" type="line"/>
      <point x="565.0" y="1155.9" type="line"/>
      <point x="269.2" y="525.0" type="line"/>
    </contour>
  </outline>
</glyph>
<glyph name="underscore" format="1">
  <advance width="1018.5"/>
  <unicode hex="005F"/>
  <outline>
    <contour>
      <point x="55.7" y="-194.8" type="line"/>
      <point x="1006.5" y="-194.8" type="line"/>
      <point x="1006.5" y="-20.2" type="line"/>
      <point x="55.7" y="-20.2" type="line"/>
    </contour>
  </outline>
</glyph>
<glyph name="grave" format="1">
  <advance width="476.0"/>
  <unicode hex="0060"/>
  <outline>
    <contour>
      <point x="321.5" y="1147.3" type="line"/>
      <point x="483.1" y="1147.3" type="line"/>
      <point x="298.5" y="1525.6" type="line"/>
      <point x="2.6" y="1525.6" type="line"/>
    </contour>
  </outline>
</glyph>
<glyph name="a" format="1">
  <advance width="1132.1"/>
  <unicode hex="0061"/>
  <outline>
    <contour>
      <point x="443.8" y="-18.6" type="curve" smooth="yes"/>
      <point x="591.7" y="-18.6"/>
      <point x="732.0" y="53.9"/>
      <point x="804.6" y="161.6" type="curve"/>
      <point x="752.5" y="195.8" type="line"/>
      <point x="798.1" y="0.1" type="line"/>
      <point x="986.7" y="0.1" type="line"/>
      <point x="986.7" y="693.9" type="line" smooth="yes"/>
      <point x="986.7" y="981.1"/>
      <point x="807.1" y="1090.3"/>
      <point x="561.8" y="1090.3" type="curve" smooth="yes"/>
      <point x="436.3" y="1090.3"/>
      <point x="287.8" y="1061.2"/>
      <point x="149.6" y="1003.3" type="curve"/>
      <point x="202.1" y="832.6" type="line"/>
      <point x="310.6" y="872.9"/>
      <point x="432.6" y="902.9"/>
      <point x="529.8" y="902.9" type="curve" smooth="yes"/>
      <point x="653.4" y="902.9"/>
      <point x="733.6" y="852.7"/>
      <point x="733.6" y="723.0" type="curve" smooth="yes"/>
      <point x="733.6" y="627.9" type="line"/>
      <point x="774.6" y="667.4" type="line"/>
      <point x="543.1" y="650.3" type="line" smooth="yes"/>
      <point x="267.3" y="630.5"/>
      <point x="109.4" y="534.0"/>
      <point x="109.4" y="300.1" type="curve" smooth="yes"/>
      <point x="109.4" y="86.1"/>
      <point x="258.0" y="-18.6"/>
    </contour>
    <contour>
      <point x="495.8" y="163.4" type="curve" smooth="yes"/>
      <point x="407.0" y="163.4"/>
      <point x="344.6" y="212.4"/>
      <point x="344.6" y="301.1" type="curve" smooth="yes"/>
      <point x="344.6" y="428.4"/>
      <point x="428.8" y="474.7"/>
      <point x="626.3" y="490.0" type="curve" smooth="yes"/>
      <point x="761.1" y="500.8" type="line"/>
      <point x="732.7" y="537.5" type="line"/>
      <point x="732.7" y="236.9" type="line"/>
      <point x="773.7" y="323.2" type="line"/>
      <point x="746.6" y="266.3"/>
      <point x="614.8" y="163.4"/>
    </contour>
  </outline>
</glyph>
<glyph name="b" format="1">
  <advance width="1241.7"/>
  <unicode hex="0062"/>
  <outline>
    <contour>
      <point x="702.6" y="-19.0" type="curve" smooth="yes"/>
      <point x="972.7" y="-19.0"/>
      <point x="1139.8" y="210.1"/>
      <point x="1139.8" y="542.5" type="curve" smooth="yes"/>
      <point x="1139.8" y="859.6"/>
      <point x="983.0" y="1091.1"/>
      <point x="707.1" y="1091.1" type="curve" smooth="yes"/>
      <point x="553.0" y="1091.1"/>
      <point x="436.2" y="1003.0"/>
      <point x="371.3" y="909.7" type="curve"/>
      <point x="403.3" y="892.6" type="line"/>
      <point x="408.7" y="1125.1" type="line"/>
      <point x="408.7" y="1441.3" type="line"/>
      <point x="154.1" y="1425.9" type="line"/>
      <point x="154.1" y="0.0" type="line"/>
      <point x="372.3" y="0.0" type="line"/>
      <point x="401.1" y="193.4" type="line"/>
      <point x="356.7" y="176.0" type="line"/>
      <point x="416.5" y="72.3"/>
      <point x="551.8" y="-19.0"/>
    </contour>
    <contour>
      <point x="643.7" y="176.5" type="curve" smooth="yes"/>
      <point x="500.5" y="176.5"/>
      <point x="403.9" y="285.7"/>
      <point x="403.9" y="551.8" type="curve"/>
      <point x="405.6" y="794.5"/>
      <point x="504.4" y="896.5"/>
      <point x="649.1" y="896.5" type="curve" smooth="yes"/>
      <point x="792.1" y="896.5"/>
      <point x="885.5" y="787.6"/>
      <point x="885.5" y="540.0" type="curve" smooth="yes"/>
      <point x="885.5" y="291.2"/>
      <point x="786.3" y="176.5"/>
    </contour>
  </outline>
</glyph>
<glyph name="c" format="1">
  <advance width="1013.8"/>
  <unicode hex="0063"/>
  <outline>
    <contour>
      <point x="618.4" y="-19.0" type="curve" smooth="yes"/>
      <point x="804.9" y="-19.0"/>
      <point x="888.9" y="40.3"/>
      <point x="923.5" y="65.2" type="curve"/>
      <point x="889.0" y="245.8" type="line"/>
      <point x="817.0" y="205.4"/>
      <point x="737.7" y="175.6"/>
      <point x="644.4" y="180.1" type="curve" smooth="yes"/>
      <point x="480.5" y="186.4"/>
      <point x="356.2" y="304.7"/>
      <point x="356.2" y="536.8" type="curve" smooth="yes"/>
      <point x="356.2" y="773.9"/>
      <point x="491.9" y="892.0"/>
      <point x="651.1" y="892.0" type="curve" smooth="yes"/>
      <point x="767.1" y="892.0"/>
      <point x="843.0" y="847.7"/>
      <point x="871.8" y="830.6" type="curve"/>
      <point x="932.5" y="1007.1" type="line"/>
      <point x="855.1" y="1060.2"/>
      <point x="754.4" y="1091.1"/>
      <point x="621.1" y="1091.1" type="curve" smooth="yes"/>
      <point x="330.5" y="1091.1"/>
      <point x="102.1" y="893.0"/>
      <point x="102.1" y="539.5" type="curve" smooth="yes"/>
      <point x="102.1" y="182.9"/>
      <point x="309.3" y="-19.0"/>
    </contour>
  </outline>
</glyph>
<glyph name="d" format="1">
  <advance width="1239.2"/>
  <unicode hex="0064"/>
  <outline>
    <contour>
      <point x="546.1" y="-18.1" type="curve" smooth="yes"/>
      <point x="757.7" y="-18.1"/>
      <point x="840.9" y="97.1"/>
      <point x="885.7" y="184.2" type="curve"/>
      <point x="835.3" y="184.7" type="line"/>
      <point x="868.4" y="0.0" type="line"/>
      <point x="1086.1" y="0.0" type="line"/>
      <point x="1086.1" y="1441.3" type="line"/>
      <point x="831.8" y="1425.9" type="line"/>
      <point x="831.8" y="1108.7" type="line"/>
      <point x="842.9" y="896.9" type="line"/>
      <point x="882.0" y="917.2" type="line"/>
      <point x="821.5" y="1022.6"/>
      <point x="715.2" y="1091.1"/>
      <point x="545.7" y="1091.1" type="curve" smooth="yes"/>
      <point x="269.5" y="1091.1"/>
      <point x="102.1" y="865.6"/>
      <point x="102.1" y="542.1" type="curve" smooth="yes"/>
      <point x="102.1" y="208.8"/>
      <point x="268.8" y="-18.1"/>
    </contour>
    <contour>
      <point x="598.7" y="176.5" type="curve" smooth="yes"/>
      <point x="445.2" y="176.5"/>
      <point x="356.4" y="288.0"/>
      <point x="356.4" y="537.4" type="curve" smooth="yes"/>
      <point x="356.4" y="792.5"/>
      <point x="468.0" y="894.7"/>
      <point x="610.3" y="894.7" type="curve" smooth="yes"/>
      <point x="757.7" y="894.7"/>
      <point x="842.9" y="797.9"/>
      <point x="842.9" y="521.4" type="curve"/>
      <point x="841.1" y="278.7"/>
      <point x="753.8" y="176.5"/>
    </contour>
  </outline>
</glyph>
<glyph name="e" format="1">
  <advance width="1191.6"/>
  <unicode hex="0065"/>
  <outline>
    <contour>
      <point x="660.9" y="-19.9" type="curve" smooth="yes"/>
      <point x="823.9" y="-19.9"/>
      <point x="956.3" y="9.9"/>
      <point x="1057.3" y="73.1" type="curve"/>
      <point x="1020.4" y="250.2" type="line"/>
      <point x="968.4" y="226.1"/>
      <point x="849.3" y="171.3"/>
      <point x="685.0" y="171.3" type="curve" smooth="yes"/>
      <point x="499.5" y="171.3"/>
      <point x="357.6" y="278.2"/>
      <point x="358.5" y="519.1" type="curve"/>
      <point x="308.5" y="473.8" type="line"/>
      <point x="1078.0" y="473.8" type="line"/>
      <point x="1078.0" y="473.8"/>
      <point x="1085.8" y="567.8"/>
      <point x="1085.8" y="585.3" type="curve" smooth="yes"/>
      <point x="1085.8" y="881.3"/>
      <point x="913.7" y="1090.2"/>
      <point x="624.3" y="1090.2" type="curve" smooth="yes"/>
      <point x="325.6" y="1089.3"/>
      <point x="102.1" y="870.8"/>
      <point x="102.1" y="535.2" type="curve" smooth="yes"/>
      <point x="102.1" y="191.1"/>
      <point x="334.2" y="-19.9"/>
    </contour>
    <contour>
      <point x="364.2" y="593.7" type="line"/>
      <point x="365.4" y="806.1"/>
      <point x="507.5" y="904.6"/>
      <point x="626.7" y="904.6" type="curve" smooth="yes"/>
      <point x="758.2" y="904.6"/>
      <point x="845.2" y="804.1"/>
      <point x="848.8" y="596.3" type="curve"/>
      <point x="889.9" y="638.4" type="line"/>
      <point x="310.3" y="638.4" type="line"/>
    </contour>
  </outline>
</glyph>
<glyph name="f" format="1">
  <advance width="792.2"/>
  <unicode hex="0066"/>
  <outline>
    <contour>
      <point x="235.6" y="0.0" type="line"/>
      <point x="489.9" y="0.0" type="line"/>
      <point x="489.9" y="950.0" type="line"/>
      <point x="447.8" y="891.2" type="line"/>
      <point x="739.2" y="891.2" type="line"/>
      <point x="739.2" y="1065.8" type="line"/>
      <point x="438.1" y="1065.8" type="line"/>
      <point x="489.9" y="1014.7" type="line"/>
      <point x="489.9" y="1122.0" type="line" smooth="yes"/>
      <point x="489.9" y="1264.6"/>
      <point x="542.5" y="1285.2"/>
      <point x="630.6" y="1285.2" type="curve" smooth="yes"/>
      <point x="673.1" y="1285.2"/>
      <point x="725.7" y="1277.9"/>
      <point x="754.5" y="1273.4" type="curve"/>
      <point x="776.8" y="1456.2" type="line"/>
      <point x="713.8" y="1468.8"/>
      <point x="648.8" y="1475.7"/>
      <point x="585.1" y="1475.7" type="curve" smooth="yes"/>
      <point x="382.9" y="1475.7"/>
      <point x="235.6" y="1399.7"/>
      <point x="235.6" y="1101.7" type="curve" smooth="yes"/>
      <point x="235.6" y="1012.9" type="line"/>
      <point x="282.1" y="1069.7" type="line"/>
      <point x="82.0" y="1047.0" type="line"/>
      <point x="77.0" y="891.2" type="line"/>
      <point x="276.6" y="891.2" type="line"/>
      <point x="235.6" y="953.8" type="line"/>
    </contour>
  </outline>
</glyph>
<glyph name="g" format="1">
  <advance width="1241.3"/>
  <unicode hex="0067"/>
  <outline>
    <contour>
      <point x="600.8" y="212.7" type="curve" smooth="yes"/>
      <point x="411.9" y="212.7"/>
      <point x="343.4" y="349.0"/>
      <point x="343.4" y="549.2" type="curve" smooth="yes"/>
      <point x="343.4" y="749.2"/>
      <point x="425.3" y="894.7"/>
      <point x="609.2" y="894.7" type="curve" smooth="yes"/>
      <point x="784.9" y="894.7"/>
      <point x="852.0" y="773.0"/>
      <point x="852.0" y="565.3" type="curve" smooth="yes"/>
      <point x="852.0" y="526.8" type="line"/>
      <point x="850.2" y="333.7"/>
      <point x="787.4" y="212.7"/>
    </contour>
    <contour>
      <point x="521.7" y="-482.7" type="curve" smooth="yes"/>
      <point x="911.6" y="-482.7"/>
      <point x="1095.5" y="-250.2"/>
      <point x="1095.5" y="134.6" type="curve" smooth="yes"/>
      <point x="1095.5" y="1065.8" type="line"/>
      <point x="869.9" y="1065.8" type="line"/>
      <point x="851.4" y="879.0" type="line"/>
      <point x="888.0" y="888.0" type="line"/>
      <point x="829.0" y="1036.7"/>
      <point x="711.0" y="1091.1"/>
      <point x="565.0" y="1091.1" type="curve" smooth="yes"/>
      <point x="305.5" y="1091.1"/>
      <point x="89.1" y="885.6"/>
      <point x="89.1" y="542.0" type="curve" smooth="yes"/>
      <point x="89.1" y="230.8"/>
      <point x="275.1" y="18.9"/>
      <point x="555.4" y="18.9" type="curve" smooth="yes"/>
      <point x="709.8" y="18.9"/>
      <point x="847.5" y="71.0"/>
      <point x="897.9" y="273.6" type="curve"/>
      <point x="849.3" y="282.4" type="line"/>
      <point x="849.3" y="37.4" type="line" smooth="yes"/>
      <point x="849.3" y="-150.7"/>
      <point x="751.2" y="-282.5"/>
      <point x="518.6" y="-282.5" type="curve" smooth="yes"/>
      <point x="506.1" y="-282.5"/>
      <point x="393.3" y="-281.3"/>
      <point x="242.1" y="-276.7" type="curve"/>
      <point x="242.1" y="-476.9" type="line"/>
      <point x="454.5" y="-481.4"/>
      <point x="504.4" y="-482.7"/>
    </contour>
  </outline>
</glyph>
<glyph name="h" format="1">
  <advance width="1227.8"/>
  <unicode hex="0068"/>
  <outline>
    <contour>
      <point x="154.1" y="0.0" type="line"/>
      <point x="405.7" y="0.0" type="line"/>
      <point x="405.7" y="524.2" type="line" smooth="yes"/>
      <point x="405.7" y="737.3"/>
      <point x="456.0" y="894.7"/>
      <point x="662.0" y="894.7" type="curve" smooth="yes"/>
      <point x="788.9" y="894.7"/>
      <point x="830.6" y="818.5"/>
      <point x="830.6" y="648.0" type="curve" smooth="yes"/>
      <point x="830.6" y="0.0" type="line"/>
      <point x="1084.8" y="0.0" type="line"/>
      <point x="1084.8" y="669.5" type="line" smooth="yes"/>
      <point x="1084.8" y="957.7"/>
      <point x="938.4" y="1090.2"/>
      <point x="712.4" y="1090.2" type="curve" smooth="yes"/>
      <point x="556.9" y="1090.2"/>
      <point x="419.6" y="1010.1"/>
      <point x="348.4" y="890.6" type="curve"/>
      <point x="398.7" y="870.6" type="line"/>
      <point x="408.4" y="1150.5" type="line"/>
      <point x="408.4" y="1440.4" type="line"/>
      <point x="154.1" y="1425.0" type="line"/>
    </contour>
  </outline>
</glyph>
<glyph name="i" format="1">
  <advance width="566.6"/>
  <unicode hex="0069"/>
  <outline>
    <contour>
      <point x="160.5" y="0.0" type="line"/>
      <point x="414.8" y="0.0" type="line"/>
      <point x="414.8" y="1065.8" type="line"/>
      <point x="160.5" y="1065.8" type="line"/>
    </contour>
    <contour>
      <point x="160.5" y="1222.9" type="line"/>
      <point x="414.8" y="1222.9" type="line"/>
      <point x="414.8" y="1422.9" type="line"/>
      <point x="160.5" y="1422.9" type="line"/>
    </contour>
  </outline>
</glyph>
<glyph name="j" format="1">
  <advance width="613.6"/>
  <unicode hex="006A"/>
  <outline>
    <contour>
      <point x="17.5" y="-390.5" type="line"/>
      <point x="79.8" y="-390.5" type="line" smooth="yes"/>
      <point x="397.6" y="-390.5"/>
      <point x="465.1" y="-251.3"/>
      <point x="465.1" y="36.8" type="curve" smooth="yes"/>
      <point x="465.1" y="1066.7" type="line"/>
      <point x="213.3" y="1066.7" type="line"/>
      <point x="213.3" y="8.5" type="line" smooth="yes"/>
      <point x="213.3" y="-148.2"/>
      <point x="200.6" y="-198.1"/>
      <point x="52.1" y="-198.1" type="curve" smooth="yes"/>
      <point x="-10.4" y="-198.1" type="line"/>
    </contour>
    <contour>
      <point x="213.3" y="1222.9" type="line"/>
      <point x="465.1" y="1222.9" type="line"/>
      <point x="465.1" y="1422.9" type="line"/>
      <point x="213.3" y="1422.9" type="line"/>
    </contour>
  </outline>
</glyph>
<glyph name="k" format="1">
  <advance width="1166.8"/>
  <unicode hex="006B"/>
  <outline>
    <contour>
      <point x="154.1" y="0.0" type="line"/>
      <point x="408.4" y="0.0" type="line"/>
      <point x="408.4" y="439.9" type="line"/>
      <point x="348.2" y="313.2" type="line"/>
      <point x="546.4" y="500.4" type="line"/>
      <point x="471.0" y="500.4" type="line"/>
      <point x="848.4" y="0.0" type="line"/>
      <point x="1147.2" y="0.0" type="line"/>
      <point x="660.9" y="640.8" type="line"/>
      <point x="660.9" y="527.2" type="line"/>
      <point x="1124.0" y="1065.8" type="line"/>
      <point x="804.7" y="1065.8" type="line"/>
      <point x="357.6" y="546.0" type="line"/>
      <point x="401.4" y="546.0" type="line"/>
      <point x="408.4" y="811.9" type="line"/>
      <point x="408.4" y="1441.3" type="line"/>
      <point x="154.1" y="1425.9" type="line"/>
    </contour>
  </outline>
</glyph>
<glyph name="l" format="1">
  <advance width="746.4"/>
  <unicode hex="006C"/>
  <outline>
    <contour>
      <point x="545.5" y="-13.7" type="curve" smooth="yes"/>
      <point x="639.6" y="-13.7"/>
      <point x="724.3" y="15.9"/>
      <point x="726.4" y="16.2" type="curve"/>
      <point x="726.4" y="188.3" type="line"/>
      <point x="725.4" y="188.2"/>
      <point x="658.7" y="176.8"/>
      <point x="590.0" y="176.8" type="curve" smooth="yes"/>
      <point x="490.3" y="176.8"/>
      <point x="409.3" y="193.7"/>
      <point x="409.3" y="360.8" type="curve" smooth="yes"/>
      <point x="409.3" y="1441.3" type="line"/>
      <point x="155.0" y="1425.9" type="line"/>
      <point x="155.0" y="387.7" type="line" smooth="yes"/>
      <point x="155.0" y="102.9"/>
      <point x="270.5" y="-13.7"/>
    </contour>
  </outline>
</glyph>
<glyph name="m" format="1">
  <advance width="1809.0"/>
  <unicode hex="006D"/>
  <outline>
    <contour>
      <point x="154.1" y="0.0" type="line"/>
      <point x="408.4" y="0.0" type="line"/>
      <point x="408.4" y="537.0" type="line" smooth="yes"/>
      <point x="412.1" y="741.9"/>
      <point x="446.4" y="895.6"/>
      <point x="636.1" y="895.6" type="curve" smooth="yes"/>
      <point x="763.3" y="895.6"/>
      <point x="786.3" y="799.3"/>
      <point x="786.3" y="616.3" type="curve" smooth="yes"/>
      <point x="786.3" y="0.0" type="line"/>
      <point x="1040.6" y="0.0" type="line"/>
      <point x="1040.6" y="614.2" type="line"/>
      <point x="1046.0" y="668.9"/>
      <point x="1053.9" y="715.1"/>
      <point x="1067.0" y="752.6" type="curve" smooth="yes"/>
      <point x="1096.5" y="842.1"/>
      <point x="1156.2" y="895.6"/>
      <point x="1258.5" y="895.6" type="curve" smooth="yes"/>
      <point x="1389.4" y="895.6"/>
      <point x="1412.6" y="794.2"/>
      <point x="1412.6" y="607.2" type="curve" smooth="yes"/>
      <point x="1412.6" y="0.0" type="line"/>
      <point x="1666.9" y="0.0" type="line"/>
      <point x="1666.9" y="678.6" type="line" smooth="yes"/>
      <point x="1666.9" y="941.9"/>
      <point x="1558.6" y="1091.1"/>
      <point x="1316.3" y="1091.1" type="curve" smooth="yes"/>
      <point x="1173.6" y="1091.1"/>
      <point x="1048.2" y="1021.9"/>
      <point x="965.4" y="878.6" type="curve"/>
      <point x="1021.8" y="878.6" type="line"/>
      <point x="960.1" y="1018.6"/>
      <point x="874.7" y="1091.1"/>
      <point x="706.8" y="1091.1" type="curve" smooth="yes"/>
      <point x="520.9" y="1091.1"/>
      <point x="406.2" y="995.1"/>
      <point x="343.8" y="886.1" type="curve"/>
      <point x="398.4" y="878.7" type="line"/>
      <point x="361.0" y="1065.8" type="line"/>
      <point x="154.1" y="1065.8" type="line"/>
    </contour>
  </outline>
</glyph>
<glyph name="n" format="1">
  <advance width="1258.7"/>
  <unicode hex="006E"/>
  <outline>
    <contour>
      <point x="154.1" y="0.0" type="line"/>
      <point x="408.4" y="0.0" type="line"/>
      <point x="408.4" y="530.9" type="line" smooth="yes"/>
      <point x="408.4" y="750.3"/>
      <point x="476.7" y="895.6"/>
      <point x="689.0" y="895.6" type="curve" smooth="yes"/>
      <point x="826.4" y="895.6"/>
      <point x="860.6" y="805.3"/>
      <point x="861.4" y="646.1" type="curve"/>
      <point x="861.4" y="0.0" type="line"/>
      <point x="1115.7" y="0.0" type="line"/>
      <point x="1115.7" y="668.4" type="line" smooth="yes"/>
      <point x="1115.7" y="935.9"/>
      <point x="997.9" y="1091.1"/>
      <point x="751.4" y="1091.1" type="curve" smooth="yes"/>
      <point x="563.1" y="1091.1"/>
      <point x="434.1" y="1007.7"/>
      <point x="345.5" y="878.8" type="curve"/>
      <point x="398.6" y="878.8" type="line"/>
      <point x="362.4" y="1065.8" type="line"/>
      <point x="154.1" y="1065.8" type="line"/>
    </contour>
  </outline>
</glyph>
<glyph name="o" format="1">
  <advance width="1246.6"/>
  <unicode hex="006F"/>
  <outline>
    <contour>
      <point x="623.3" y="175.6" type="curve" smooth="yes"/>
      <point x="455.5" y="175.6"/>
      <point x="356.2" y="303.1"/>
      <point x="356.2" y="536.4" type="curve" smooth="yes"/>
      <point x="356.2" y="768.0"/>
      <point x="458.2" y="895.6"/>
      <point x="623.3" y="895.6" type="curve" smooth="yes"/>
      <point x="791.8" y="895.6"/>
      <point x="890.4" y="767.9"/>
      <point x="890.4" y="536.3" type="curve" smooth="yes"/>
      <point x="890.4" y="301.3"/>
      <point x="791.2" y="175.6"/>
    </contour>
    <contour>
      <point x="623.3" y="-19.0" type="curve" smooth="yes"/>
      <point x="942.7" y="-19.0"/>
      <point x="1144.5" y="197.2"/>
      <point x="1144.5" y="536.6" type="curve" smooth="yes"/>
      <point x="1144.5" y="873.8"/>
      <point x="935.5" y="1091.1"/>
      <point x="623.3" y="1091.1" type="curve" smooth="yes"/>
      <point x="302.1" y="1091.1"/>
      <point x="102.1" y="881.4"/>
      <point x="102.1" y="536.6" type="curve" smooth="yes"/>
      <point x="102.1" y="201.4"/>
      <point x="313.8" y="-19.0"/>
    </contour>
  </outline>
</glyph>
<glyph name="p" format="1">
  <advance width="1241.9"/>
  <unicode hex="0070"/>
  <outline>
    <contour>
      <point x="155.9" y="-433.2" type="line"/>
      <point x="409.3" y="-420.7" type="line"/>
      <point x="409.3" y="-23.1" type="line"/>
      <point x="402.6" y="207.5" type="line"/>
      <point x="353.1" y="181.8" type="line"/>
      <point x="393.6" y="105.8"/>
      <point x="511.1" y="-19.0"/>
      <point x="699.8" y="-19.0" type="curve" smooth="yes"/>
      <point x="974.2" y="-19.0"/>
      <point x="1139.8" y="216.3"/>
      <point x="1139.8" y="537.1" type="curve" smooth="yes"/>
      <point x="1139.8" y="847.9"/>
      <point x="983.4" y="1091.1"/>
      <point x="718.7" y="1091.1" type="curve" smooth="yes"/>
      <point x="578.1" y="1091.1"/>
      <point x="432.5" y="1023.6"/>
      <point x="346.8" y="874.4" type="curve"/>
      <point x="408.5" y="873.9" type="line"/>
      <point x="374.4" y="1065.8" type="line"/>
      <point x="155.9" y="1065.8" type="line"/>
    </contour>
    <contour>
      <point x="652.4" y="176.5" type="curve" smooth="yes"/>
      <point x="494.2" y="176.5"/>
      <point x="407.1" y="286.9"/>
      <point x="407.1" y="554.4" type="curve"/>
      <point x="408.9" y="791.5"/>
      <point x="495.0" y="895.6"/>
      <point x="650.0" y="895.6" type="curve" smooth="yes"/>
      <point x="794.5" y="895.6"/>
      <point x="885.5" y="783.1"/>
      <point x="885.5" y="539.1" type="curve" smooth="yes"/>
      <point x="885.5" y="301.1"/>
      <point x="795.6" y="176.5"/>
    </contour>
  </outline>
</glyph>
<glyph name="q" format="1">
  <advance width="1242.8"/>
  <unicode hex="0071"/>
  <outline>
    <contour>
      <point x="836.5" y="-433.2" type="line"/>
      <point x="1090.6" y="-419.1" type="line"/>
      <point x="1090.6" y="1065.8" type="line"/>
      <point x="866.8" y="1065.8" type="line"/>
      <point x="841.2" y="874.4" type="line"/>
      <point x="890.6" y="890.9" type="line"/>
      <point x="835.7" y="985.5"/>
      <point x="742.1" y="1091.1"/>
      <point x="549.5" y="1091.1" type="curve" smooth="yes"/>
      <point x="261.7" y="1091.1"/>
      <point x="102.1" y="856.7"/>
      <point x="102.1" y="536.6" type="curve" smooth="yes"/>
      <point x="102.1" y="211.4"/>
      <point x="280.7" y="-19.0"/>
      <point x="553.4" y="-19.0" type="curve" smooth="yes"/>
      <point x="718.2" y="-19.0"/>
      <point x="826.0" y="64.4"/>
      <point x="900.6" y="198.2" type="curve"/>
      <point x="843.5" y="218.9" type="line"/>
      <point x="836.5" y="4.4" type="line"/>
    </contour>
    <contour>
      <point x="598.2" y="174.7" type="curve" smooth="yes"/>
      <point x="447.1" y="174.7"/>
      <point x="356.2" y="294.7"/>
      <point x="356.2" y="536.1" type="curve" smooth="yes"/>
      <point x="356.2" y="781.6"/>
      <point x="449.8" y="894.7"/>
      <point x="595.7" y="894.7" type="curve" smooth="yes"/>
      <point x="759.5" y="894.7"/>
      <point x="845.5" y="785.4"/>
      <point x="845.5" y="524.7" type="curve"/>
      <point x="843.1" y="275.5"/>
      <point x="758.7" y="174.7"/>
    </contour>
  </outline>
</glyph>
<glyph name="r" format="1">
  <advance width="846.4"/>
  <unicode hex="0072"/>
  <outline>
    <contour>
      <point x="155.0" y="0.0" type="line"/>
      <point x="409.3" y="0.0" type="line"/>
      <point x="409.3" y="581.9" type="line" smooth="yes"/>
      <point x="409.3" y="748.8"/>
      <point x="521.0" y="859.7"/>
      <point x="702.6" y="859.7" type="curve" smooth="yes"/>
      <point x="728.9" y="859.7"/>
      <point x="755.0" y="857.6"/>
      <point x="788.6" y="851.7" type="curve"/>
      <point x="793.0" y="1065.7" type="line"/>
      <point x="765.7" y="1071.4"/>
      <point x="742.9" y="1071.6"/>
      <point x="718.1" y="1071.6" type="curve" smooth="yes"/>
      <point x="592.7" y="1071.6"/>
      <point x="447.7" y="999.9"/>
      <point x="350.3" y="835.5" type="curve"/>
      <point x="408.0" y="825.2" type="line"/>
      <point x="368.5" y="1065.8" type="line"/>
      <point x="155.0" y="1065.8" type="line"/>
    </contour>
  </outline>
</glyph>
<glyph name="s" format="1">
  <advance width="1000.5"/>
  <unicode hex="0073"/>
  <outline>
    <contour>
      <point x="511.6" y="-18.1" type="curve" smooth="yes"/>
      <point x="759.0" y="-18.1"/>
      <point x="902.2" y="101.2"/>
      <point x="902.2" y="315.0" type="curve" smooth="yes"/>
      <point x="902.2" y="481.7"/>
      <point x="818.5" y="578.6"/>
      <point x="625.2" y="630.4" type="curve" smooth="yes"/>
      <point x="545.7" y="651.8" type="line" smooth="yes"/>
      <point x="405.5" y="689.6"/>
      <point x="372.2" y="726.4"/>
      <point x="372.2" y="792.9" type="curve" smooth="yes"/>
      <point x="372.2" y="858.4"/>
      <point x="426.4" y="905.5"/>
      <point x="547.2" y="905.5" type="curve" smooth="yes"/>
      <point x="660.1" y="905.5"/>
      <point x="750.3" y="866.3"/>
      <point x="807.9" y="840.1" type="curve"/>
      <point x="866.0" y="1010.3" type="line"/>
      <point x="760.1" y="1063.5"/>
      <point x="648.5" y="1091.1"/>
      <point x="520.7" y="1091.1" type="curve" smooth="yes"/>
      <point x="303.9" y="1091.1"/>
      <point x="147.3" y="974.2"/>
      <point x="147.3" y="777.0" type="curve"/>
      <point x="148.2" y="612.8"/>
      <point x="234.1" y="518.6"/>
      <point x="418.9" y="469.3" type="curve" smooth="yes"/>
      <point x="522.5" y="441.7" type="line" smooth="yes"/>
      <point x="647.2" y="408.5"/>
      <point x="682.1" y="376.6"/>
      <point x="676.7" y="286.3" type="curve" smooth="yes"/>
      <point x="672.2" y="206.5"/>
      <point x="615.2" y="164.8"/>
      <point x="506.9" y="164.8" type="curve" smooth="yes"/>
      <point x="397.4" y="164.8"/>
      <point x="243.8" y="228.3"/>
      <point x="200.5" y="254.5" type="curve"/>
      <point x="139.7" y="80.4" type="line"/>
      <point x="162.8" y="63.1"/>
      <point x="312.8" y="-18.1"/>
    </contour>
  </outline>
</glyph>
<glyph name="t" format="1">
  <advance width="891.5"/>
  <unicode hex="0074"/>
  <outline>
    <contour>
      <point x="603.7" y="-13.7" type="curve" smooth="yes"/>
      <point x="733.8" y="-13.7"/>
      <point x="817.5" y="17.6"/>
      <point x="817.5" y="17.6" type="curve"/>
      <point x="817.5" y="189.2" type="line"/>
      <point x="817.5" y="189.2"/>
      <point x="710.0" y="175.6"/>
      <point x="656.1" y="175.6" type="curve" smooth="yes"/>
      <point x="552.0" y="175.6"/>
      <point x="485.7" y="211.2"/>
      <point x="485.7" y="383.0" type="curve" smooth="yes"/>
      <point x="485.7" y="952.6" type="line"/>
      <point x="444.7" y="903.8" type="line"/>
      <point x="778.2" y="903.8" type="line"/>
      <point x="778.2" y="1065.8" type="line"/>
      <point x="443.8" y="1065.8" type="line"/>
      <point x="485.7" y="1011.4" type="line"/>
      <point x="485.7" y="1330.6" type="line"/>
      <point x="305.8" y="1330.0" type="line"/>
      <point x="234.2" y="1018.0" type="line"/>
      <point x="307.3" y="1068.8" type="line"/>
      <point x="78.0" y="1053.1" type="line"/>
      <point x="64.5" y="904.7" type="line"/>
      <point x="272.4" y="904.7" type="line"/>
      <point x="231.4" y="953.6" type="line"/>
      <point x="231.4" y="394.2" type="line" smooth="yes"/>
      <point x="231.4" y="122.4"/>
      <point x="335.7" y="-13.7"/>
    </contour>
  </outline>
</glyph>
<glyph name="u" format="1">
  <advance width="1257.7"/>
  <unicode hex="0075"/>
  <outline>
    <contour>
      <point x="1104.7" y="1065.8" type="line"/>
      <point x="851.3" y="1065.8" type="line"/>
      <point x="851.3" y="510.6" type="line" smooth="yes"/>
      <point x="851.3" y="291.2"/>
      <point x="784.7" y="170.2"/>
      <point x="601.2" y="170.2" type="curve" smooth="yes"/>
      <point x="452.1" y="170.2"/>
      <point x="398.2" y="260.5"/>
      <point x="398.3" y="419.7" type="curve" smooth="yes"/>
      <point x="398.3" y="1065.8" type="line"/>
      <point x="144.0" y="1065.8" type="line"/>
      <point x="144.0" y="397.4" type="line" smooth="yes"/>
      <point x="144.0" y="120.0"/>
      <point x="271.7" y="-25.3"/>
      <point x="518.2" y="-25.3" type="curve" smooth="yes"/>
      <point x="706.5" y="-25.3"/>
      <point x="836.5" y="27.9"/>
      <point x="917.1" y="190.2" type="curve"/>
      <point x="863.9" y="190.2" type="line"/>
      <point x="900.2" y="0.0" type="line"/>
      <point x="1104.7" y="0.0" type="line"/>
    </contour>
  </outline>
</glyph>
<glyph name="v" format="1">
  <advance width="1135.8"/>
  <unicode hex="0076"/>
  <outline>
    <contour>
      <point x="455.8" y="0.0" type="line"/>
      <point x="700.9" y="0.0" type="line"/>
      <point x="1095.8" y="1065.8" type="line"/>
      <point x="830.8" y="1065.8" type="line"/>
      <point x="641.7" y="489.3" type="line"/>
      <point x="560.1" y="200.7" type="line"/>
      <point x="605.5" y="200.7" type="line"/>
      <point x="510.5" y="489.8" type="line"/>
      <point x="308.6" y="1065.8" type="line"/>
      <point x="40.0" y="1065.8" type="line"/>
    </contour>
  </outline>
</glyph>
<glyph name="w" format="1">
  <advance width="1643.7"/>
  <unicode hex="0077"/>
  <outline>
    <contour>
      <point x="346.8" y="0.0" type="line"/>
      <point x="588.9" y="0.0" type="line"/>
      <point x="845.1" y="882.7" type="line"/>
      <point x="800.1" y="882.7" type="line"/>
      <point x="1046.0" y="0.0" type="line"/>
      <point x="1288.1" y="0.0" type="line"/>
      <point x="1601.5" y="1065.8" type="line"/>
      <point x="1358.6" y="1065.8" type="line"/>
      <point x="1142.8" y="228.8" type="line"/>
      <point x="1182.3" y="228.8" type="line"/>
      <point x="952.2" y="1065.8" type="line"/>
      <point x="698.9" y="1065.8" type="line"/>
      <point x="462.4" y="228.8" type="line"/>
      <point x="497.3" y="228.8" type="line"/>
      <point x="289.1" y="1065.8" type="line"/>
      <point x="42.2" y="1065.8" type="line"/>
    </contour>
  </outline>
</glyph>
<glyph name="x" format="1">
  <advance width="1142.0"/>
  <unicode hex="0078"/>
  <outline>
    <contour>
      <point x="39.5" y="0.0" type="line"/>
      <point x="323.0" y="0.0" type="line"/>
      <point x="589.4" y="399.0" type="line"/>
      <point x="690.9" y="491.9" type="line"/>
      <point x="1085.4" y="1065.8" type="line"/>
      <point x="801.9" y="1065.8" type="line"/>
      <point x="547.1" y="686.8" type="line"/>
      <point x="441.6" y="588.7" type="line"/>
    </contour>
    <contour>
      <point x="810.1" y="0.0" type="line"/>
      <point x="1098.8" y="0.0" type="line"/>
      <point x="342.3" y="1065.8" type="line"/>
      <point x="56.1" y="1065.8" type="line"/>
    </contour>
  </outline>
</glyph>
<glyph name="y" format="1">
  <advance width="1121.8"/>
  <unicode hex="0079"/>
  <outline>
    <contour>
      <point x="547.7" y="-395.5" type="line"/>
      <point x="1085.9" y="1065.8" type="line"/>
      <point x="821.9" y="1065.8" type="line"/>
      <point x="565.1" y="242.2" type="line"/>
      <point x="616.3" y="242.2" type="line"/>
      <point x="321.9" y="1065.8" type="line"/>
      <point x="59.4" y="1065.8" type="line"/>
      <point x="497.0" y="-46.4" type="line"/>
      <point x="497.0" y="103.4" type="line"/>
      <point x="315.5" y="-362.6" type="line"/>
    </contour>
  </outline>
</glyph>
<glyph name="z" format="1">
  <advance width="1004.3"/>
  <unicode hex="007A"/>
  <outline>
    <contour>
      <point x="112.8" y="0.0" type="line"/>
      <point x="909.2" y="0.0" type="line"/>
      <point x="909.2" y="190.1" type="line"/>
      <point x="348.8" y="190.1" type="line"/>
      <point x="368.3" y="117.2" type="line"/>
      <point x="893.3" y="891.0" type="line"/>
      <point x="893.3" y="1065.8" type="line"/>
      <point x="135.6" y="1065.8" type="line"/>
      <point x="135.6" y="883.8" type="line"/>
      <point x="682.1" y="883.8" type="line"/>
      <point x="655.6" y="948.2" type="line"/>
      <point x="112.8" y="157.6" type="line"/>
    </contour>
  </outline>
</glyph>
<glyph name="braceleft" format="1">
  <advance width="702.3"/>
  <unicode hex="007B"/>
  <outline>
    <contour>
      <point x="658.3" y="-259.4" type="line"/>
      <point x="393.4" y="-259.4"/>
      <point x="260.6" y="-189.4"/>
      <point x="260.6" y="36.5" type="curve" smooth="yes"/>
      <point x="260.6" y="285.1" type="line" smooth="yes"/>
      <point x="260.6" y="432.1"/>
      <point x="225.1" y="489.5"/>
      <point x="58.4" y="489.8" type="curve"/>
      <point x="58.4" y="699.8" type="line"/>
      <point x="230.8" y="700.7"/>
      <point x="260.6" y="752.4"/>
      <point x="260.6" y="900.8" type="curve" smooth="yes"/>
      <point x="260.6" y="1171.1" type="line" smooth="yes"/>
      <point x="260.6" y="1391.0"/>
      <point x="399.9" y="1457.7"/>
      <point x="658.3" y="1457.8" type="curve"/>
      <point x="658.3" y="1260.4" type="line"/>
      <point x="524.9" y="1258.4"/>
      <point x="500.4" y="1222.7"/>
      <point x="500.4" y="1096.3" type="curve" smooth="yes"/>
      <point x="500.4" y="842.7" type="line"/>
      <point x="498.6" y="713.3"/>
      <point x="446.6" y="644.4"/>
      <point x="324.9" y="593.4" type="curve"/>
      <point x="438.7" y="559.8"/>
      <point x="500.4" y="484.6"/>
      <point x="500.4" y="353.6" type="curve" smooth="yes"/>
      <point x="500.4" y="98.3" type="line" smooth="yes"/>
      <point x="500.4" y="-27.3"/>
      <point x="523.7" y="-62.2"/>
      <point x="658.3" y="-64.2" type="curve"/>
    </contour>
  </outline>
</glyph>
<glyph name="bar" format="1">
  <advance width="566.8"/>
  <unicode hex="007C"/>
  <outline>
    <contour>
      <point x="207.9" y="-282.9" type="line"/>
      <point x="207.9" y="1532.0" type="line"/>
      <point x="406.4" y="1532.0" type="line"/>
      <point x="406.4" y="-282.9" type="line"/>
    </contour>
  </outline>
</glyph>
<glyph name="braceright" format="1">
  <advance width="702.3"/>
  <unicode hex="007D"/>
  <outline>
    <contour>
      <point x="88.1" y="-259.4" type="curve"/>
      <point x="88.1" y="-63.9" type="line"/>
      <point x="221.5" y="-61.9"/>
      <point x="244.2" y="-28.9"/>
      <point x="244.2" y="98.4" type="curve" smooth="yes"/>
      <point x="244.2" y="353.8" type="line" smooth="yes"/>
      <point x="244.2" y="481.0"/>
      <point x="302.3" y="551.2"/>
      <point x="421.5" y="595.1" type="curve"/>
      <point x="302.3" y="637.7"/>
      <point x="246.0" y="717.9"/>
      <point x="244.2" y="842.9" type="curve"/>
      <point x="244.2" y="1096.4" type="line" smooth="yes"/>
      <point x="244.2" y="1222.9"/>
      <point x="222.7" y="1258.8"/>
      <point x="88.1" y="1260.8" type="curve"/>
      <point x="88.1" y="1457.8" type="line"/>
      <point x="352.1" y="1457.8"/>
      <point x="484.0" y="1389.5"/>
      <point x="484.0" y="1158.2" type="curve" smooth="yes"/>
      <point x="484.0" y="900.6" type="line" smooth="yes"/>
      <point x="484.0" y="753.6"/>
      <point x="515.0" y="701.6"/>
      <point x="687.1" y="700.4" type="curve"/>
      <point x="687.1" y="490.5" type="line"/>
      <point x="521.0" y="490.5"/>
      <point x="484.0" y="435.2"/>
      <point x="484.0" y="285.9" type="curve" smooth="yes"/>
      <point x="484.0" y="23.6" type="line" smooth="yes"/>
      <point x="484.0" y="-194.5"/>
      <point x="351.9" y="-259.3"/>
    </contour>
  </outline>
</glyph>
<glyph name="asciitilde" format="1">
  <advance width="1145.6"/>
  <unicode hex="007E"/>
  <outline>
    <contour>
      <point x="197.2" y="460.2" type="curve"/>
      <point x="115.9" y="597.9" type="line"/>
      <point x="164.3" y="699.9"/>
      <point x="247.0" y="786.5"/>
      <point x="389.5" y="786.5" type="curve" smooth="yes"/>
      <point x="471.1" y="786.5"/>
      <point x="551.2" y="760.2"/>
      <point x="634.0" y="723.9" type="curve" smooth="yes"/>
      <point x="718.7" y="686.4"/>
      <point x="783.2" y="662.0"/>
      <point x="836.3" y="662.0" type="curve" smooth="yes"/>
      <point x="908.0" y="662.0"/>
      <point x="974.2" y="704.0"/>
      <point x="1046.5" y="790.5" type="curve"/>
      <point x="1123.6" y="658.2" type="line"/>
      <point x="1073.8" y="560.3"/>
      <point x="959.9" y="470.7"/>
      <point x="823.2" y="470.7" type="curve" smooth="yes"/>
      <point x="735.4" y="470.7"/>
      <point x="666.8" y="498.6"/>
      <point x="578.9" y="538.1" type="curve"/>
      <point x="505.7" y="573.0"/>
      <point x="448.7" y="597.6"/>
      <point x="381.3" y="597.6" type="curve" smooth="yes"/>
      <point x="298.4" y="597.6"/>
      <point x="236.4" y="532.5"/>
    </contour>
  </outline>
</glyph>
<glyph name="cent" format="1">
  <advance width="943.5"/>
  <unicode hex="00A2"/>
  <outline>
    <contour>
      <point x="577.2" y="-153.3" type="line"/>
      <point x="664.3" y="-153.3" type="line"/>
      <point x="664.3" y="1216.3" type="line"/>
      <point x="577.2" y="1216.3" type="line"/>
    </contour>
    <component base="c"/>
  </outline>
</glyph>
<glyph name="sterling" format="1">
  <advance width="1025.4"/>
  <unicode hex="00A3"/>
  <outline>
    <contour>
      <point x="82.1" y="16.6" type="line"/>
      <point x="71.9" y="203.9" type="line"/>
      <point x="238.4" y="225.1" type="line"/>
      <point x="238.4" y="638.9" type="line"/>
      <point x="64.1" y="638.9" type="line"/>
      <point x="64.1" y="818.0" type="line"/>
      <point x="238.4" y="818.0" type="line"/>
      <point x="238.4" y="917.1" type="line" smooth="yes"/>
      <point x="238.4" y="1214.7"/>
      <point x="345.7" y="1441.1"/>
      <point x="661.0" y="1441.1" type="curve" smooth="yes"/>
      <point x="807.5" y="1441.1"/>
      <point x="929.0" y="1388.9"/>
      <point x="1023.4" y="1309.2" type="curve"/>
      <point x="919.5" y="1145.8" type="line"/>
      <point x="837.8" y="1203.3"/>
      <point x="762.9" y="1237.6"/>
      <point x="670.4" y="1237.6" type="curve" smooth="yes"/>
      <point x="528.5" y="1237.6"/>
      <point x="474.4" y="1144.4"/>
      <point x="474.4" y="985.6" type="curve" smooth="yes"/>
      <point x="474.4" y="818.0" type="line"/>
      <point x="840.6" y="818.0" type="line"/>
      <point x="840.6" y="639.7" type="line"/>
      <point x="474.4" y="639.7" type="line"/>
      <point x="474.4" y="227.1" type="line"/>
      <point x="1040.8" y="227.1" type="line"/>
      <point x="1033.8" y="16.6" type="line"/>
    </contour>
  </outline>
</glyph>
<glyph name="currency" format="1">
  <advance width="1054.7"/>
  <unicode hex="00A4"/>
  <outline>
    <contour>
      <point x="970.3" y="220.7" type="line"/>
      <point x="1062.8" y="318.3" type="line"/>
      <point x="890.9" y="483.6" type="line"/>
      <point x="935.3" y="550.9"/>
      <point x="958.8" y="625.2"/>
      <point x="958.8" y="708.7" type="curve" smooth="yes"/>
      <point x="958.8" y="791.4"/>
      <point x="932.7" y="868.5"/>
      <point x="889.9" y="933.9" type="curve"/>
      <point x="1063.8" y="1100.7" type="line"/>
      <point x="970.3" y="1197.5" type="line"/>
      <point x="794.4" y="1031.7" type="line"/>
      <point x="726.8" y="1083.9"/>
      <point x="649.0" y="1112.7"/>
      <point x="559.5" y="1112.7" type="curve" smooth="yes"/>
      <point x="471.8" y="1112.7"/>
      <point x="388.6" y="1082.4"/>
      <point x="323.5" y="1033.6" type="curve"/>
      <point x="152.2" y="1197.5" type="line"/>
      <point x="53.8" y="1101.9" type="line"/>
      <point x="229.0" y="933.9" type="line"/>
      <point x="184.5" y="865.5"/>
      <point x="160.0" y="790.9"/>
      <point x="160.0" y="708.7" type="curve" smooth="yes"/>
      <point x="160.0" y="625.5"/>
      <point x="186.2" y="548.6"/>
      <point x="229.0" y="483.6" type="curve"/>
      <point x="54.8" y="316.7" type="line"/>
      <point x="152.2" y="222.6" type="line"/>
      <point x="321.8" y="384.8" type="line"/>
      <point x="388.6" y="333.4"/>
      <point x="469.0" y="305.8"/>
      <point x="559.5" y="305.8" type="curve" smooth="yes"/>
      <point x="648.2" y="305.8"/>
      <point x="728.5" y="336.1"/>
      <point x="794.4" y="385.6" type="curve"/>
    </contour>
    <contour>
      <point x="559.5" y="447.1" type="curve" smooth="yes"/>
      <point x="416.2" y="447.1"/>
      <point x="303.3" y="563.6"/>
      <point x="303.3" y="708.7" type="curve" smooth="yes"/>
      <point x="303.3" y="852.9"/>
      <point x="416.2" y="971.3"/>
      <point x="559.5" y="971.3" type="curve" smooth="yes"/>
      <point x="704.6" y="971.3"/>
      <point x="817.5" y="853.7"/>
      <point x="817.5" y="708.7" type="curve" smooth="yes"/>
      <point x="817.5" y="563.7"/>
      <point x="705.6" y="447.1"/>
    </contour>
  </outline>
</glyph>
<glyph name="yen" format="1">
  <advance width="1253.9"/>
  <unicode hex="00A5"/>
  <outline>
    <contour>
      <point x="517.0" y="0.0" type="line"/>
      <point x="795.6" y="0.0" type="line"/>
      <point x="795.6" y="226.5" type="line"/>
      <point x="1105.2" y="226.5" type="line"/>
      <point x="1105.2" y="390.5" type="line"/>
      <point x="795.6" y="390.5" type="line"/>
      <point x="795.6" y="511.6" type="line"/>
      <point x="1105.0" y="511.6" type="line"/>
      <point x="1105.0" y="667.0" type="line"/>
      <point x="860.0" y="667.0" type="line"/>
      <point x="1262.6" y="1422.9" type="line"/>
      <point x="969.5" y="1422.9" type="line"/>
      <point x="654.5" y="788.8" type="line"/>
      <point x="345.5" y="1422.9" type="line"/>
      <point x="48.0" y="1422.9" type="line"/>
      <point x="452.1" y="667.0" type="line"/>
      <point x="209.8" y="667.0" type="line"/>
      <point x="209.8" y="511.6" type="line"/>
      <point x="517.0" y="511.6" type="line"/>
      <point x="517.0" y="390.5" type="line"/>
      <point x="209.6" y="390.5" type="line"/>
      <point x="209.6" y="226.5" type="line"/>
      <point x="517.0" y="226.5" type="line"/>
    </contour>
  </outline>
</glyph>
<glyph name="brokenbar" format="1">
  <advance width="663.2"/>
  <unicode hex="00A6"/>
  <outline>
    <contour>
      <point x="254.8" y="-335.1" type="line"/>
      <point x="254.8" y="364.1" type="line"/>
      <point x="453.4" y="364.1" type="line"/>
      <point x="453.4" y="-335.1" type="line"/>
    </contour>
    <contour>
      <point x="254.8" y="742.0" type="line"/>
      <point x="254.8" y="1439.1" type="line"/>
      <point x="453.4" y="1439.1" type="line"/>
      <point x="453.4" y="742.0" type="line"/>
    </contour>
  </outline>
</glyph>
<glyph name="section" format="1">
  <advance width="991"/>
  <unicode hex="00A7"/>
  <outline>
    <contour>
      <point x="854" y="271" type="curve" smooth="yes"/>
      <point x="854" y="69"/>
      <point x="672" y="-18"/>
      <point x="470" y="-18" type="curve" smooth="yes"/>
      <point x="364" y="-18"/>
      <point x="252" y="5"/>
      <point x="159" y="48" type="curve"/>
      <point x="193" y="135" type="line"/>
      <point x="272" y="93"/>
      <point x="378" y="67"/>
      <point x="475" y="67" type="curve" smooth="yes"/>
      <point x="623" y="67"/>
      <point x="752" y="126"/>
      <point x="752" y="278" type="curve" smooth="yes"/>
      <point x="752" y="389"/>
      <point x="680" y="435"/>
      <point x="482" y="503" type="curve" smooth="yes"/>
      <point x="281" y="573"/>
      <point x="153" y="632"/>
      <point x="153" y="792" type="curve" smooth="yes"/>
      <point x="153" y="908"/>
      <point x="223" y="986"/>
      <point x="318" y="1035" type="curve"/>
      <point x="215" y="1093"/>
      <point x="164" y="1158"/>
      <point x="164" y="1274" type="curve" smooth="yes"/>
      <point x="164" y="1462"/>
      <point x="341" y="1545"/>
      <point x="538" y="1545" type="curve" smooth="yes"/>
      <point x="634" y="1545"/>
      <point x="736" y="1524"/>
      <point x="823" y="1487" type="curve"/>
      <point x="792" y="1405" type="line"/>
      <point x="722" y="1438"/>
      <point x="629" y="1458"/>
      <point x="540" y="1458" type="curve" smooth="yes"/>
      <point x="399" y="1458"/>
      <point x="270" y="1408"/>
      <point x="270" y="1282" type="curve" smooth="yes"/>
      <point x="270" y="1139"/>
      <point x="377" y="1109"/>
      <point x="564" y="1034" type="curve" smooth="yes"/>
      <point x="774" y="951"/>
      <point x="862" y="904"/>
      <point x="862" y="746" type="curve" smooth="yes"/>
      <point x="862" y="630"/>
      <point x="820" y="554"/>
      <point x="708" y="507" type="curve"/>
      <point x="799" y="456"/>
      <point x="854" y="380"/>
    </contour>
    <contour>
      <point x="628" y="547" type="line"/>
      <point x="692" y="581"/>
      <point x="759" y="616"/>
      <point x="759" y="758" type="curve" smooth="yes"/>
      <point x="759" y="859"/>
      <point x="662" y="898"/>
      <point x="526" y="952" type="curve"/>
      <point x="394" y="1003" type="line"/>
      <point x="329" y="979"/>
      <point x="257" y="902"/>
      <point x="257" y="797" type="curve" smooth="yes"/>
      <point x="257" y="683"/>
      <point x="350" y="658"/>
      <point x="510" y="594" type="curve" smooth="yes"/>
    </contour>
  </outline>
</glyph>
<glyph name="dieresis" format="1">
  <advance width="687.7"/>
  <unicode hex="00A8"/>
  <outline>
    <contour>
      <point x="74.4" y="1172.5" type="line"/>
      <point x="268.8" y="1172.5" type="line"/>
      <point x="268.8" y="1418.6" type="line"/>
      <point x="74.4" y="1418.6" type="line"/>
    </contour>
    <contour>
      <point x="466.2" y="1172.5" type="line"/>
      <point x="659.8" y="1172.5" type="line"/>
      <point x="659.8" y="1418.6" type="line"/>
      <point x="466.2" y="1418.6" type="line"/>
    </contour>
  </outline>
</glyph>
<glyph name="copyright" format="1">
  <advance width="1570.6"/>
  <unicode hex="00A9"/>
  <outline>
    <contour>
      <point x="775.9" y="246.1" type="curve" smooth="yes"/>
      <point x="888.1" y="246.1"/>
      <point x="988.0" y="275.0"/>
      <point x="1065.8" y="325.1" type="curve"/>
      <point x="1016.2" y="435.2" type="line"/>
      <point x="947.2" y="393.3"/>
      <point x="859.1" y="372.6"/>
      <point x="788.4" y="372.6" type="curve" smooth="yes"/>
      <point x="603.8" y="372.6"/>
      <point x="483.0" y="508.1"/>
      <point x="483.0" y="718.0" type="curve" smooth="yes"/>
      <point x="483.0" y="927.4"/>
      <point x="602.9" y="1066.8"/>
      <point x="783.9" y="1066.8" type="curve" smooth="yes"/>
      <point x="853.6" y="1066.8"/>
      <point x="942.1" y="1046.1"/>
      <point x="1010.2" y="1003.7" type="curve"/>
      <point x="1064.5" y="1114.3" type="line"/>
      <point x="984.7" y="1167.8"/>
      <point x="886.2" y="1194.3"/>
      <point x="773.8" y="1194.3" type="curve" smooth="yes"/>
      <point x="514.2" y="1194.3"/>
      <point x="330.6" y="983.2"/>
      <point x="330.6" y="717.2" type="curve" smooth="yes"/>
      <point x="330.6" y="443.4"/>
      <point x="522.0" y="246.1"/>
    </contour>
    <contour>
      <point x="784.2" y="105.3" type="curve" smooth="yes"/>
      <point x="436.2" y="105.3"/>
      <point x="169.9" y="372.6"/>
      <point x="169.9" y="725.4" type="curve" smooth="yes"/>
      <point x="169.9" y="1076.4"/>
      <point x="435.3" y="1339.3"/>
      <point x="782.4" y="1339.3" type="curve" smooth="yes"/>
      <point x="1134.0" y="1339.3"/>
      <point x="1401.6" y="1076.3"/>
      <point x="1401.6" y="724.5" type="curve" smooth="yes"/>
      <point x="1401.6" y="372.7"/>
      <point x="1135.8" y="105.3"/>
    </contour>
    <contour>
      <point x="784.2" y="-4.0" type="curve" smooth="yes"/>
      <point x="1181.0" y="-4.0"/>
      <point x="1526.6" y="290.1"/>
      <point x="1526.6" y="725.4" type="curve" smooth="yes"/>
      <point x="1526.6" y="1159.8"/>
      <point x="1178.3" y="1449.6"/>
      <point x="782.4" y="1449.6" type="curve" smooth="yes"/>
      <point x="389.2" y="1449.6"/>
      <point x="44.0" y="1160.7"/>
      <point x="44.0" y="725.4" type="curve" smooth="yes"/>
      <point x="44.0" y="290.1"/>
      <point x="391.0" y="-4.0"/>
    </contour>
  </outline>
</glyph>
<glyph name="guillemotleft" format="1">
  <advance width="953.3"/>
  <unicode hex="00AB"/>
  <outline>
    <contour>
      <point x="754.3" y="129.1" type="line"/>
      <point x="950.2" y="181.5" type="line"/>
      <point x="693.2" y="544.6" type="line"/>
      <point x="954.5" y="908.1" type="line"/>
      <point x="756.4" y="959.6" type="line"/>
      <point x="452.3" y="541.6" type="line"/>
    </contour>
    <contour>
      <point x="351.6" y="129.1" type="line"/>
      <point x="547.5" y="181.5" type="line"/>
      <point x="290.6" y="544.6" type="line"/>
      <point x="552.8" y="908.1" type="line"/>
      <point x="354.7" y="959.6" type="line"/>
      <point x="49.6" y="541.6" type="line"/>
    </contour>
  </outline>
</glyph>
<glyph name="logicalnot" format="1">
  <advance width="1136.6"/>
  <unicode hex="00AC"/>
  <outline>
    <contour>
      <point x="863.1" y="241.9" type="line"/>
      <point x="1051.9" y="241.9" type="line"/>
      <point x="1051.9" y="807.3" type="line"/>
      <point x="88.2" y="807.3" type="line"/>
      <point x="88.2" y="617.2" type="line"/>
      <point x="863.1" y="617.2" type="line"/>
    </contour>
  </outline>
</glyph>
<glyph name="uni00AD" format="1">
  <advance width="695.6"/>
  <unicode hex="00AD"/>
  <outline>
    <contour>
      <point x="71.1" y="343.0" type="line"/>
      <point x="669.1" y="343.0" type="line"/>
      <point x="669.1" y="544.5" type="line"/>
      <point x="71.1" y="544.5" type="line"/>
    </contour>
  </outline>
</glyph>
<glyph name="registered" format="1">
  <advance width="1563.4"/>
  <unicode hex="00AE"/>
  <outline>
    <contour>
      <point x="482.7" y="261.3" type="line"/>
      <point x="634.6" y="261.3" type="line"/>
      <point x="634.6" y="657.2" type="line"/>
      <point x="775.3" y="657.2" type="line"/>
      <point x="804.1" y="628.4"/>
      <point x="987.5" y="261.3"/>
      <point x="987.5" y="261.3" type="curve"/>
      <point x="1157.4" y="261.3" type="line"/>
      <point x="1157.4" y="261.3"/>
      <point x="974.1" y="609.9"/>
      <point x="922.8" y="678.3" type="curve"/>
      <point x="1062.9" y="711.2"/>
      <point x="1114.8" y="791.9"/>
      <point x="1114.8" y="925.7" type="curve" smooth="yes"/>
      <point x="1114.8" y="1107.5"/>
      <point x="988.0" y="1178.5"/>
      <point x="788.3" y="1178.5" type="curve" smooth="yes"/>
      <point x="482.7" y="1178.5" type="line"/>
    </contour>
    <contour>
      <point x="633.8" y="789.8" type="line"/>
      <point x="633.8" y="1045.9" type="line"/>
      <point x="751.6" y="1045.9" type="line" smooth="yes"/>
      <point x="898.9" y="1045.9"/>
      <point x="963.5" y="1038.8"/>
      <point x="963.5" y="922.5" type="curve" smooth="yes"/>
      <point x="963.5" y="810.8"/>
      <point x="896.2" y="789.8"/>
      <point x="763.9" y="789.8" type="curve" smooth="yes"/>
    </contour>
    <contour>
      <point x="780.6" y="99.0" type="curve" smooth="yes"/>
      <point x="433.5" y="99.0"/>
      <point x="168.1" y="366.3"/>
      <point x="168.1" y="719.1" type="curve" smooth="yes"/>
      <point x="168.1" y="1070.1"/>
      <point x="432.6" y="1339.3"/>
      <point x="779.7" y="1339.3" type="curve" smooth="yes"/>
      <point x="1130.4" y="1339.3"/>
      <point x="1395.3" y="1070.0"/>
      <point x="1395.3" y="718.2" type="curve" smooth="yes"/>
      <point x="1395.3" y="366.4"/>
      <point x="1130.4" y="99.0"/>
    </contour>
    <contour>
      <point x="780.6" y="-10.3" type="curve" smooth="yes"/>
      <point x="1175.6" y="-10.3"/>
      <point x="1521.2" y="283.8"/>
      <point x="1521.2" y="719.1" type="curve" smooth="yes"/>
      <point x="1521.2" y="1153.5"/>
      <point x="1174.7" y="1449.6"/>
      <point x="779.7" y="1449.6" type="curve" smooth="yes"/>
      <point x="386.5" y="1449.6"/>
      <point x="42.2" y="1154.4"/>
      <point x="42.2" y="719.1" type="curve" smooth="yes"/>
      <point x="42.2" y="283.8"/>
      <point x="387.4" y="-10.3"/>
    </contour>
  </outline>
</glyph>
<glyph name="macron" format="1">
  <advance width="838.4"/>
  <unicode hex="00AF"/>
  <outline>
    <contour>
      <point x="83.4" y="1255.7" type="line"/>
      <point x="751.6" y="1255.7" type="line"/>
      <point x="751.6" y="1415.9" type="line"/>
      <point x="83.4" y="1415.9" type="line"/>
    </contour>
  </outline>
</glyph>
<glyph name="degree" format="1">
  <advance width="757.6"/>
  <unicode hex="00B0"/>
  <outline>
    <contour>
      <point x="379.2" y="1000.9" type="curve" smooth="yes"/>
      <point x="300.6" y="1000.9"/>
      <point x="228.4" y="1059.2"/>
      <point x="228.4" y="1157.9" type="curve" smooth="yes"/>
      <point x="228.4" y="1253.9"/>
      <point x="300.8" y="1310.4"/>
      <point x="380.1" y="1310.4" type="curve" smooth="yes"/>
      <point x="457.0" y="1310.4"/>
      <point x="528.4" y="1253.9"/>
      <point x="528.4" y="1157.9" type="curve" smooth="yes"/>
      <point x="528.4" y="1059.4"/>
      <point x="457.9" y="1000.9"/>
    </contour>
    <contour>
      <point x="379.1" y="866.5" type="curve" smooth="yes"/>
      <point x="569.6" y="866.5"/>
      <point x="682.7" y="1006.8"/>
      <point x="682.7" y="1158.8" type="curve" smooth="yes"/>
      <point x="682.7" y="1314.9"/>
      <point x="564.8" y="1443.0"/>
      <point x="379.1" y="1443.0" type="curve" smooth="yes"/>
      <point x="191.2" y="1443.0"/>
      <point x="75.0" y="1314.9"/>
      <point x="75.0" y="1158.8" type="curve" smooth="yes"/>
      <point x="75.0" y="1005.0"/>
      <point x="188.7" y="866.5"/>
    </contour>
  </outline>
</glyph>
<glyph name="plusminus" format="1">
  <advance width="1134.4"/>
  <unicode hex="00B1"/>
  <outline>
    <contour>
      <point x="112.1" y="0.0" type="line"/>
      <point x="112.1" y="175.9" type="line"/>
      <point x="1022.3" y="175.9" type="line"/>
      <point x="1022.3" y="0.0" type="line"/>
    </contour>
    <contour>
      <point x="470.0" y="246.4" type="line"/>
      <point x="662.8" y="246.4" type="line"/>
      <point x="662.8" y="602.7" type="line"/>
      <point x="1015.8" y="602.7" type="line"/>
      <point x="1015.8" y="799.3" type="line"/>
      <point x="661.9" y="799.3" type="line"/>
      <point x="661.9" y="1146.5" type="line"/>
      <point x="470.0" y="1146.5" type="line"/>
      <point x="470.0" y="799.3" type="line"/>
      <point x="115.2" y="799.3" type="line"/>
      <point x="115.2" y="602.7" type="line"/>
      <point x="470.0" y="602.7" type="line"/>
    </contour>
  </outline>
</glyph>
<glyph name="uni00B3" format="1">
  <advance width="717.8"/>
  <unicode hex="00B3"/>
  <outline>
    <contour>
      <point x="368.4" y="569.3" type="curve" smooth="yes"/>
      <point x="522.0" y="569.3"/>
      <point x="657.6" y="660.1"/>
      <point x="657.6" y="831.8" type="curve" smooth="yes"/>
      <point x="657.6" y="921.2"/>
      <point x="599.5" y="992.4"/>
      <point x="530.4" y="1026.9" type="curve"/>
      <point x="605.7" y="1059.3"/>
      <point x="637.7" y="1118.9"/>
      <point x="639.5" y="1187.3" type="curve"/>
      <point x="639.5" y="1351.0"/>
      <point x="513.4" y="1421.8"/>
      <point x="377.1" y="1421.8" type="curve" smooth="yes"/>
      <point x="282.5" y="1421.8"/>
      <point x="191.2" y="1389.5"/>
      <point x="126.6" y="1334.7" type="curve"/>
      <point x="182.6" y="1221.0" type="line"/>
      <point x="220.9" y="1249.8"/>
      <point x="301.8" y="1278.2"/>
      <point x="367.9" y="1278.2" type="curve" smooth="yes"/>
      <point x="436.2" y="1278.2"/>
      <point x="468.4" y="1239.9"/>
      <point x="468.4" y="1185.5" type="curve" smooth="yes"/>
      <point x="468.4" y="1126.6"/>
      <point x="429.0" y="1089.9"/>
      <point x="326.5" y="1089.9" type="curve" smooth="yes"/>
      <point x="243.5" y="1089.9" type="line"/>
      <point x="243.5" y="947.7" type="line"/>
      <point x="325.1" y="948.6" type="line"/>
      <point x="430.9" y="948.6"/>
      <point x="495.3" y="910.1"/>
      <point x="495.3" y="833.2" type="curve" smooth="yes"/>
      <point x="495.3" y="750.6"/>
      <point x="444.3" y="712.2"/>
      <point x="366.2" y="712.2" type="curve" smooth="yes"/>
      <point x="306.8" y="712.2"/>
      <point x="220.0" y="737.5"/>
      <point x="177.8" y="777.3" type="curve"/>
      <point x="122.1" y="649.4" type="line"/>
      <point x="191.6" y="596.9"/>
      <point x="283.8" y="569.3"/>
    </contour>
  </outline>
</glyph>
<glyph name="acute" format="1">
  <advance width="552.2"/>
  <unicode hex="00B4"/>
  <outline>
    <contour>
      <point x="162.6" y="1078.9" type="line"/>
      <point x="317.9" y="1078.9" type="line"/>
      <point x="625.3" y="1457.2" type="line"/>
      <point x="332.7" y="1457.2" type="line"/>
    </contour>
  </outline>
</glyph>
<glyph name="paragraph" format="1">
  <advance width="1059.3"/>
  <unicode hex="00B6"/>
  <outline>
    <contour>
      <point x="408.7" y="-16.2" type="line"/>
      <point x="575.9" y="-16.2" type="line"/>
      <point x="575.9" y="1263.3" type="line"/>
      <point x="724.7" y="1263.3" type="line"/>
      <point x="724.7" y="-16.2" type="line"/>
      <point x="891.9" y="-16.2" type="line"/>
      <point x="891.9" y="1263.3" type="line"/>
      <point x="968.4" y="1263.3" type="line"/>
      <point x="968.4" y="1434.3" type="line"/>
      <point x="546.8" y="1434.3" type="line" smooth="yes"/>
      <point x="264.5" y="1434.3"/>
      <point x="72.2" y="1350.9"/>
      <point x="72.2" y="1112.7" type="curve" smooth="yes"/>
      <point x="72.2" y="930.5"/>
      <point x="204.0" y="811.6"/>
      <point x="408.7" y="811.6" type="curve"/>
    </contour>
  </outline>
</glyph>
<glyph name="cedilla" format="1">
  <advance width="522.8"/>
  <unicode hex="00B8"/>
  <outline>
    <contour>
      <point x="59.0" y="-394.1" type="line"/>
      <point x="266.5" y="-394.1" type="line"/>
      <point x="320.0" y="0.4" type="line"/>
      <point x="176.1" y="0.4" type="line"/>
    </contour>
  </outline>
</glyph>
<glyph name="uni00B9" format="1">
  <advance width="676.1"/>
  <unicode hex="00B9"/>
  <outline>
    <contour>
      <point x="143.8" y="575.0" type="line"/>
      <point x="611.7" y="575.0" type="line"/>
      <point x="611.7" y="728.8" type="line"/>
      <point x="475.7" y="728.8" type="line"/>
      <point x="475.7" y="1432.1" type="line"/>
      <point x="328.6" y="1433.0" type="line"/>
      <point x="324.7" y="1429.1"/>
      <point x="133.4" y="1327.9"/>
      <point x="128.5" y="1326.8" type="curve"/>
      <point x="128.5" y="1162.1" type="line"/>
      <point x="134.0" y="1163.3"/>
      <point x="246.7" y="1215.5"/>
      <point x="282.8" y="1233.3" type="curve"/>
      <point x="282.8" y="728.8" type="line"/>
      <point x="143.8" y="728.8" type="line"/>
    </contour>
  </outline>
</glyph>
<glyph name="guillemotright" format="1">
  <advance width="1019.9"/>
  <unicode hex="00BB"/>
  <outline>
    <contour>
      <point x="674.4" y="959.6" type="line"/>
      <point x="480.3" y="908.2" type="line"/>
      <point x="734.6" y="544.1" type="line"/>
      <point x="476.0" y="181.6" type="line"/>
      <point x="671.4" y="129.1" type="line"/>
      <point x="977.3" y="547.1" type="line"/>
    </contour>
    <contour>
      <point x="280.8" y="959.6" type="line"/>
      <point x="84.9" y="908.2" type="line"/>
      <point x="343.7" y="544.1" type="line"/>
      <point x="82.3" y="181.6" type="line"/>
      <point x="279.6" y="129.1" type="line"/>
      <point x="583.7" y="547.1" type="line"/>
    </contour>
  </outline>
</glyph>
<glyph name="onequarter" format="1">
  <advance width="1533.6"/>
  <unicode hex="00BC"/>
  <outline>
    <contour>
      <point x="70.5" y="577.2" type="line"/>
      <point x="528.1" y="577.2" type="line"/>
      <point x="528.1" y="729.9" type="line"/>
      <point x="396.0" y="729.9" type="line"/>
      <point x="396.0" y="1433.2" type="line"/>
      <point x="253.4" y="1434.1" type="line"/>
      <point x="249.5" y="1430.2"/>
      <point x="59.7" y="1329.6"/>
      <point x="54.6" y="1327.8" type="curve"/>
      <point x="54.6" y="1173.2" type="line"/>
      <point x="59.5" y="1174.9"/>
      <point x="171.4" y="1227.4"/>
      <point x="207.5" y="1245.2" type="curve"/>
      <point x="207.5" y="729.9" type="line"/>
      <point x="70.5" y="729.9" type="line"/>
    </contour>
    <contour>
      <point x="1269.1" y="8.2" type="line"/>
      <point x="1429.9" y="8.2" type="line"/>
      <point x="1430.8" y="171.7" type="line"/>
      <point x="1542.6" y="171.7" type="line"/>
      <point x="1538.9" y="312.5" type="line"/>
      <point x="1431.9" y="312.5" type="line"/>
      <point x="1431.9" y="838.0" type="line"/>
      <point x="1259.1" y="838.0" type="line"/>
      <point x="893.7" y="314.2" type="line"/>
      <point x="893.7" y="171.7" type="line"/>
      <point x="1269.1" y="171.7" type="line"/>
    </contour>
    <contour>
      <point x="259.8" y="0.0" type="line"/>
      <point x="459.6" y="0.0" type="line"/>
      <point x="1408.5" y="1423.3" type="line"/>
      <point x="1214.2" y="1423.3" type="line"/>
    </contour>
    <contour>
      <point x="1093.3" y="312.5" type="line"/>
      <point x="1267.3" y="597.3" type="line"/>
      <point x="1267.3" y="312.5" type="line"/>
    </contour>
  </outline>
</glyph>
<glyph name="onehalf" format="1">
  <advance width="1600.5"/>
  <unicode hex="00BD"/>
  <outline>
    <contour>
      <point x="96.1" y="586.2" type="line"/>
      <point x="545.8" y="586.2" type="line"/>
      <point x="545.8" y="726.1" type="line"/>
      <point x="416.7" y="726.1" type="line"/>
      <point x="416.7" y="1433.2" type="line"/>
      <point x="252.5" y="1434.1" type="line"/>
      <point x="248.6" y="1430.2"/>
      <point x="84.6" y="1331.7"/>
      <point x="78.6" y="1328.7" type="curve"/>
      <point x="78.6" y="1173.9" type="line"/>
      <point x="82.9" y="1176.1"/>
      <point x="192.1" y="1237.2"/>
      <point x="227.3" y="1257.7" type="curve"/>
      <point x="227.3" y="726.1" type="line"/>
      <point x="96.1" y="726.1" type="line"/>
    </contour>
    <contour>
      <point x="1030.7" y="-24.4" type="line"/>
      <point x="1566.3" y="-24.4" type="line"/>
      <point x="1582.5" y="117.5" type="line"/>
      <point x="1279.0" y="117.5" type="line"/>
      <point x="1452.3" y="264.7"/>
      <point x="1583.7" y="365.4"/>
      <point x="1583.7" y="548.1" type="curve" smooth="yes"/>
      <point x="1583.7" y="718.0"/>
      <point x="1447.9" y="815.3"/>
      <point x="1304.7" y="815.3" type="curve" smooth="yes"/>
      <point x="1184.5" y="815.3"/>
      <point x="1078.9" y="771.8"/>
      <point x="1020.7" y="684.8" type="curve"/>
      <point x="1097.0" y="569.1" type="line" smooth="yes"/>
      <point x="1142.1" y="630.8"/>
      <point x="1220.2" y="659.7"/>
      <point x="1287.9" y="659.7" type="curve" smooth="yes"/>
      <point x="1348.7" y="659.7"/>
      <point x="1410.5" y="618.1"/>
      <point x="1410.5" y="542.7" type="curve" smooth="yes"/>
      <point x="1410.5" y="415.3"/>
      <point x="1055.6" y="140.1"/>
      <point x="1031.6" y="116.0" type="curve"/>
    </contour>
    <contour>
      <point x="261.8" y="18.0" type="line"/>
      <point x="462.6" y="18.0" type="line"/>
      <point x="1415.1" y="1423.3" type="line"/>
      <point x="1216.2" y="1423.3" type="line"/>
    </contour>
  </outline>
</glyph>
<glyph name="threequarters" format="1">
  <advance width="1501.1"/>
  <unicode hex="00BE"/>
  <outline>
    <contour>
      <point x="307.1" y="593.6" type="curve" smooth="yes"/>
      <point x="458.9" y="593.6"/>
      <point x="599.9" y="680.8"/>
      <point x="599.9" y="850.7" type="curve" smooth="yes"/>
      <point x="599.9" y="937.4"/>
      <point x="544.5" y="1006.8"/>
      <point x="476.3" y="1040.4" type="curve"/>
      <point x="566.9" y="1080.9"/>
      <point x="580.9" y="1172.0"/>
      <point x="580.9" y="1197.2" type="curve" smooth="yes"/>
      <point x="580.9" y="1351.9"/>
      <point x="447.7" y="1421.8"/>
      <point x="315.9" y="1421.8" type="curve" smooth="yes"/>
      <point x="219.5" y="1421.8"/>
      <point x="116.4" y="1388.6"/>
      <point x="51.8" y="1332.0" type="curve"/>
      <point x="120.4" y="1221.0" type="line"/>
      <point x="158.7" y="1249.8"/>
      <point x="237.0" y="1275.5"/>
      <point x="303.1" y="1275.5" type="curve" smooth="yes"/>
      <point x="372.3" y="1275.5"/>
      <point x="405.3" y="1241.7"/>
      <point x="405.3" y="1190.9" type="curve" smooth="yes"/>
      <point x="405.3" y="1135.6"/>
      <point x="366.8" y="1098.9"/>
      <point x="264.3" y="1098.9" type="curve" smooth="yes"/>
      <point x="182.2" y="1098.9" type="line"/>
      <point x="182.2" y="955.8" type="line"/>
      <point x="263.9" y="956.7" type="line"/>
      <point x="368.8" y="956.7"/>
      <point x="426.8" y="923.6"/>
      <point x="426.8" y="853.0" type="curve" smooth="yes"/>
      <point x="426.8" y="774.9"/>
      <point x="376.7" y="739.2"/>
      <point x="298.6" y="739.2" type="curve" smooth="yes"/>
      <point x="239.2" y="739.2"/>
      <point x="158.8" y="760.0"/>
      <point x="117.5" y="797.1" type="curve"/>
      <point x="59.9" y="672.8" type="line"/>
      <point x="128.5" y="620.3"/>
      <point x="222.5" y="593.6"/>
    </contour>
    <contour>
      <point x="1225.0" y="18.1" type="line"/>
      <point x="1385.8" y="18.1" type="line"/>
      <point x="1386.7" y="188.8" type="line"/>
      <point x="1498.5" y="188.8" type="line"/>
      <point x="1495.7" y="328.7" type="line"/>
      <point x="1387.8" y="328.7" type="line"/>
      <point x="1387.8" y="858.7" type="line"/>
      <point x="1214.1" y="858.7" type="line"/>
      <point x="850.5" y="325.9" type="line"/>
      <point x="850.5" y="188.8" type="line"/>
      <point x="1225.0" y="188.8" type="line"/>
    </contour>
    <contour>
      <point x="239.8" y="18.0" type="line"/>
      <point x="442.3" y="18.0" type="line"/>
      <point x="1388.5" y="1423.3" type="line"/>
      <point x="1191.5" y="1423.3" type="line"/>
    </contour>
    <contour>
      <point x="1048.3" y="328.7" type="line"/>
      <point x="1223.2" y="611.7" type="line"/>
      <point x="1223.2" y="328.7" type="line"/>
    </contour>
  </outline>
</glyph>
<glyph name="Eth" format="1">
  <advance width="1464.6"/>
  <unicode hex="00D0"/>
  <outline>
    <contour>
      <point x="662.3" y="803.6" type="line"/>
      <point x="21.7" y="803.6" type="line"/>
      <point x="21.7" y="632.1" type="line"/>
      <point x="662.3" y="632.1" type="line"/>
    </contour>
    <component base="D"/>
  </outline>
</glyph>
<glyph name="multiply" format="1">
  <advance width="1181.5"/>
  <unicode hex="00D7"/>
  <outline>
    <contour>
      <point x="866.5" y="145.5" type="line"/>
      <point x="999.7" y="286.3" type="line"/>
      <point x="999.7" y="286.3"/>
      <point x="788.1" y="504.9"/>
      <point x="726.9" y="566.1" type="curve"/>
      <point x="999.3" y="849.0" type="line"/>
      <point x="864.3" y="985.6" type="line"/>
      <point x="590.7" y="704.6" type="line"/>
      <point x="314.2" y="986.2" type="line"/>
      <point x="183.1" y="850.4" type="line"/>
      <point x="452.8" y="566.2" type="line"/>
      <point x="181.8" y="285.1" type="line"/>
      <point x="312.8" y="145.4" type="line"/>
      <point x="590.7" y="426.8" type="line"/>
    </contour>
  </outline>
</glyph>
<glyph name="Oslash" format="1">
  <advance width="1563.8"/>
  <unicode hex="00D8"/>
  <outline>
    <contour>
      <point x="540.7" y="-237.4" type="line"/>
      <point x="1257.0" y="1593.1" type="line"/>
      <point x="1124.2" y="1643.1" type="line"/>
      <point x="413.8" y="-192.4" type="line"/>
    </contour>
    <component base="O"/>
  </outline>
</glyph>
<glyph name="germandbls" format="1">
  <advance width="1163.8"/>
  <unicode hex="00DF"/>
  <outline>
    <contour>
      <point x="390.6" y="0.0" type="line"/>
      <point x="143.5" y="0.0" type="line"/>
      <point x="143.5" y="991.1" type="line" smooth="yes"/>
      <point x="143.5" y="1272.9"/>
      <point x="298.0" y="1442.7"/>
      <point x="589.9" y="1442.7" type="curve" smooth="yes"/>
      <point x="815.6" y="1442.7"/>
      <point x="1009.2" y="1341.1"/>
      <point x="1009.2" y="1120.9" type="curve" smooth="yes"/>
      <point x="1009.2" y="883.5"/>
      <point x="831.9" y="833.6"/>
      <point x="831.9" y="760.6" type="curve" smooth="yes"/>
      <point x="831.9" y="661.8"/>
      <point x="1182.4" y="603.6"/>
      <point x="1182.4" y="303.2" type="curve" smooth="yes"/>
      <point x="1182.4" y="97.4"/>
      <point x="1043.4" y="-21.7"/>
      <point x="827.9" y="-21.7" type="curve" smooth="yes"/>
      <point x="729.3" y="-21.7"/>
      <point x="618.0" y="3.3"/>
      <point x="505.7" y="48.3" type="curve"/>
      <point x="564.3" y="223.5" type="line"/>
      <point x="607.4" y="201.3"/>
      <point x="696.2" y="171.0"/>
      <point x="778.9" y="171.0" type="curve" smooth="yes"/>
      <point x="865.7" y="171.0"/>
      <point x="932.4" y="209.4"/>
      <point x="932.4" y="310.4" type="curve" smooth="yes"/>
      <point x="932.4" y="492.1"/>
      <point x="589.9" y="550.1"/>
      <point x="589.9" y="734.5" type="curve" smooth="yes"/>
      <point x="589.9" y="898.4"/>
      <point x="783.5" y="946.2"/>
      <point x="783.6" y="1113.8" type="curve" smooth="yes"/>
      <point x="783.7" y="1200.3"/>
      <point x="713.1" y="1256.1"/>
      <point x="603.4" y="1256.1" type="curve" smooth="yes"/>
      <point x="441.3" y="1256.1"/>
      <point x="390.6" y="1160.4"/>
      <point x="390.6" y="987.5" type="curve" smooth="yes"/>
    </contour>
  </outline>
</glyph>
<glyph name="ae" format="1">
  <advance width="1624.7"/>
  <unicode hex="00E6"/>
  <outline>
    <contour>
      <point x="409.3" y="-19.4" type="curve" smooth="yes"/>
      <point x="584.8" y="-19.4"/>
      <point x="754.7" y="49.3"/>
      <point x="841.7" y="130.3" type="curve"/>
      <point x="917.9" y="35.8"/>
      <point x="1017.3" y="-19.0"/>
      <point x="1186.4" y="-19.0" type="curve" smooth="yes"/>
      <point x="1355.7" y="-19.0"/>
      <point x="1461.3" y="18.0"/>
      <point x="1547.9" y="86.6" type="curve"/>
      <point x="1476.7" y="248.4" type="line"/>
      <point x="1412.1" y="206.3"/>
      <point x="1319.9" y="165.9"/>
      <point x="1203.3" y="165.9" type="curve"/>
      <point x="1034.6" y="167.7"/>
      <point x="951.7" y="251.1"/>
      <point x="941.7" y="453.8" type="curve"/>
      <point x="1458.0" y="453.8"/>
      <point x="1581.1" y="608.2"/>
      <point x="1581.1" y="762.2" type="curve" smooth="yes"/>
      <point x="1581.1" y="921.7"/>
      <point x="1489.5" y="1098.3"/>
      <point x="1199.4" y="1098.3" type="curve" smooth="yes"/>
      <point x="1053.2" y="1098.3"/>
      <point x="917.9" y="1026.6"/>
      <point x="852.3" y="930.8" type="curve"/>
      <point x="811.7" y="1043.0"/>
      <point x="704.9" y="1098.4"/>
      <point x="552.2" y="1098.4" type="curve" smooth="yes"/>
      <point x="392.5" y="1098.4"/>
      <point x="216.9" y="1053.1"/>
      <point x="121.9" y="998.8" type="curve"/>
      <point x="190.7" y="834.4" type="line"/>
      <point x="257.8" y="862.1"/>
      <point x="406.7" y="911.9"/>
      <point x="522.8" y="911.9" type="curve"/>
      <point x="659.0" y="906.5"/>
      <point x="703.6" y="846.4"/>
      <point x="703.6" y="721.2" type="curve" smooth="yes"/>
      <point x="703.6" y="619.8" type="line"/>
      <point x="593.7" y="619.8" type="line" smooth="yes"/>
      <point x="285.8" y="619.8"/>
      <point x="85.5" y="547.4"/>
      <point x="85.5" y="310.4" type="curve" smooth="yes"/>
      <point x="85.5" y="119.6"/>
      <point x="212.1" y="-19.4"/>
    </contour>
    <contour>
      <point x="443.3" y="153.4" type="curve" smooth="yes"/>
      <point x="357.7" y="153.4"/>
      <point x="312.5" y="200.5"/>
      <point x="312.5" y="296.3" type="curve" smooth="yes"/>
      <point x="312.5" y="393.7"/>
      <point x="379.2" y="454.1"/>
      <point x="578.8" y="454.1" type="curve" smooth="yes"/>
      <point x="708.1" y="454.1" type="line"/>
      <point x="711.7" y="386.5"/>
      <point x="733.8" y="301.2"/>
      <point x="747.8" y="268.3" type="curve"/>
      <point x="665.9" y="202.2"/>
      <point x="538.7" y="153.4"/>
    </contour>
    <contour>
      <point x="943.0" y="619.3" type="curve"/>
      <point x="965.9" y="860.6"/>
      <point x="1101.5" y="930.7"/>
      <point x="1219.7" y="930.7" type="curve" smooth="yes"/>
      <point x="1326.7" y="930.7"/>
      <point x="1386.8" y="875.9"/>
      <point x="1386.8" y="776.5" type="curve" smooth="yes"/>
      <point x="1386.8" y="678.2"/>
      <point x="1283.9" y="619.3"/>
    </contour>
  </outline>
</glyph>
<glyph name="eth" format="1">
  <advance width="1099.2"/>
  <unicode hex="00F0"/>
  <outline>
    <contour>
      <point x="570.3" y="-19.1" type="curve" smooth="yes"/>
      <point x="882.6" y="-19.1"/>
      <point x="1076.4" y="158.6"/>
      <point x="1076.4" y="449.2" type="curve"/>
      <point x="1075.5" y="588.4"/>
      <point x="1037.3" y="713.5"/>
      <point x="979.5" y="813.2" type="curve"/>
      <point x="904.9" y="938.4"/>
      <point x="801.5" y="1051.8"/>
      <point x="684.1" y="1183.6" type="curve"/>
      <point x="887.4" y="1263.9" type="line"/>
      <point x="823.8" y="1432.6" type="line"/>
      <point x="562.4" y="1327.6" type="line"/>
      <point x="451.2" y="1437.4" type="line"/>
      <point x="164.1" y="1437.4" type="line"/>
      <point x="362.1" y="1243.4" type="line"/>
      <point x="187.9" y="1173.7" type="line"/>
      <point x="249.5" y="1006.7" type="line"/>
      <point x="486.5" y="1100.4" type="line"/>
      <point x="541.7" y="1043.6"/>
      <point x="642.5" y="934.7"/>
      <point x="684.4" y="877.8" type="curve"/>
      <point x="644.9" y="892.8"/>
      <point x="584.9" y="910.8"/>
      <point x="530.4" y="910.8" type="curve" smooth="yes"/>
      <point x="249.6" y="910.8"/>
      <point x="59.9" y="730.2"/>
      <point x="59.9" y="457.4" type="curve" smooth="yes"/>
      <point x="59.9" y="180.8"/>
      <point x="263.4" y="-19.1"/>
    </contour>
    <contour>
      <point x="577.2" y="175.1" type="curve" smooth="yes"/>
      <point x="395.9" y="175.1"/>
      <point x="292.6" y="297.3"/>
      <point x="292.6" y="458.1" type="curve" smooth="yes"/>
      <point x="292.6" y="626.8"/>
      <point x="392.5" y="736.9"/>
      <point x="571.1" y="736.9" type="curve" smooth="yes"/>
      <point x="751.4" y="736.9"/>
      <point x="854.7" y="618.6"/>
      <point x="854.7" y="456.0" type="curve" smooth="yes"/>
      <point x="854.7" y="286.0"/>
      <point x="755.1" y="175.1"/>
    </contour>
  </outline>
</glyph>
<glyph name="divide" format="1">
  <advance width="1261.2"/>
  <unicode hex="00F7"/>
  <outline>
    <contour>
      <point x="499.9" y="20.8" type="line"/>
      <point x="761.1" y="20.8" type="line"/>
      <point x="761.1" y="284.4" type="line"/>
      <point x="499.9" y="284.4" type="line"/>
    </contour>
    <contour>
      <point x="117.2" y="470.1" type="line"/>
      <point x="1141.8" y="470.1" type="line"/>
      <point x="1141.8" y="657.5" type="line"/>
      <point x="117.2" y="657.5" type="line"/>
    </contour>
    <contour>
      <point x="499.9" y="841.9" type="line"/>
      <point x="768.3" y="841.9" type="line"/>
      <point x="768.3" y="1094.6" type="line"/>
      <point x="499.9" y="1094.6" type="line"/>
    </contour>
  </outline>
</glyph>
<glyph name="oslash" format="1">
  <advance width="1158.0"/>
  <unicode hex="00F8"/>
  <outline>
    <contour>
      <point x="290.4" y="-148.3" type="line"/>
      <point x="1006.8" y="1165.3" type="line"/>
      <point x="929.0" y="1210.8" type="line"/>
      <point x="218.6" y="-102.7" type="line"/>
    </contour>
    <component base="o"/>
  </outline>
</glyph>
<glyph name="Dcroat" format="1">
  <advance width="1460.1"/>
  <unicode hex="0110"/>
  <outline>
    <contour>
      <point x="60.1" y="686.3" type="line"/>
      <point x="60.1" y="775.5" type="line"/>
      <point x="572.1" y="775.5" type="line"/>
      <point x="572.1" y="686.3" type="line"/>
    </contour>
    <component base="D"/>
  </outline>
</glyph>
<glyph name="Hbar" format="1">
  <advance width="1347.7"/>
  <unicode hex="0126"/>
  <outline>
    <contour>
      <point x="132.3" y="0.0" type="line"/>
      <point x="132.3" y="1118.8" type="line"/>
      <point x="51.8" y="1118.8" type="line"/>
      <point x="51.8" y="1255.6" type="line"/>
      <point x="132.3" y="1255.6" type="line"/>
      <point x="132.3" y="1409.2" type="line"/>
      <point x="383.8" y="1409.2" type="line"/>
      <point x="383.8" y="1255.6" type="line"/>
      <point x="1037.8" y="1255.6" type="line"/>
      <point x="1037.8" y="1409.2" type="line"/>
      <point x="1291.1" y="1409.2" type="line"/>
      <point x="1291.1" y="1255.6" type="line"/>
      <point x="1371.6" y="1255.6" type="line"/>
      <point x="1371.6" y="1118.8" type="line"/>
      <point x="1291.1" y="1118.8" type="line"/>
      <point x="1291.1" y="0.0" type="line"/>
      <point x="1037.8" y="0.0" type="line"/>
      <point x="1037.8" y="632.9" type="line"/>
      <point x="383.8" y="632.9" type="line"/>
      <point x="383.8" y="0.0" type="line"/>
    </contour>
    <contour>
      <point x="383.8" y="825.7" type="line"/>
      <point x="1037.8" y="825.7" type="line"/>
      <point x="1037.8" y="1118.8" type="line"/>
      <point x="383.8" y="1118.8" type="line"/>
    </contour>
  </outline>
</glyph>
<glyph name="hbar" format="1">
  <advance width="1065.7"/>
  <unicode hex="0127"/>
  <outline>
    <contour>
      <point x="113.1" y="0.0" type="line"/>
      <point x="355.1" y="0.0" type="line"/>
      <point x="355.1" y="720.5" type="line"/>
      <point x="396.0" y="811.4"/>
      <point x="501.7" y="896.3"/>
      <point x="628.9" y="896.3" type="curve" smooth="yes"/>
      <point x="765.3" y="896.3"/>
      <point x="794.9" y="814.3"/>
      <point x="794.9" y="628.4" type="curve" smooth="yes"/>
      <point x="794.9" y="0.0" type="line"/>
      <point x="1036.0" y="0.0" type="line"/>
      <point x="1036.0" y="645.3" type="line" smooth="yes"/>
      <point x="1036.0" y="959.9"/>
      <point x="890.6" y="1086.1"/>
      <point x="686.1" y="1086.1" type="curve" smooth="yes"/>
      <point x="550.6" y="1086.1"/>
      <point x="438.5" y="1040.1"/>
      <point x="355.1" y="956.2" type="curve"/>
      <point x="355.1" y="1173.8" type="line"/>
      <point x="626.9" y="1173.8" type="line"/>
      <point x="626.9" y="1315.7" type="line"/>
      <point x="355.1" y="1315.7" type="line"/>
      <point x="355.1" y="1456.5" type="line"/>
      <point x="113.1" y="1437.4" type="line"/>
      <point x="113.1" y="1315.7" type="line"/>
      <point x="19.9" y="1315.7" type="line"/>
      <point x="19.9" y="1173.8" type="line"/>
      <point x="113.1" y="1173.8" type="line"/>
    </contour>
  </outline>
</glyph>
<glyph name="dotlessi" format="1">
  <advance width="507.7"/>
  <unicode hex="0131"/>
  <outline>
    <contour>
      <point x="145.2" y="0.0" type="line"/>
      <point x="396.3" y="0.0" type="line"/>
      <point x="396.3" y="1065.8" type="line"/>
      <point x="145.2" y="1065.8" type="line"/>
    </contour>
  </outline>
</glyph>
<glyph name="Eng" format="1">
  <advance width="1263.3"/>
  <unicode hex="014A"/>
  <outline>
    <contour>
      <point x="782.2" y="-319.4" type="curve" smooth="yes"/>
      <point x="772.6" y="-319.4"/>
      <point x="729.5" y="-319.2"/>
      <point x="678.1" y="-313.9" type="curve"/>
      <point x="657.0" y="-92.6" type="line"/>
      <point x="714.8" y="-96.4"/>
      <point x="770.2" y="-97.4"/>
      <point x="777.8" y="-97.4" type="curve" smooth="yes"/>
      <point x="962.6" y="-97.4"/>
      <point x="989.6" y="-39.6"/>
      <point x="989.6" y="149.3" type="curve" smooth="yes"/>
      <point x="989.6" y="917.4" type="line" smooth="yes"/>
      <point x="989.6" y="1146.9"/>
      <point x="925.9" y="1229.6"/>
      <point x="762.2" y="1229.6" type="curve" smooth="yes"/>
      <point x="633.7" y="1229.6"/>
      <point x="472.1" y="1160.1"/>
      <point x="387.6" y="1017.9" type="curve"/>
      <point x="387.6" y="0.0" type="line"/>
      <point x="109.1" y="0.0" type="line"/>
      <point x="108.7" y="1415.1" type="line"/>
      <point x="357.5" y="1415.1" type="line"/>
      <point x="379.5" y="1252.5" type="line"/>
      <point x="491.1" y="1373.2"/>
      <point x="670.8" y="1437.3"/>
      <point x="823.1" y="1437.3" type="curve" smooth="yes"/>
      <point x="1118.9" y="1437.3"/>
      <point x="1268.9" y="1245.9"/>
      <point x="1268.9" y="927.5" type="curve" smooth="yes"/>
      <point x="1268.9" y="151.6" type="line" smooth="yes"/>
      <point x="1268.9" y="-153.0"/>
      <point x="1141.1" y="-319.4"/>
    </contour>
  </outline>
</glyph>
<glyph name="eng" format="1">
  <advance width="1058.5"/>
  <unicode hex="014B"/>
  <outline>
    <contour>
      <point x="614.4" y="-339.5" type="line"/>
      <point x="680.6" y="-339.5" type="line" smooth="yes"/>
      <point x="1005.4" y="-339.5"/>
      <point x="1065.1" y="-185.3"/>
      <point x="1066.0" y="113.8" type="curve"/>
      <point x="1066.0" y="668.4" type="line" smooth="yes"/>
      <point x="1066.0" y="935.9"/>
      <point x="950.1" y="1091.2"/>
      <point x="703.6" y="1091.2" type="curve" smooth="yes"/>
      <point x="555.0" y="1091.2"/>
      <point x="449.2" y="1027.1"/>
      <point x="366.5" y="940.5" type="curve"/>
      <point x="342.4" y="1065.8" type="line"/>
      <point x="134.2" y="1065.8" type="line"/>
      <point x="134.2" y="0.0" type="line"/>
      <point x="388.5" y="0.0" type="line"/>
      <point x="388.5" y="530.9" type="line" smooth="yes"/>
      <point x="388.5" y="614.9"/>
      <point x="391.5" y="688.0"/>
      <point x="404.1" y="745.6" type="curve"/>
      <point x="441.1" y="832.7"/>
      <point x="526.1" y="895.7"/>
      <point x="641.3" y="895.7" type="curve" smooth="yes"/>
      <point x="778.7" y="895.7"/>
      <point x="810.8" y="805.3"/>
      <point x="811.7" y="646.1" type="curve"/>
      <point x="811.7" y="64.4" type="line" smooth="yes"/>
      <point x="811.7" y="-112.6"/>
      <point x="796.4" y="-145.9"/>
      <point x="649.2" y="-145.9" type="curve" smooth="yes"/>
      <point x="590.1" y="-145.9" type="line"/>
    </contour>
  </outline>
</glyph>
<glyph name="OE" format="1">
  <advance width="1924.9"/>
  <unicode hex="0152"/>
  <outline>
    <contour>
      <point x="772.5" y="-18.8" type="curve" smooth="yes"/>
      <point x="831.8" y="-18.8"/>
      <point x="917.7" y="47.0"/>
      <point x="989.7" y="139.9" type="curve"/>
      <point x="991.2" y="182.4"/>
      <point x="1017.6" y="153.7"/>
      <point x="1056.1" y="153.7" type="curve"/>
      <point x="1071.6" y="153.7"/>
      <point x="1894.0" y="148.4"/>
      <point x="1899.9" y="141.7" type="curve"/>
      <point x="1917.0" y="343.2" type="line"/>
      <point x="1379.3" y="343.2" type="line"/>
      <point x="1377.9" y="700.0" type="line"/>
      <point x="1861.5" y="700.0" type="line"/>
      <point x="1861.5" y="834.4" type="line"/>
      <point x="1373.8" y="834.4" type="line"/>
      <point x="1373.8" y="1140.8" type="line"/>
      <point x="1885.8" y="1140.8" type="line"/>
      <point x="1902.9" y="1275.1" type="line"/>
      <point x="1148.2" y="1275.1" type="line"/>
      <point x="1147.0" y="1207.5" type="line"/>
      <point x="1066.9" y="1258.8"/>
      <point x="914.4" y="1287.6"/>
      <point x="799.2" y="1287.6" type="curve" smooth="yes"/>
      <point x="446.4" y="1287.6"/>
      <point x="180.9" y="1022.9"/>
      <point x="178.2" y="647.6" type="curve"/>
      <point x="177.0" y="263.7"/>
      <point x="416.0" y="-18.8"/>
    </contour>
    <contour>
      <point x="771.1" y="184.0" type="curve" smooth="yes"/>
      <point x="522.7" y="184.9"/>
      <point x="414.3" y="407.0"/>
      <point x="417.6" y="650.9" type="curve"/>
      <point x="419.4" y="893.0"/>
      <point x="552.6" y="1225.8"/>
      <point x="799.2" y="1225.8" type="curve" smooth="yes"/>
      <point x="924.5" y="1231.5"/>
      <point x="1010.9" y="1189.4"/>
      <point x="1058.8" y="1130.0" type="curve"/>
      <point x="1024.5" y="1130.0"/>
      <point x="1003.0" y="388.4"/>
      <point x="1001.8" y="350.1" type="curve"/>
      <point x="944.2" y="259.6"/>
      <point x="856.9" y="184.6"/>
    </contour>
  </outline>
</glyph>
<glyph name="uni0237" format="1">
  <advance width="546.8"/>
  <unicode hex="0237"/>
  <outline>
    <contour>
      <point x="-10.4" y="-406.1" type="line"/>
      <point x="51.7" y="-406.1" type="line" smooth="yes"/>
      <point x="374.3" y="-406.1"/>
      <point x="437.6" y="-269.2"/>
      <point x="437.6" y="18.8" type="curve" smooth="yes"/>
      <point x="437.6" y="1068.7" type="line"/>
      <point x="183.9" y="1068.7" type="line"/>
      <point x="183.9" y="-17.1" type="line" smooth="yes"/>
      <point x="183.9" y="-170.7"/>
      <point x="175.4" y="-213.1"/>
      <point x="22.5" y="-213.1" type="curve" smooth="yes"/>
      <point x="-41.7" y="-213.1" type="line"/>
    </contour>
  </outline>
</glyph>
<glyph name="uni02BC" format="1">
  <advance width="359.5"/>
  <unicode hex="02BC"/>
  <outline>
    <contour>
      <point x="101.8" y="945.1" type="line"/>
      <point x="246.7" y="945.1" type="line"/>
      <point x="313.3" y="1441.0" type="line"/>
      <point x="111.9" y="1441.0" type="line"/>
    </contour>
  </outline>
</glyph>
<glyph name="circumflex" format="1">
  <advance width="693.7"/>
  <unicode hex="02C6"/>
  <outline>
    <contour>
      <point x="6.8" y="1115.6" type="line"/>
      <point x="185.6" y="1115.6" type="line"/>
      <point x="335.9" y="1329.6" type="line"/>
      <point x="500.1" y="1115.6" type="line"/>
      <point x="683.3" y="1115.6" type="line"/>
      <point x="446.7" y="1500.6" type="line"/>
      <point x="243.4" y="1500.6" type="line"/>
    </contour>
  </outline>
</glyph>
<glyph name="caron" format="1">
  <advance width="691.9"/>
  <unicode hex="02C7"/>
  <outline>
    <contour>
      <point x="245.2" y="1145.3" type="line"/>
      <point x="442.2" y="1145.3" type="line"/>
      <point x="691.4" y="1500.6" type="line"/>
      <point x="490.1" y="1500.6" type="line"/>
      <point x="332.6" y="1308.2" type="line"/>
      <point x="194.5" y="1500.6" type="line"/>
      <point x="-3.1" y="1500.6" type="line"/>
    </contour>
  </outline>
</glyph>
<glyph name="breve" format="1">
  <advance width="639.2"/>
  <unicode hex="02D8"/>
  <outline>
    <contour>
      <point x="318.7" y="1179.7" type="curve" smooth="yes"/>
      <point x="474.6" y="1179.7"/>
      <point x="594.8" y="1259.6"/>
      <point x="594.8" y="1432.4" type="curve"/>
      <point x="428.6" y="1432.4" type="line"/>
      <point x="428.6" y="1363.7"/>
      <point x="395.3" y="1336.0"/>
      <point x="318.7" y="1336.0" type="curve" smooth="yes"/>
      <point x="242.1" y="1336.0"/>
      <point x="209.5" y="1363.7"/>
      <point x="209.5" y="1432.4" type="curve"/>
      <point x="44.0" y="1432.4" type="line"/>
      <point x="44.0" y="1260.4"/>
      <point x="163.8" y="1179.7"/>
    </contour>
  </outline>
</glyph>
<glyph name="dotaccent" format="1">
  <advance width="458.5"/>
  <unicode hex="02D9"/>
  <outline>
    <contour>
      <point x="129.7" y="1207.3" type="line"/>
      <point x="329.6" y="1207.3" type="line"/>
      <point x="329.6" y="1422.9" type="line"/>
      <point x="129.7" y="1422.9" type="line"/>
    </contour>
  </outline>
</glyph>
<glyph name="ring" format="1">
  <advance width="585.0"/>
  <unicode hex="02DA"/>
  <outline>
    <contour>
      <point x="292.5" y="1212.2" type="curve" smooth="yes"/>
      <point x="233.0" y="1212.2"/>
      <point x="202.5" y="1257.2"/>
      <point x="202.5" y="1312.2" type="curve" smooth="yes"/>
      <point x="202.5" y="1362.7"/>
      <point x="236.6" y="1411.2"/>
      <point x="292.5" y="1411.2" type="curve" smooth="yes"/>
      <point x="350.2" y="1411.2"/>
      <point x="383.5" y="1363.6"/>
      <point x="383.5" y="1312.2" type="curve" smooth="yes"/>
      <point x="383.5" y="1258.1"/>
      <point x="350.2" y="1212.2"/>
    </contour>
    <contour>
      <point x="292.5" y="1110.5" type="curve" smooth="yes"/>
      <point x="423.4" y="1110.5"/>
      <point x="503.9" y="1205.7"/>
      <point x="503.9" y="1312.3" type="curve" smooth="yes"/>
      <point x="503.9" y="1418.0"/>
      <point x="426.1" y="1513.2"/>
      <point x="292.5" y="1513.2" type="curve" smooth="yes"/>
      <point x="160.7" y="1513.2"/>
      <point x="81.1" y="1418.9"/>
      <point x="81.1" y="1312.3" type="curve" smooth="yes"/>
      <point x="81.1" y="1205.7"/>
      <point x="161.6" y="1110.5"/>
    </contour>
  </outline>
</glyph>
<glyph name="ogonek" format="1">
  <advance width="513.5"/>
  <unicode hex="02DB"/>
  <outline>
    <contour>
      <point x="482.3" y="-389.3" type="curve"/>
      <point x="482.3" y="-389.3"/>
      <point x="475.9" y="-248.0"/>
      <point x="475.1" y="-248.0" type="curve" smooth="yes"/>
      <point x="461.2" y="-253.5"/>
      <point x="402.4" y="-278.8"/>
      <point x="349.2" y="-278.8" type="curve" smooth="yes"/>
      <point x="308.5" y="-278.8"/>
      <point x="279.9" y="-244.6"/>
      <point x="279.9" y="-205.8" type="curve" smooth="yes"/>
      <point x="279.9" y="-145.3"/>
      <point x="320.6" y="-57.5"/>
      <point x="395.9" y="0.0" type="curve"/>
      <point x="287.6" y="0.0" type="line"/>
      <point x="208.5" y="-42.7"/>
      <point x="102.2" y="-127.0"/>
      <point x="102.2" y="-253.5" type="curve" smooth="yes"/>
      <point x="102.2" y="-368.9"/>
      <point x="192.7" y="-425.2"/>
      <point x="304.0" y="-425.2" type="curve" smooth="yes"/>
      <point x="364.2" y="-425.2"/>
      <point x="428.0" y="-410.3"/>
    </contour>
  </outline>
</glyph>
<glyph name="tilde" format="1">
  <advance width="716.4"/>
  <unicode hex="02DC"/>
  <outline>
    <contour>
      <point x="175.3" y="1175.0" type="line"/>
      <point x="190.1" y="1244.0"/>
      <point x="215.1" y="1268.6"/>
      <point x="248.4" y="1268.6" type="curve" smooth="yes"/>
      <point x="313.6" y="1268.6"/>
      <point x="412.0" y="1175.0"/>
      <point x="521.1" y="1175.0" type="curve" smooth="yes"/>
      <point x="655.3" y="1175.0"/>
      <point x="701.5" y="1306.4"/>
      <point x="701.5" y="1418.6" type="curve"/>
      <point x="576.0" y="1418.6" type="line"/>
      <point x="562.9" y="1358.8"/>
      <point x="543.6" y="1340.4"/>
      <point x="516.9" y="1340.4" type="curve" smooth="yes"/>
      <point x="461.7" y="1340.4"/>
      <point x="374.9" y="1418.7"/>
      <point x="245.0" y="1418.7" type="curve" smooth="yes"/>
      <point x="98.7" y="1418.7"/>
      <point x="50.2" y="1294.1"/>
      <point x="50.2" y="1175.0" type="curve"/>
    </contour>
  </outline>
</glyph>
<glyph name="hungarumlaut" format="1">
  <advance width="849.8"/>
  <unicode hex="02DD"/>
  <outline>
    <contour>
      <point x="126.9" y="1117.9" type="line"/>
      <point x="267.5" y="1117.9" type="line"/>
      <point x="582.9" y="1469.4" type="line"/>
      <point x="357.4" y="1469.4" type="line"/>
    </contour>
    <contour>
      <point x="407.4" y="1117.9" type="line"/>
      <point x="546.5" y="1117.9" type="line"/>
      <point x="876.0" y="1469.4" type="line"/>
      <point x="646.7" y="1469.4" type="line"/>
    </contour>
  </outline>
</glyph>
<glyph name="uni0307" format="1">
  <advance width="435.0"/>
  <unicode hex="0307"/>
  <outline>
    <contour>
      <point x="135.1" y="1167.5" type="line"/>
      <point x="335.0" y="1167.5" type="line"/>
      <point x="335.0" y="1384.3" type="line"/>
      <point x="135.1" y="1384.3" type="line"/>
    </contour>
  </outline>
</glyph>
<glyph name="uni0311" format="1">
  <advance width="633.6"/>
  <unicode hex="0311"/>
  <outline>
    <contour>
      <point x="59.8" y="1191.0" type="curve"/>
      <point x="225.9" y="1191.0" type="line"/>
      <point x="225.9" y="1257.2"/>
      <point x="276.7" y="1287.7"/>
      <point x="333.6" y="1287.7" type="curve" smooth="yes"/>
      <point x="391.2" y="1287.7"/>
      <point x="444.2" y="1258.0"/>
      <point x="444.2" y="1191.0" type="curve"/>
      <point x="610.5" y="1191.0" type="line"/>
      <point x="610.5" y="1351.2"/>
      <point x="472.5" y="1424.5"/>
      <point x="336.9" y="1424.5" type="curve" smooth="yes"/>
      <point x="199.7" y="1424.5"/>
      <point x="59.8" y="1350.4"/>
    </contour>
  </outline>
</glyph>
<glyph name="uni031B" format="1">
  <advance width="511.1"/>
  <unicode hex="031B"/>
  <outline>
    <contour>
      <point x="203.7" y="506.0" type="line"/>
      <point x="220.3" y="464.4"/>
      <point x="231.5" y="419.6"/>
      <point x="231.5" y="380.6" type="curve" smooth="yes"/>
      <point x="231.5" y="322.4"/>
      <point x="205.4" y="274.1"/>
      <point x="121.3" y="274.1" type="curve" smooth="yes"/>
      <point x="120.4" y="274.1"/>
      <point x="112.3" y="274.2"/>
      <point x="111.3" y="274.3" type="curve"/>
      <point x="111.3" y="171.9" type="line"/>
      <point x="130.6" y="169.8"/>
      <point x="148.1" y="168.6"/>
      <point x="166.2" y="168.6" type="curve" smooth="yes"/>
      <point x="310.6" y="168.6"/>
      <point x="365.6" y="236.9"/>
      <point x="365.6" y="331.3" type="curve" smooth="yes"/>
      <point x="365.6" y="382.1"/>
      <point x="347.5" y="443.2"/>
      <point x="319.8" y="506.0" type="curve"/>
    </contour>
  </outline>
</glyph>
<glyph name="Delta" format="1">
  <advance width="1162.1"/>
  <unicode hex="0394"/>
  <outline>
    <contour>
      <point x="2.9" y="0.0" type="line"/>
      <point x="504.2" y="1444.3" type="line"/>
      <point x="725.9" y="1444.3" type="line"/>
      <point x="1226.5" y="0.0" type="line"/>
    </contour>
    <contour>
      <point x="286.8" y="188.3" type="line"/>
      <point x="950.0" y="188.3" type="line"/>
      <point x="615.4" y="1200.4" type="line"/>
    </contour>
  </outline>
</glyph>
<glyph name="Lambda" format="1">
  <advance width="1162.1"/>
  <unicode hex="039B"/>
  <outline>
    <contour>
      <point x="2.1" y="0.0" type="line"/>
      <point x="522.3" y="1439.2" type="line"/>
      <point x="706.2" y="1439.2" type="line"/>
      <point x="1226.5" y="0.0" type="line"/>
      <point x="1038.3" y="0.0" type="line"/>
      <point x="614.6" y="1221.2" type="line"/>
      <point x="195.3" y="0.0" type="line"/>
    </contour>
  </outline>
</glyph>
<glyph name="Pi" format="1">
  <advance width="1306.2"/>
  <unicode hex="03A0"/>
  <outline>
    <contour>
      <point x="133.3" y="0.0" type="line"/>
      <point x="133.3" y="1439.2" type="line"/>
      <point x="1243.8" y="1439.2" type="line"/>
      <point x="1243.8" y="0.0" type="line"/>
      <point x="1060.5" y="0.0" type="line"/>
      <point x="1060.5" y="1279.8" type="line"/>
      <point x="316.9" y="1279.8" type="line"/>
      <point x="316.9" y="0.0" type="line"/>
    </contour>
  </outline>
</glyph>
<glyph name="Sigma" format="1">
  <advance width="1028.2"/>
  <unicode hex="03A3"/>
  <outline>
    <contour>
      <point x="135.8" y="0.0" type="line"/>
      <point x="135.8" y="1412.4" type="line"/>
      <point x="1006.7" y="1412.4" type="line"/>
      <point x="995.5" y="1195.3" type="line"/>
      <point x="418.1" y="1195.3" type="line"/>
      <point x="418.1" y="839.7" type="line"/>
      <point x="962.9" y="839.7" type="line"/>
      <point x="962.9" y="632.2" type="line"/>
      <point x="418.1" y="632.2" type="line"/>
      <point x="418.1" y="217.1" type="line"/>
      <point x="1015.0" y="217.1" type="line"/>
      <point x="1007.9" y="0.0" type="line"/>
    </contour>
  </outline>
</glyph>
<glyph name="Phi" format="1">
  <advance width="1488.1"/>
  <unicode hex="03A6"/>
  <outline>
    <contour>
      <point x="690.0" y="0.0" type="line"/>
      <point x="690.0" y="162.5" type="line"/>
      <point x="301.4" y="195.8"/>
      <point x="92.7" y="431.7"/>
      <point x="92.7" y="741.9" type="curve" smooth="yes"/>
      <point x="92.7" y="1055.5"/>
      <point x="310.3" y="1275.7"/>
      <point x="690.0" y="1307.1" type="curve"/>
      <point x="690.0" y="1439.2" type="line"/>
      <point x="871.7" y="1439.2" type="line"/>
      <point x="871.7" y="1307.1" type="line"/>
      <point x="1251.3" y="1277.6"/>
      <point x="1474.7" y="1058.2"/>
      <point x="1474.7" y="741.9" type="curve" smooth="yes"/>
      <point x="1474.7" y="432.3"/>
      <point x="1266.7" y="194.6"/>
      <point x="871.7" y="162.5" type="curve"/>
      <point x="871.7" y="0.0" type="line"/>
    </contour>
    <contour>
      <point x="690.0" y="329.6" type="curve"/>
      <point x="690.0" y="1140.1" type="line"/>
      <point x="421.6" y="1112.3"/>
      <point x="287.2" y="961.3"/>
      <point x="287.2" y="741.9" type="curve" smooth="yes"/>
      <point x="287.2" y="531.4"/>
      <point x="408.7" y="361.1"/>
    </contour>
    <contour>
      <point x="871.7" y="329.6" type="line"/>
      <point x="1152.7" y="359.2"/>
      <point x="1279.4" y="528.7"/>
      <point x="1279.4" y="741.9" type="curve" smooth="yes"/>
      <point x="1279.4" y="958.7"/>
      <point x="1145.9" y="1113.3"/>
      <point x="871.7" y="1140.1" type="curve"/>
    </contour>
  </outline>
</glyph>
<glyph name="Omega" format="1">
  <advance width="1563.8"/>
  <unicode hex="03A9"/>
  <outline>
    <contour>
      <point x="817.8" y="210.6" type="curve" smooth="yes"/>
      <point x="1066.9" y="210.6"/>
      <point x="1228.5" y="414.5"/>
      <point x="1228.5" y="707.7" type="curve" smooth="yes"/>
      <point x="1228.5" y="1006.7"/>
      <point x="1065.4" y="1208.7"/>
      <point x="817.9" y="1208.7" type="curve" smooth="yes"/>
      <point x="570.4" y="1208.7"/>
      <point x="405.2" y="1006.8"/>
      <point x="405.2" y="707.7" type="curve" smooth="yes"/>
      <point x="405.2" y="414.5"/>
      <point x="568.7" y="210.6"/>
    </contour>
    <contour>
      <point x="817.8" y="-19.2" type="curve" smooth="yes"/>
      <point x="401.7" y="-19.2"/>
      <point x="113.9" y="256.4"/>
      <point x="113.9" y="709.6" type="curve" smooth="yes"/>
      <point x="113.9" y="1167.5"/>
      <point x="404.3" y="1440.4"/>
      <point x="817.9" y="1440.4" type="curve" smooth="yes"/>
      <point x="1230.7" y="1440.4"/>
      <point x="1519.1" y="1167.2"/>
      <point x="1519.1" y="709.5" type="curve" smooth="yes"/>
      <point x="1519.1" y="257.0"/>
      <point x="1233.4" y="-19.2"/>
    </contour>
  </outline>
</glyph>
<glyph name="rho" format="1">
  <advance width="1122.4"/>
  <unicode hex="03C1"/>
  <outline>
    <contour>
      <point x="136.3" y="-433.2" type="line"/>
      <point x="389.0" y="-420.7" type="line"/>
      <point x="389.0" y="-23.1" type="line" smooth="yes"/>
      <point x="389.0" y="12.0"/>
      <point x="387.1" y="59.9"/>
      <point x="384.0" y="110.7" type="curve"/>
      <point x="454.0" y="31.8"/>
      <point x="559.1" y="-19.6"/>
      <point x="683.5" y="-19.6" type="curve" smooth="yes"/>
      <point x="957.0" y="-19.6"/>
      <point x="1124.6" y="216.5"/>
      <point x="1124.6" y="536.6" type="curve" smooth="yes"/>
      <point x="1124.6" y="847.5"/>
      <point x="967.7" y="1091.2"/>
      <point x="701.4" y="1091.2" type="curve" smooth="yes"/>
      <point x="565.4" y="1091.2"/>
      <point x="439.7" y="1022.8"/>
      <point x="378.3" y="940.2" type="curve"/>
      <point x="355.3" y="1066.6" type="line"/>
      <point x="136.3" y="1066.6" type="line"/>
    </contour>
    <contour>
      <point x="636.2" y="175.6" type="curve" smooth="yes"/>
      <point x="471.5" y="175.6"/>
      <point x="387.3" y="287.1"/>
      <point x="387.3" y="554.6" type="curve"/>
      <point x="389.0" y="791.9"/>
      <point x="476.7" y="895.8"/>
      <point x="633.0" y="895.8" type="curve" smooth="yes"/>
      <point x="778.9" y="895.8"/>
      <point x="872.8" y="783.3"/>
      <point x="872.8" y="539.3" type="curve" smooth="yes"/>
      <point x="872.8" y="301.2"/>
      <point x="780.7" y="175.6"/>
    </contour>
  </outline>
</glyph>
<glyph name="uni040A" format="1">
  <advance width="2065.5"/>
  <unicode hex="040A"/>
  <outline>
    <contour>
      <point x="1044.6" y="0.0" type="line"/>
      <point x="1576.9" y="0.0" type="line" smooth="yes"/>
      <point x="1878.4" y="0.0"/>
      <point x="2097.5" y="123.4"/>
      <point x="2097.5" y="413.9" type="curve" smooth="yes"/>
      <point x="2097.5" y="707.9"/>
      <point x="1903.6" y="826.4"/>
      <point x="1582.5" y="826.4" type="curve" smooth="yes"/>
      <point x="1243.5" y="826.4" type="line"/>
      <point x="1328.4" y="738.0" type="line"/>
      <point x="1328.6" y="1407.6" type="line"/>
      <point x="1044.6" y="1407.6" type="line"/>
      <point x="1044.6" y="751.8" type="line"/>
      <point x="1119.7" y="826.4" type="line"/>
      <point x="373.0" y="826.4" type="line"/>
      <point x="454.1" y="751.8" type="line"/>
      <point x="454.1" y="1407.6" type="line"/>
      <point x="170.1" y="1407.6" type="line"/>
      <point x="170.1" y="0.0" type="line"/>
      <point x="454.1" y="0.0" type="line"/>
      <point x="454.1" y="694.4" type="line"/>
      <point x="373.0" y="617.0" type="line"/>
      <point x="1126.2" y="617.0" type="line"/>
      <point x="1044.6" y="694.4" type="line"/>
    </contour>
    <contour>
      <point x="1329.3" y="100.3" type="line"/>
      <point x="1329.3" y="702.1" type="line"/>
      <point x="1245.2" y="617.0" type="line"/>
      <point x="1566.2" y="617.0" type="line" smooth="yes"/>
      <point x="1736.4" y="617.0"/>
      <point x="1814.3" y="566.9"/>
      <point x="1814.3" y="416.4" type="curve" smooth="yes"/>
      <point x="1814.3" y="262.7"/>
      <point x="1711.6" y="212.9"/>
      <point x="1543.3" y="212.9" type="curve" smooth="yes"/>
      <point x="1237.0" y="212.9" type="line"/>
    </contour>
  </outline>
</glyph>
<glyph name="uni0411" format="1">
  <advance width="1235.1"/>
  <unicode hex="0411"/>
  <outline>
    <contour>
      <point x="168.8" y="0.0" type="line"/>
      <point x="725.6" y="0.0" type="line" smooth="yes"/>
      <point x="1027.1" y="0.0"/>
      <point x="1245.2" y="124.6"/>
      <point x="1245.2" y="415.1" type="curve" smooth="yes"/>
      <point x="1245.2" y="709.1"/>
      <point x="1051.4" y="829.9"/>
      <point x="730.3" y="829.9" type="curve" smooth="yes"/>
      <point x="353.8" y="829.9" type="line"/>
      <point x="452.8" y="749.1" type="line"/>
      <point x="452.8" y="1297.2" type="line"/>
      <point x="370.2" y="1212.7" type="line"/>
      <point x="1092.7" y="1212.7" type="line"/>
      <point x="1092.7" y="1422.8" type="line"/>
      <point x="168.8" y="1422.8" type="line"/>
    </contour>
    <contour>
      <point x="452.8" y="101.3" type="line"/>
      <point x="452.8" y="705.8" type="line"/>
      <point x="353.6" y="616.1" type="line"/>
      <point x="714.0" y="616.1" type="line" smooth="yes"/>
      <point x="883.4" y="616.1"/>
      <point x="960.3" y="565.2"/>
      <point x="960.3" y="414.7" type="curve" smooth="yes"/>
      <point x="960.3" y="261.0"/>
      <point x="858.3" y="213.7"/>
      <point x="691.1" y="213.7" type="curve" smooth="yes"/>
      <point x="361.7" y="213.7" type="line"/>
    </contour>
  </outline>
</glyph>
<glyph name="uni0414" format="1">
  <advance width="1463"/>
  <unicode hex="0414"/>
  <outline>
    <contour>
      <point x="27" y="-294" type="line"/>
      <point x="27" y="88" type="line"/>
      <point x="187" y="88" type="line"/>
      <point x="279" y="153"/>
      <point x="321" y="376"/>
      <point x="377" y="1090" type="curve" smooth="yes"/>
      <point x="404" y="1448" type="line"/>
      <point x="1233" y="1448" type="line"/>
      <point x="1233" y="88" type="line"/>
      <point x="1366" y="88" type="line"/>
      <point x="1366" y="-294" type="line"/>
      <point x="1257" y="-294" type="line"/>
      <point x="1257" y="0" type="line"/>
      <point x="138" y="0" type="line"/>
      <point x="138" y="-294" type="line"/>
    </contour>
    <contour>
      <point x="296" y="33" type="curve"/>
      <point x="261" y="88" type="line"/>
      <point x="1151" y="88" type="line"/>
      <point x="1112" y="88" type="line"/>
      <point x="1111" y="1419" type="line"/>
      <point x="1172" y="1361" type="line"/>
      <point x="456" y="1360" type="line"/>
      <point x="520" y="1404" type="line"/>
      <point x="491" y="1079" type="line"/>
      <point x="451" y="578"/>
      <point x="422" y="158"/>
    </contour>
  </outline>
</glyph>
<glyph name="uni041B" format="1">
  <advance width="1469.3"/>
  <unicode hex="041B"/>
  <outline>
    <contour>
      <point x="-104.6" y="-24.7" type="line"/>
      <point x="5.9" y="-24.7" type="line" smooth="yes"/>
      <point x="299.7" y="-24.7"/>
      <point x="467.4" y="144.9"/>
      <point x="467.4" y="471.5" type="curve" smooth="yes"/>
      <point x="467.4" y="1272.8" type="line"/>
      <point x="387.3" y="1195.5" type="line"/>
      <point x="1163.5" y="1195.4" type="line"/>
      <point x="1081.0" y="1272.7" type="line"/>
      <point x="1081.0" y="-0.1" type="line"/>
      <point x="1364.8" y="-0.2" type="line"/>
      <point x="1365.0" y="1407.5" type="line"/>
      <point x="183.4" y="1407.6" type="line"/>
      <point x="183.4" y="460.2" type="line" smooth="yes"/>
      <point x="183.4" y="340.1"/>
      <point x="145.4" y="201.3"/>
      <point x="-31.0" y="201.3" type="curve" smooth="yes"/>
      <point x="-104.6" y="201.3" type="line"/>
    </contour>
  </outline>
</glyph>
<glyph name="uni041F" format="1">
  <advance width="1461.8"/>
  <unicode hex="041F"/>
  <outline>
    <contour>
      <point x="170.1" y="0.0" type="line"/>
      <point x="454.1" y="0.0" type="line"/>
      <point x="454.1" y="1272.8" type="line"/>
      <point x="373.9" y="1195.5" type="line"/>
      <point x="1156.0" y="1195.5" type="line"/>
      <point x="1073.5" y="1272.8" type="line"/>
      <point x="1073.5" y="0.0" type="line"/>
      <point x="1357.5" y="0.0" type="line"/>
      <point x="1357.5" y="1407.6" type="line"/>
      <point x="170.1" y="1407.6" type="line"/>
    </contour>
  </outline>
</glyph>
<glyph name="uni0424" format="1">
  <advance width="1602.4"/>
  <unicode hex="0424"/>
  <outline>
    <contour>
      <point x="723.6" y="0.0" type="line"/>
      <point x="964.6" y="0.0" type="line"/>
      <point x="964.6" y="147.0" type="line"/>
      <point x="1347.0" y="161.7"/>
      <point x="1618.1" y="386.3"/>
      <point x="1618.1" y="723.3" type="curve" smooth="yes"/>
      <point x="1618.1" y="1055.4"/>
      <point x="1343.7" y="1273.4"/>
      <point x="964.6" y="1286.3" type="curve"/>
      <point x="964.6" y="1409.2" type="line"/>
      <point x="723.6" y="1409.2" type="line"/>
      <point x="721.9" y="1286.0" type="line"/>
      <point x="337.0" y="1269.2"/>
      <point x="72.6" y="1046.1"/>
      <point x="72.6" y="723.3" type="curve" smooth="yes"/>
      <point x="72.6" y="392.1"/>
      <point x="340.3" y="164.0"/>
      <point x="721.9" y="147.2" type="curve"/>
    </contour>
    <contour>
      <point x="721.9" y="359.2" type="line"/>
      <point x="454.7" y="375.7"/>
      <point x="324.7" y="531.3"/>
      <point x="324.7" y="720.8" type="curve" smooth="yes"/>
      <point x="324.7" y="905.2"/>
      <point x="457.2" y="1057.7"/>
      <point x="721.9" y="1074.2" type="curve"/>
    </contour>
    <contour>
      <point x="964.6" y="358.9" type="curve"/>
      <point x="964.6" y="1074.4" type="line"/>
      <point x="1237.7" y="1059.2"/>
      <point x="1366.9" y="904.6"/>
      <point x="1366.9" y="720.8" type="curve" smooth="yes"/>
      <point x="1366.9" y="529.5"/>
      <point x="1234.4" y="374.1"/>
    </contour>
  </outline>
</glyph>
<glyph name="uni0427" format="1">
  <advance width="1523.0"/>
  <unicode hex="0427"/>
  <outline>
    <contour>
      <point x="973.2" y="14.1" type="line"/>
      <point x="1209.2" y="14.1" type="line"/>
      <point x="1209.2" y="1398.2" type="line"/>
      <point x="973.2" y="1398.2" type="line"/>
      <point x="973.2" y="761.6" type="line"/>
      <point x="942.7" y="750.0"/>
      <point x="705.1" y="729.9"/>
      <point x="682.9" y="729.9" type="curve" smooth="yes"/>
      <point x="470.2" y="729.9"/>
      <point x="375.0" y="766.5"/>
      <point x="375.0" y="957.4" type="curve" smooth="yes"/>
      <point x="375.0" y="1398.2" type="line"/>
      <point x="152.2" y="1398.2" type="line"/>
      <point x="152.2" y="934.2" type="line" smooth="yes"/>
      <point x="152.2" y="601.1"/>
      <point x="381.3" y="524.9"/>
      <point x="699.7" y="524.9" type="curve" smooth="yes"/>
      <point x="723.6" y="524.9"/>
      <point x="927.9" y="534.1"/>
      <point x="972.3" y="551.6" type="curve"/>
    </contour>
  </outline>
</glyph>
<glyph name="uni0428" format="1">
  <advance width="1714.5"/>
  <unicode hex="0428"/>
  <outline>
    <contour>
      <point x="164.3" y="0.0" type="line"/>
      <point x="1627.0" y="0.0" type="line"/>
      <point x="1627.0" y="1422.8" type="line"/>
      <point x="1362.8" y="1422.8" type="line"/>
      <point x="1362.8" y="194.9" type="line"/>
      <point x="1039.9" y="194.9" type="line"/>
      <point x="1039.9" y="1422.8" type="line"/>
      <point x="777.4" y="1422.8" type="line"/>
      <point x="777.4" y="194.9" type="line"/>
      <point x="426.7" y="194.9" type="line"/>
      <point x="426.7" y="1422.8" type="line"/>
      <point x="164.3" y="1422.8" type="line"/>
    </contour>
  </outline>
</glyph>
<glyph name="uni0429" format="1">
  <advance width="1755.1"/>
  <unicode hex="0429"/>
  <outline>
    <contour>
      <point x="1533.3" y="-313.7" type="line"/>
      <point x="1760.6" y="-313.7" type="line"/>
      <point x="1760.6" y="123.3" type="line"/>
      <point x="1631.5" y="123.3" type="line"/>
      <point x="1631.5" y="1422.8" type="line"/>
      <point x="1368.1" y="1422.8" type="line"/>
      <point x="1368.1" y="194.9" type="line"/>
      <point x="1044.4" y="194.9" type="line"/>
      <point x="1044.4" y="1422.8" type="line"/>
      <point x="781.9" y="1422.8" type="line"/>
      <point x="781.9" y="194.9" type="line"/>
      <point x="431.2" y="194.9" type="line"/>
      <point x="431.2" y="1422.8" type="line"/>
      <point x="168.8" y="1422.8" type="line"/>
      <point x="168.8" y="0.0" type="line"/>
      <point x="1532.5" y="0.0" type="line"/>
    </contour>
  </outline>
</glyph>
<glyph name="uni042A" format="1">
  <advance width="1353.9"/>
  <unicode hex="042A"/>
  <outline>
    <contour>
      <point x="205.5" y="0.0" type="line"/>
      <point x="727.3" y="0.0" type="line" smooth="yes"/>
      <point x="1028.8" y="0.0"/>
      <point x="1246.9" y="124.6"/>
      <point x="1246.9" y="415.1" type="curve" smooth="yes"/>
      <point x="1246.9" y="709.1"/>
      <point x="1053.2" y="829.9"/>
      <point x="732.1" y="829.9" type="curve" smooth="yes"/>
      <point x="390.5" y="829.9" type="line"/>
      <point x="489.5" y="749.1" type="line"/>
      <point x="490.4" y="1406.7" type="line"/>
      <point x="-41.4" y="1406.7" type="line"/>
      <point x="-42.3" y="1197.4" type="line"/>
      <point x="300.0" y="1197.6" type="line"/>
      <point x="205.5" y="1285.5" type="line"/>
    </contour>
    <contour>
      <point x="489.5" y="101.3" type="line"/>
      <point x="489.5" y="709.4" type="line"/>
      <point x="390.3" y="618.8" type="line"/>
      <point x="715.8" y="618.8" type="line" smooth="yes"/>
      <point x="885.2" y="618.8"/>
      <point x="962.0" y="567.9"/>
      <point x="962.0" y="417.4" type="curve" smooth="yes"/>
      <point x="962.0" y="263.7"/>
      <point x="860.0" y="213.7"/>
      <point x="692.8" y="213.7" type="curve" smooth="yes"/>
      <point x="397.5" y="213.7" type="line"/>
    </contour>
  </outline>
</glyph>
<glyph name="uni042C" format="1">
  <advance width="1269.3"/>
  <unicode hex="042C"/>
  <outline>
    <contour>
      <point x="168.8" y="0.0" type="line"/>
      <point x="708.5" y="0.0" type="line" smooth="yes"/>
      <point x="1010.0" y="0.0"/>
      <point x="1228.1" y="124.6"/>
      <point x="1228.1" y="415.1" type="curve" smooth="yes"/>
      <point x="1228.1" y="709.1"/>
      <point x="1034.3" y="829.9"/>
      <point x="713.2" y="829.9" type="curve" smooth="yes"/>
      <point x="353.8" y="829.9" type="line"/>
      <point x="452.8" y="749.1" type="line"/>
      <point x="453.7" y="1406.6" type="line"/>
      <point x="168.8" y="1405.7" type="line"/>
    </contour>
    <contour>
      <point x="452.8" y="101.3" type="line"/>
      <point x="452.8" y="709.4" type="line"/>
      <point x="353.6" y="618.8" type="line"/>
      <point x="696.9" y="618.8" type="line" smooth="yes"/>
      <point x="866.3" y="618.8"/>
      <point x="943.2" y="567.9"/>
      <point x="943.2" y="417.4" type="curve" smooth="yes"/>
      <point x="943.2" y="263.7"/>
      <point x="841.2" y="213.7"/>
      <point x="674.0" y="213.7" type="curve" smooth="yes"/>
      <point x="361.7" y="213.7" type="line"/>
    </contour>
  </outline>
</glyph>
<glyph name="uni0434" format="1">
  <advance width="1241"/>
  <unicode hex="0434"/>
  <outline>
    <contour>
      <point x="61" y="-275" type="line"/>
      <point x="61" y="76" type="line"/>
      <point x="164" y="76" type="line"/>
      <point x="246" y="100"/>
      <point x="267" y="175"/>
      <point x="304" y="278" type="curve"/>
      <point x="444" y="1057" type="line"/>
      <point x="1050" y="1057" type="line"/>
      <point x="1050" y="76" type="line"/>
      <point x="1111" y="76" type="line"/>
      <point x="1111" y="-275" type="line"/>
      <point x="1007" y="-275" type="line"/>
      <point x="1019" y="0" type="line"/>
      <point x="148" y="0" type="line"/>
      <point x="154" y="-275" type="line"/>
    </contour>
    <contour>
      <point x="297" y="74" type="curve"/>
      <point x="918" y="74" type="line"/>
      <point x="918" y="988" type="line"/>
      <point x="535" y="988" type="line"/>
      <point x="536" y="1015"/>
      <point x="435" y="373"/>
      <point x="437" y="393" type="curve"/>
      <point x="400" y="219"/>
      <point x="339" y="80"/>
    </contour>
  </outline>
</glyph>
<glyph name="uni043F" format="1">
  <advance width="1218"/>
  <unicode hex="043F"/>
  <outline>
    <contour>
      <point x="193" y="0" type="line"/>
      <point x="193" y="1055" type="line"/>
      <point x="1026" y="1055" type="line"/>
      <point x="1026" y="0" type="line"/>
      <point x="904" y="0" type="line"/>
      <point x="904" y="963" type="line"/>
      <point x="315" y="963" type="line"/>
      <point x="315" y="0" type="line"/>
    </contour>
  </outline>
</glyph>
<glyph name="uni0442" format="1">
  <advance width="1025"/>
  <unicode hex="0442"/>
  <outline>
    <contour>
      <point x="435" y="0" type="line"/>
      <point x="435" y="954" type="line"/>
      <point x="136" y="954" type="line"/>
      <point x="136" y="1055" type="line"/>
      <point x="875" y="1055" type="line"/>
      <point x="875" y="954" type="line"/>
      <point x="571" y="954" type="line"/>
      <point x="571" y="0" type="line"/>
    </contour>
  </outline>
</glyph>
<glyph name="uni0447" format="1">
  <advance width="1032.4"/>
  <unicode hex="0447"/>
  <outline>
    <contour>
      <point x="745.1" y="0.0" type="line"/>
      <point x="991.0" y="0.0" type="line"/>
      <point x="991.0" y="1065.8" type="line"/>
      <point x="745.1" y="1065.8" type="line"/>
      <point x="745.1" y="689.6" type="line"/>
      <point x="739.7" y="640.1"/>
      <point x="657.6" y="560.0"/>
      <point x="519.9" y="560.0" type="curve" smooth="yes"/>
      <point x="340.9" y="560.0"/>
      <point x="311.7" y="679.4"/>
      <point x="311.7" y="837.2" type="curve" smooth="yes"/>
      <point x="311.7" y="1065.8" type="line"/>
      <point x="66.5" y="1065.8" type="line"/>
      <point x="66.5" y="796.1" type="line" smooth="yes"/>
      <point x="66.5" y="522.6"/>
      <point x="196.6" y="365.4"/>
      <point x="480.5" y="362.7" type="curve"/>
      <point x="597.5" y="362.7"/>
      <point x="695.6" y="396.0"/>
      <point x="745.1" y="444.6" type="curve"/>
    </contour>
  </outline>
</glyph>
<glyph name="uni045A" format="1">
  <advance width="1499.1"/>
  <unicode hex="045A"/>
  <outline>
    <contour>
      <point x="103.0" y="0.0" type="line"/>
      <point x="349.2" y="0.0" type="line"/>
      <point x="349.2" y="464.7" type="line"/>
      <point x="742.8" y="464.7" type="line"/>
      <point x="742.8" y="0.0" type="line"/>
      <point x="1172.2" y="0.0" type="line" smooth="yes"/>
      <point x="1389.2" y="0.0"/>
      <point x="1531.9" y="144.5"/>
      <point x="1531.9" y="339.5" type="curve" smooth="yes"/>
      <point x="1531.9" y="558.9"/>
      <point x="1392.8" y="667.6"/>
      <point x="1173.1" y="667.6" type="curve" smooth="yes"/>
      <point x="985.3" y="667.6" type="line"/>
      <point x="985.3" y="1066.0" type="line"/>
      <point x="742.8" y="1066.0" type="line"/>
      <point x="742.8" y="666.7" type="line"/>
      <point x="349.2" y="666.7" type="line"/>
      <point x="349.2" y="1066.0" type="line"/>
      <point x="103.0" y="1066.0" type="line"/>
    </contour>
    <contour>
      <point x="985.3" y="189.5" type="line"/>
      <point x="985.3" y="489.0" type="line"/>
      <point x="1161.3" y="489.0" type="line" smooth="yes"/>
      <point x="1267.6" y="489.0"/>
      <point x="1321.9" y="425.6"/>
      <point x="1321.9" y="345.0" type="curve" smooth="yes"/>
      <point x="1321.9" y="260.1"/>
      <point x="1269.1" y="189.5"/>
      <point x="1162.2" y="189.5" type="curve" smooth="yes"/>
    </contour>
  </outline>
</glyph>
<glyph name="uni045F" format="1">
  <advance width="1025.6"/>
  <unicode hex="045F"/>
  <outline>
    <contour>
      <point x="455.4" y="-310.5" type="line"/>
      <point x="657.3" y="-310.5" type="line"/>
      <point x="668.1" y="0.0" type="line"/>
      <point x="983.1" y="0.0" type="line"/>
      <point x="983.1" y="1065.8" type="line"/>
      <point x="741.1" y="1065.8" type="line"/>
      <point x="741.1" y="190.4" type="line"/>
      <point x="343.7" y="190.4" type="line"/>
      <point x="343.7" y="1065.8" type="line"/>
      <point x="100.9" y="1065.8" type="line"/>
      <point x="100.9" y="0.0" type="line"/>
      <point x="447.1" y="0.0" type="line"/>
    </contour>
  </outline>
</glyph>
<glyph name="endash" format="1">
  <advance width="1130.7"/>
  <unicode hex="2013"/>
  <outline>
    <contour>
      <point x="82.1" y="451.6" type="line"/>
      <point x="1117.0" y="451.6" type="line"/>
      <point x="1117.0" y="636.1" type="line"/>
      <point x="82.1" y="636.1" type="line"/>
    </contour>
  </outline>
</glyph>
<glyph name="emdash" format="1">
  <advance width="1960.1"/>
  <unicode hex="2014"/>
  <outline>
    <contour>
      <point x="36.0" y="451.6" type="line"/>
      <point x="2017.7" y="451.6" type="line"/>
      <point x="2017.7" y="636.1" type="line"/>
      <point x="36.0" y="636.1" type="line"/>
    </contour>
  </outline>
</glyph>
<glyph name="quoteleft" format="1">
  <advance width="395.4"/>
  <unicode hex="2018"/>
  <outline>
    <contour>
      <point x="208.1" y="1026.2" type="line"/>
      <point x="370.2" y="1026.2" type="line"/>
      <point x="271.2" y="1422.9" type="line"/>
      <point x="68.3" y="1422.9" type="line"/>
    </contour>
  </outline>
</glyph>
<glyph name="quoteright" format="1">
  <advance width="393.5"/>
  <unicode hex="2019"/>
  <outline>
    <contour>
      <point x="59.6" y="1026.2" type="line"/>
      <point x="225.2" y="1026.2" type="line"/>
      <point x="375.7" y="1422.9" type="line"/>
      <point x="161.1" y="1422.9" type="line"/>
    </contour>
  </outline>
</glyph>
<glyph name="quotesinglbase" format="1">
  <advance width="480.7"/>
  <unicode hex="201A"/>
  <outline>
    <contour>
      <point x="100.4" y="-242.9" type="line"/>
      <point x="267.1" y="-242.9" type="line"/>
      <point x="418.6" y="233.1" type="line"/>
      <point x="202.6" y="233.1" type="line"/>
    </contour>
  </outline>
</glyph>
<glyph name="quotedblleft" format="1">
  <advance width="665.2"/>
  <unicode hex="201C"/>
  <outline>
    <contour>
      <point x="218.9" y="962.6" type="line"/>
      <point x="368.5" y="1136.2" type="line"/>
      <point x="260.8" y="1461.0" type="line"/>
      <point x="57.6" y="1289.9" type="line"/>
    </contour>
    <contour>
      <point x="500.1" y="962.6" type="line"/>
      <point x="653.8" y="1136.2" type="line"/>
      <point x="542.5" y="1461.9" type="line"/>
      <point x="346.6" y="1289.9" type="line"/>
    </contour>
  </outline>
</glyph>
<glyph name="quotedblright" format="1">
  <advance width="818.4"/>
  <unicode hex="201D"/>
  <outline>
    <contour>
      <point x="92.6" y="1039.3" type="line"/>
      <point x="260.0" y="1039.3" type="line"/>
      <point x="402.5" y="1435.1" type="line"/>
      <point x="196.7" y="1435.1" type="line"/>
    </contour>
    <contour>
      <point x="420.7" y="1039.8" type="line"/>
      <point x="578.9" y="1039.8" type="line"/>
      <point x="730.8" y="1435.1" type="line"/>
      <point x="516.0" y="1435.1" type="line"/>
    </contour>
  </outline>
</glyph>
<glyph name="quotedblbase" format="1">
  <advance width="855.5"/>
  <unicode hex="201E"/>
  <outline>
    <contour>
      <point x="139.6" y="-242.9" type="line"/>
      <point x="307.8" y="-242.9" type="line"/>
      <point x="463.8" y="233.1" type="line"/>
      <point x="243.0" y="233.1" type="line"/>
    </contour>
    <contour>
      <point x="454.7" y="-242.9" type="line"/>
      <point x="627.9" y="-242.9" type="line"/>
      <point x="782.8" y="233.1" type="line"/>
      <point x="563.2" y="233.1" type="line"/>
    </contour>
  </outline>
</glyph>
<glyph name="dagger" format="1">
  <advance width="863.9"/>
  <unicode hex="2020"/>
  <outline>
    <contour>
      <point x="358.9" y="108.6" type="line"/>
      <point x="539.0" y="108.6" type="line"/>
      <point x="539.0" y="923.9" type="line"/>
      <point x="854.0" y="923.9" type="line"/>
      <point x="854.0" y="1100.0" type="line"/>
      <point x="545.6" y="1100.0" type="line"/>
      <point x="545.6" y="1430.1" type="line"/>
      <point x="358.9" y="1430.1" type="line"/>
      <point x="358.9" y="1100.0" type="line"/>
      <point x="65.0" y="1100.0" type="line"/>
      <point x="65.0" y="923.9" type="line"/>
      <point x="358.9" y="923.9" type="line"/>
    </contour>
  </outline>
</glyph>
<glyph name="daggerdbl" format="1">
  <advance width="885.6"/>
  <unicode hex="2021"/>
  <outline>
    <contour>
      <point x="818.9" y="365.0" type="line"/>
      <point x="818.9" y="524.8" type="line"/>
      <point x="563.3" y="524.8" type="line"/>
      <point x="562.4" y="914.9" type="line"/>
      <point x="821.6" y="914.9" type="line"/>
      <point x="821.6" y="1085.6" type="line"/>
      <point x="561.8" y="1085.6" type="line"/>
      <point x="561.8" y="1424.7" type="line"/>
      <point x="375.1" y="1424.7" type="line"/>
      <point x="375.1" y="1085.6" type="line"/>
      <point x="116.3" y="1085.6" type="line"/>
      <point x="116.3" y="914.9" type="line"/>
      <point x="375.1" y="914.9" type="line"/>
      <point x="375.1" y="524.8" type="line"/>
      <point x="114.5" y="524.8" type="line"/>
      <point x="114.5" y="365.0" type="line"/>
      <point x="375.1" y="365.0" type="line"/>
      <point x="375.1" y="-9.3" type="line"/>
      <point x="563.3" y="-9.3" type="line"/>
      <point x="563.3" y="365.0" type="line"/>
    </contour>
  </outline>
</glyph>
<glyph name="bullet" format="1">
  <advance width="865.3"/>
  <unicode hex="2022"/>
  <outline>
    <contour>
      <point x="458.8" y="350.4" type="curve" smooth="yes"/>
      <point x="269.1" y="350.4"/>
      <point x="124.6" y="486.8"/>
      <point x="124.6" y="676.3" type="curve" smooth="yes"/>
      <point x="124.6" y="866.1"/>
      <point x="274.9" y="1006.5"/>
      <point x="463.9" y="1006.5" type="curve" smooth="yes"/>
      <point x="651.9" y="1006.5"/>
      <point x="797.5" y="871.7"/>
      <point x="797.5" y="682.1" type="curve" smooth="yes"/>
      <point x="797.5" y="491.6"/>
      <point x="648.7" y="350.4"/>
    </contour>
  </outline>
</glyph>
<glyph name="guilsinglleft" format="1">
  <advance width="523.7"/>
  <unicode hex="2039"/>
  <outline>
    <contour>
      <point x="519.0" y="948.3" type="line"/>
      <point x="318.4" y="948.3" type="line"/>
      <point x="50.4" y="551.4" type="line"/>
      <point x="311.7" y="160.9" type="line"/>
      <point x="512.2" y="160.9" type="line"/>
      <point x="262.4" y="551.3" type="line"/>
    </contour>
  </outline>
</glyph>
<glyph name="guilsinglright" format="1">
  <advance width="524.8"/>
  <unicode hex="203A"/>
  <outline>
    <contour>
      <point x="50.2" y="160.9" type="line"/>
      <point x="250.8" y="160.9" type="line"/>
      <point x="521.5" y="553.4" type="line"/>
      <point x="256.6" y="948.3" type="line"/>
      <point x="56.1" y="948.3" type="line"/>
      <point x="305.8" y="553.5" type="line"/>
    </contour>
  </outline>
</glyph>
<glyph name="fraction" format="1">
  <advance width="1048.2"/>
  <unicode hex="2044"/>
  <outline>
    <contour>
      <point x="40.4" y="0.0" type="line"/>
      <point x="240.8" y="0.0" type="line"/>
      <point x="1073.5" y="1427.5" type="line"/>
      <point x="877.7" y="1427.5" type="line"/>
    </contour>
  </outline>
</glyph>
<glyph name="uni2074" format="1">
  <advance width="758.9"/>
  <unicode hex="2074"/>
  <outline>
    <contour>
      <point x="406.3" y="594.1" type="line"/>
      <point x="562.8" y="594.1" type="line"/>
      <point x="563.6" y="761.9" type="line"/>
      <point x="672.3" y="761.9" type="line"/>
      <point x="659.2" y="916.6" type="line"/>
      <point x="564.8" y="916.6" type="line"/>
      <point x="564.8" y="1397.2" type="line"/>
      <point x="407.8" y="1397.2" type="line"/>
      <point x="78.9" y="883.6" type="line"/>
      <point x="78.9" y="761.9" type="line"/>
      <point x="406.3" y="761.9" type="line"/>
    </contour>
    <contour>
      <point x="277.5" y="916.6" type="line"/>
      <point x="404.7" y="1127.3" type="line"/>
      <point x="404.5" y="916.6" type="line"/>
    </contour>
  </outline>
</glyph>
<glyph name="Euro" format="1">
  <advance width="1243.6"/>
  <unicode hex="20AC"/>
  <outline>
    <contour>
      <point x="1186.4" y="65.2" type="line"/>
      <point x="1071.3" y="11.1"/>
      <point x="945.0" y="-19.0"/>
      <point x="813.3" y="-19.0" type="curve" smooth="yes"/>
      <point x="487.4" y="-19.0"/>
      <point x="199.4" y="157.7"/>
      <point x="126.6" y="536.7" type="curve"/>
      <point x="201.9" y="494.9" type="line"/>
      <point x="-2.4" y="494.9" type="line"/>
      <point x="-1.3" y="632.1" type="line"/>
      <point x="191.0" y="632.1" type="line"/>
      <point x="121.1" y="590.1" type="line"/>
      <point x="119.0" y="616.6"/>
      <point x="116.7" y="688.0"/>
      <point x="116.7" y="716.4" type="curve" smooth="yes"/>
      <point x="116.7" y="731.6"/>
      <point x="117.1" y="796.3"/>
      <point x="118.3" y="810.5" type="curve"/>
      <point x="192.5" y="760.0" type="line"/>
      <point x="-1.5" y="760.0" type="line"/>
      <point x="-0.5" y="896.9" type="line"/>
      <point x="200.9" y="896.9" type="line"/>
      <point x="117.6" y="845.0" type="line"/>
      <point x="177.8" y="1260.2"/>
      <point x="490.8" y="1441.0"/>
      <point x="807.6" y="1441.0" type="curve" smooth="yes"/>
      <point x="958.8" y="1441.0"/>
      <point x="1104.9" y="1399.3"/>
      <point x="1215.8" y="1328.1" type="curve"/>
      <point x="1134.4" y="1133.2" type="line"/>
      <point x="1045.6" y="1183.0"/>
      <point x="932.3" y="1212.7"/>
      <point x="826.1" y="1212.7" type="curve" smooth="yes"/>
      <point x="642.7" y="1212.7"/>
      <point x="458.2" y="1114.2"/>
      <point x="407.4" y="845.0" type="curve"/>
      <point x="340.7" y="896.9" type="line"/>
      <point x="844.8" y="896.9" type="line"/>
      <point x="843.7" y="760.0" type="line"/>
      <point x="328.1" y="760.0" type="line"/>
      <point x="403.3" y="810.5" type="line"/>
      <point x="402.0" y="795.3"/>
      <point x="401.6" y="729.3"/>
      <point x="401.6" y="713.0" type="curve" smooth="yes"/>
      <point x="401.6" y="684.8"/>
      <point x="403.0" y="615.5"/>
      <point x="405.1" y="590.1" type="curve"/>
      <point x="329.4" y="632.1" type="line"/>
      <point x="843.7" y="632.1" type="line"/>
      <point x="842.6" y="494.9" type="line"/>
      <point x="341.6" y="494.9" type="line"/>
      <point x="418.8" y="536.7" type="line"/>
      <point x="482.0" y="291.1"/>
      <point x="661.1" y="210.2"/>
      <point x="841.7" y="210.2" type="curve" smooth="yes"/>
      <point x="945.8" y="210.2"/>
      <point x="1050.3" y="238.0"/>
      <point x="1133.5" y="277.3" type="curve"/>
    </contour>
  </outline>
</glyph>
<glyph name="trademark" format="1">
  <advance width="1628.7"/>
  <unicode hex="2122"/>
  <outline>
    <contour>
      <point x="751.2" y="618.9" type="line"/>
      <point x="912.6" y="618.9" type="line"/>
      <point x="912.6" y="1125.0" type="line"/>
      <point x="1104.2" y="642.9" type="line"/>
      <point x="1210.3" y="642.9" type="line"/>
      <point x="1413.0" y="1132.4" type="line"/>
      <point x="1413.0" y="618.9" type="line"/>
      <point x="1572.2" y="618.9" type="line"/>
      <point x="1572.2" y="1418.4" type="line"/>
      <point x="1379.0" y="1418.4" type="line"/>
      <point x="1163.9" y="886.8" type="line"/>
      <point x="958.3" y="1418.4" type="line"/>
      <point x="751.2" y="1418.4" type="line"/>
    </contour>
    <contour>
      <point x="301.2" y="618.9" type="line"/>
      <point x="463.9" y="618.9" type="line"/>
      <point x="463.9" y="1264.7" type="line"/>
      <point x="697.4" y="1264.7" type="line"/>
      <point x="697.4" y="1418.4" type="line"/>
      <point x="62.8" y="1418.4" type="line"/>
      <point x="63.6" y="1264.7" type="line"/>
      <point x="301.2" y="1264.7" type="line"/>
    </contour>
  </outline>
</glyph>
<glyph name="summation" format="1">
  <advance width="1133.9"/>
  <unicode hex="2211"/>
  <outline>
    <contour>
      <point x="55.9" y="-318.2" type="line"/>
      <point x="1153.7" y="-318.2" type="line"/>
      <point x="1153.7" y="-123.0" type="line"/>
      <point x="343.7" y="-123.0" type="line"/>
      <point x="872.7" y="560.6" type="line"/>
      <point x="368.5" y="1225.5" type="line"/>
      <point x="1113.1" y="1225.5" type="line"/>
      <point x="1113.1" y="1415.1" type="line"/>
      <point x="75.3" y="1415.1" type="line"/>
      <point x="75.3" y="1286.1" type="line"/>
      <point x="626.9" y="553.5" type="line"/>
      <point x="55.9" y="-194.8" type="line"/>
    </contour>
  </outline>
</glyph>
<glyph name="minus" format="1">
  <advance width="1227.8"/>
  <unicode hex="2212"/>
  <outline>
    <contour>
      <point x="115.3" y="457.7" type="line"/>
      <point x="1110.1" y="457.7" type="line"/>
      <point x="1110.1" y="642.4" type="line"/>
      <point x="115.3" y="642.4" type="line"/>
    </contour>
  </outline>
</glyph>
<glyph name="approxequal" format="1">
  <advance width="1163.9"/>
  <unicode hex="2248"/>
  <outline>
    <contour>
      <point x="120.6" y="596.1" type="line"/>
      <point x="163.1" y="718.9"/>
      <point x="251.3" y="810.7"/>
      <point x="401.1" y="810.7" type="curve" smooth="yes"/>
      <point x="486.1" y="810.7"/>
      <point x="573.4" y="777.8"/>
      <point x="653.1" y="738.7" type="curve"/>
      <point x="733.5" y="698.1"/>
      <point x="790.3" y="675.3"/>
      <point x="845.4" y="675.3" type="curve" smooth="yes"/>
      <point x="918.8" y="675.3"/>
      <point x="976.1" y="714.9"/>
      <point x="1045.2" y="810.7" type="curve"/>
      <point x="1138.5" y="705.0" type="line"/>
      <point x="1096.1" y="590.8"/>
      <point x="982.0" y="489.7"/>
      <point x="831.5" y="489.7" type="curve" smooth="yes"/>
      <point x="740.7" y="489.7"/>
      <point x="669.0" y="521.0"/>
      <point x="572.4" y="570.3" type="curve"/>
      <point x="510.5" y="603.9"/>
      <point x="460.0" y="626.5"/>
      <point x="395.4" y="626.5" type="curve" smooth="yes"/>
      <point x="309.1" y="626.5"/>
      <point x="255.8" y="565.1"/>
      <point x="222.4" y="484.3" type="curve"/>
    </contour>
    <contour>
      <point x="120.2" y="286.5" type="line"/>
      <point x="163.5" y="408.9"/>
      <point x="252.4" y="501.7"/>
      <point x="402.1" y="501.7" type="curve" smooth="yes"/>
      <point x="487.2" y="501.7"/>
      <point x="573.1" y="469.0"/>
      <point x="651.5" y="430.8" type="curve"/>
      <point x="732.2" y="390.3"/>
      <point x="792.5" y="366.4"/>
      <point x="845.0" y="366.4" type="curve" smooth="yes"/>
      <point x="918.4" y="366.4"/>
      <point x="974.7" y="406.6"/>
      <point x="1045.6" y="501.7" type="curve"/>
      <point x="1138.2" y="395.5" type="line"/>
      <point x="1095.7" y="282.1"/>
      <point x="982.0" y="181.1"/>
      <point x="832.2" y="181.1" type="curve" smooth="yes"/>
      <point x="740.8" y="181.1"/>
      <point x="670.2" y="211.6"/>
      <point x="572.1" y="261.1" type="curve"/>
      <point x="510.2" y="294.7"/>
      <point x="460.4" y="317.9"/>
      <point x="395.8" y="317.9" type="curve" smooth="yes"/>
      <point x="308.5" y="317.9"/>
      <point x="256.3" y="255.9"/>
      <point x="222.4" y="175.2" type="curve"/>
    </contour>
  </outline>
</glyph>
<glyph name="notequal" format="1">
  <advance width="1154.9"/>
  <unicode hex="2260"/>
  <outline>
    <contour>
      <point x="429.6" y="41.1" type="line"/>
      <point x="560.6" y="308.3" type="line"/>
      <point x="1101.1" y="308.3" type="line"/>
      <point x="1089.2" y="475.5" type="line"/>
      <point x="639.9" y="475.5" type="line"/>
      <point x="752.2" y="696.3" type="line"/>
      <point x="1101.1" y="696.3" type="line"/>
      <point x="1087.9" y="874.9" type="line"/>
      <point x="830.6" y="874.9" type="line"/>
      <point x="941.2" y="1104.4" type="line"/>
      <point x="778.3" y="1126.0" type="line"/>
      <point x="650.5" y="874.9" type="line"/>
      <point x="125.3" y="874.9" type="line"/>
      <point x="137.5" y="697.1" type="line"/>
      <point x="572.9" y="697.1" type="line"/>
      <point x="463.0" y="476.4" type="line"/>
      <point x="127.1" y="476.4" type="line"/>
      <point x="137.5" y="308.3" type="line"/>
      <point x="382.0" y="308.3" type="line"/>
      <point x="268.7" y="65.9" type="line"/>
    </contour>
  </outline>
</glyph>
<glyph name="lessequal" format="1">
  <advance width="1089.0"/>
  <unicode hex="2264"/>
  <outline>
    <contour>
      <point x="1020.4" y="279.4" type="line"/>
      <point x="1020.4" y="478.7" type="line"/>
      <point x="379.7" y="754.6" type="line"/>
      <point x="1020.4" y="1046.2" type="line"/>
      <point x="1020.4" y="1240.5" type="line"/>
      <point x="133.2" y="811.6" type="line"/>
      <point x="133.2" y="696.4" type="line"/>
    </contour>
    <contour>
      <point x="123.0" y="1.8" type="line"/>
      <point x="1029.7" y="1.8" type="line"/>
      <point x="1029.7" y="160.0" type="line"/>
      <point x="123.0" y="160.0" type="line"/>
    </contour>
  </outline>
</glyph>
